<svg width="17" height="10" viewBox="0 0 17 10" fill="none" xmlns="http://www.w3.org/2000/svg">
<path fill-rule="evenodd" clip-rule="evenodd" d="M8.62371 2.92586L3.97818 1.56958C2.76539 1.2155 1.49519 1.91163 1.14111 3.12442C0.787034 4.33721 1.48316 5.60741 2.69595 5.96149L7.34148 7.31776L8.62371 2.92586Z" fill="#003083"/>
<path fill-rule="evenodd" clip-rule="evenodd" d="M7.85541 3.38741L4.13503 2.30124C3.92287 2.2393 3.70067 2.36107 3.63873 2.57323C3.57679 2.78538 3.69857 3.00758 3.91072 3.06952L7.6311 4.1557L7.85541 3.38741Z" fill="white"/>
<circle cx="8.43995" cy="6.60129" r="0.205297" fill="#006ABC"/>
<circle cx="8.61591" cy="7.42252" r="0.263954" fill="#006ABC"/>
<circle cx="8.9092" cy="8.47831" r="0.263954" fill="#006ABC"/>
<circle cx="9.37845" cy="9.18223" r="0.205297" fill="#006ABC"/>
<circle cx="9.3198" cy="6.95328" r="0.263954" fill="#006ABC"/>
<circle cx="9.55442" cy="7.89171" r="0.439923" fill="#006ABC"/>
<path fill-rule="evenodd" clip-rule="evenodd" d="M8.44986 5.41746L13.1585 6.67914C14.3601 7.00109 15.5951 6.28804 15.9171 5.08649C16.239 3.88495 15.526 2.64991 14.3244 2.32795L9.61576 1.06628L8.44986 5.41746Z" fill="#8E0D0D"/>
<path fill-rule="evenodd" clip-rule="evenodd" d="M9.91723 1.73304L13.6609 2.73615C13.8743 2.79335 14.001 3.01278 13.9438 3.22626C13.8866 3.43975 13.6672 3.56643 13.4537 3.50923L9.71009 2.50613L9.91723 1.73304Z" fill="white"/>
</svg>
