<svg width="396" height="72" viewBox="0 0 396 72" fill="none" xmlns="http://www.w3.org/2000/svg">
<path fill-rule="evenodd" clip-rule="evenodd" d="M67.5283 17.6033L28.9124 6.32926C18.8311 3.38599 8.27254 9.17253 5.32927 19.2539C2.38599 29.3352 8.17252 39.8937 18.2538 42.837L56.8698 54.111L67.5283 17.6033Z" fill="#003083"/>
<path fill-rule="evenodd" clip-rule="evenodd" d="M61.1418 21.4399L30.2161 12.411C28.4526 11.8961 26.6056 12.9084 26.0907 14.6719C25.5758 16.4355 26.5881 18.2825 28.3516 18.7974L59.2773 27.8262L61.1418 21.4399Z" fill="white"/>
<circle cx="66.0008" cy="48.1559" r="1.70653" fill="white"/>
<circle cx="67.4635" cy="54.982" r="2.19411" fill="white"/>
<circle cx="69.9014" cy="63.7586" r="2.19411" fill="white"/>
<circle cx="73.8021" cy="69.6095" r="1.70653" fill="white"/>
<circle cx="73.3145" cy="51.0813" r="2.19411" fill="white"/>
<circle cx="75.2648" cy="58.8826" r="3.65686" fill="white"/>
<path fill-rule="evenodd" clip-rule="evenodd" d="M66.0832 38.3153L105.224 48.803C115.212 51.4793 125.478 45.5521 128.154 35.5642C130.83 25.5764 124.903 15.3101 114.915 12.6338L75.7748 2.14613L66.0832 38.3153Z" fill="#8E0D0D"/>
<path fill-rule="evenodd" clip-rule="evenodd" d="M78.2808 7.68856L109.4 16.0269C111.174 16.5024 112.227 18.3264 111.752 20.1009C111.276 21.8755 109.452 22.9286 107.678 22.4531L76.5589 14.1148L78.2808 7.68856Z" fill="white"/>
<path d="M179.448 1.3499C182.547 1.3499 185.255 1.97808 187.573 3.23444C189.918 4.4908 191.719 6.23575 192.975 8.46928C194.231 10.7028 194.859 13.2434 194.859 16.0912C194.859 18.911 194.231 21.4517 192.975 23.7131C191.719 25.9746 189.918 27.7614 187.573 29.0736C185.255 30.3579 182.547 31 179.448 31H167.094V1.3499H179.448ZM178.611 22.708C180.705 22.708 182.366 22.1357 183.594 20.991C184.823 19.8463 185.437 18.213 185.437 16.0912C185.437 13.9693 184.823 12.3361 183.594 11.1914C182.366 10.0467 180.705 9.47437 178.611 9.47437H176.391V22.708H178.611ZM210.152 31.2932C207.36 31.2932 204.792 30.6371 202.446 29.3249C200.129 28.0127 198.286 26.1979 196.918 23.8806C195.55 21.5633 194.866 18.9529 194.866 16.0493C194.866 13.1457 195.55 10.5353 196.918 8.218C198.286 5.90072 200.129 4.09994 202.446 2.81566C204.792 1.50346 207.36 0.847359 210.152 0.847359C212.944 0.847359 215.499 1.50346 217.816 2.81566C220.133 4.09994 221.962 5.90072 223.302 8.218C224.67 10.5353 225.354 13.1457 225.354 16.0493C225.354 18.9529 224.67 21.5633 223.302 23.8806C221.962 26.1979 220.119 28.0127 217.774 29.3249C215.457 30.6371 212.916 31.2932 210.152 31.2932ZM210.152 22.6243C211.995 22.6243 213.419 22.038 214.424 20.8654C215.429 19.6648 215.931 18.0595 215.931 16.0493C215.931 14.0112 215.429 12.4059 214.424 11.2333C213.419 10.0327 211.995 9.43249 210.152 9.43249C208.281 9.43249 206.844 10.0327 205.839 11.2333C204.833 12.4059 204.331 14.0112 204.331 16.0493C204.331 18.0595 204.833 19.6648 205.839 20.8654C206.844 22.038 208.281 22.6243 210.152 22.6243ZM225.358 16.1331C225.358 13.2016 225.944 10.5911 227.117 8.30176C228.317 6.01239 230.02 4.23953 232.226 2.98317C234.431 1.69889 237.028 1.05675 240.015 1.05675C242.584 1.05675 244.873 1.54534 246.883 2.52251C248.921 3.47176 250.569 4.82583 251.825 6.58474C253.109 8.34364 253.961 10.3957 254.38 12.7409H244.58C244.133 11.7637 243.491 11.0099 242.654 10.4795C241.844 9.92107 240.909 9.64188 239.848 9.64188C238.284 9.64188 237.042 10.2282 236.12 11.4008C235.227 12.5734 234.78 14.1508 234.78 16.1331C234.78 18.1153 235.227 19.6928 236.12 20.8654C237.042 22.038 238.284 22.6243 239.848 22.6243C240.909 22.6243 241.844 22.359 242.654 21.8286C243.491 21.2702 244.133 20.5024 244.58 19.5252H254.38C253.961 21.8705 253.109 23.9225 251.825 25.6814C250.569 27.4403 248.921 28.8083 246.883 29.7855C244.873 30.7348 242.584 31.2094 240.015 31.2094C237.028 31.2094 234.431 30.5812 232.226 29.3249C230.02 28.0406 228.317 26.2538 227.117 23.9644C225.944 21.675 225.358 19.0646 225.358 16.1331ZM278.499 1.3499V8.72055H270.626V31H261.328V8.72055H253.539V1.3499H278.499ZM292.956 31.2932C290.164 31.2932 287.595 30.6371 285.25 29.3249C282.933 28.0127 281.09 26.1979 279.722 23.8806C278.354 21.5633 277.67 18.9529 277.67 16.0493C277.67 13.1457 278.354 10.5353 279.722 8.218C281.09 5.90072 282.933 4.09994 285.25 2.81566C287.595 1.50346 290.164 0.847359 292.956 0.847359C295.748 0.847359 298.302 1.50346 300.619 2.81566C302.937 4.09994 304.765 5.90072 306.106 8.218C307.474 10.5353 308.158 13.1457 308.158 16.0493C308.158 18.9529 307.474 21.5633 306.106 23.8806C304.765 26.1979 302.923 28.0127 300.578 29.3249C298.26 30.6371 295.72 31.2932 292.956 31.2932ZM292.956 22.6243C294.798 22.6243 296.222 22.038 297.227 20.8654C298.232 19.6648 298.735 18.0595 298.735 16.0493C298.735 14.0112 298.232 12.4059 297.227 11.2333C296.222 10.0327 294.798 9.43249 292.956 9.43249C291.085 9.43249 289.647 10.0327 288.642 11.2333C287.637 12.4059 287.135 14.0112 287.135 16.0493C287.135 18.0595 287.637 19.6648 288.642 20.8654C289.647 22.038 291.085 22.6243 292.956 22.6243ZM323.908 31L318.338 20.3628H318.296V31H308.999V1.3499H322.819C325.22 1.3499 327.272 1.78265 328.975 2.64814C330.678 3.48572 331.948 4.64436 332.786 6.12407C333.651 7.57586 334.084 9.22309 334.084 11.0658C334.084 13.048 333.526 14.8069 332.409 16.3425C331.32 17.878 329.743 18.9808 327.677 19.6509L334.126 31H323.908ZM318.296 14.1648H321.981C322.875 14.1648 323.545 13.9693 323.991 13.5785C324.438 13.1597 324.661 12.5175 324.661 11.6521C324.661 10.8703 324.424 10.2561 323.949 9.80939C323.503 9.36269 322.847 9.13934 321.981 9.13934H318.296V14.1648Z" fill="white"/>
<path d="M179.218 59.1337H169.896L168.107 64H165.938L173.413 43.7726H175.729L183.175 64H181.006L179.218 59.1337ZM178.602 57.4334L174.557 46.3523L170.511 57.4334H178.602ZM203.383 49.4011C203.383 51.16 202.807 52.5769 201.654 53.6518C200.501 54.7267 198.771 55.2641 196.465 55.2641H192.332V64H190.28V43.5088H196.465C198.752 43.5088 200.472 44.0462 201.625 45.1211C202.797 46.196 203.383 47.6226 203.383 49.4011ZM196.465 53.5052C199.67 53.5052 201.273 52.1372 201.273 49.4011C201.273 48.0331 200.892 46.9973 200.13 46.2937C199.367 45.5901 198.146 45.2384 196.465 45.2384H192.332V53.5052H196.465ZM223.741 49.4011C223.741 51.16 223.165 52.5769 222.012 53.6518C220.859 54.7267 219.129 55.2641 216.823 55.2641H212.69V64H210.638V43.5088H216.823C219.11 43.5088 220.829 44.0462 221.983 45.1211C223.155 46.196 223.741 47.6226 223.741 49.4011ZM216.823 53.5052C220.028 53.5052 221.631 52.1372 221.631 49.4011C221.631 48.0331 221.25 46.9973 220.487 46.2937C219.725 45.5901 218.504 45.2384 216.823 45.2384H212.69V53.5052H216.823ZM240.2 64.2052C238.305 64.2052 236.585 63.7655 235.041 62.886C233.497 61.987 232.276 60.746 231.377 59.163C230.497 57.5605 230.057 55.7527 230.057 53.7397C230.057 51.7268 230.497 49.9288 231.377 48.3458C232.276 46.7432 233.497 45.5022 235.041 44.6227C236.585 43.7237 238.305 43.2742 240.2 43.2742C242.116 43.2742 243.845 43.7237 245.389 44.6227C246.933 45.5022 248.145 46.7432 249.024 48.3458C249.904 49.9288 250.343 51.7268 250.343 53.7397C250.343 55.7527 249.904 57.5605 249.024 59.163C248.145 60.746 246.933 61.987 245.389 62.886C243.845 63.7655 242.116 64.2052 240.2 64.2052ZM240.2 62.417C241.725 62.417 243.093 62.0652 244.305 61.3616C245.516 60.6581 246.474 59.6516 247.177 58.3422C247.881 57.0132 248.233 55.4791 248.233 53.7397C248.233 52.0004 247.881 50.476 247.177 49.1666C246.474 47.8572 245.516 46.8507 244.305 46.1471C243.093 45.4436 241.725 45.0918 240.2 45.0918C238.676 45.0918 237.308 45.4436 236.096 46.1471C234.885 46.8507 233.927 47.8572 233.223 49.1666C232.52 50.476 232.168 52.0004 232.168 53.7397C232.168 55.4791 232.52 57.0132 233.223 58.3422C233.927 59.6516 234.885 60.6581 236.096 61.3616C237.308 62.0652 238.676 62.417 240.2 62.417ZM259.961 43.5088V64H257.909V43.5088H259.961ZM283.868 64H281.816L270.471 46.7627V64H268.419V43.5088H270.471L281.816 60.7167V43.5088H283.868V64ZM304.317 43.5088V45.209H298.63V64H296.578V45.209H290.861V43.5088H304.317ZM331.39 43.7726V64H329.338V47.8474L322.127 64H320.632L313.42 47.906V64H311.368V43.7726H313.537L321.365 61.303L329.192 43.7726H331.39ZM341.908 45.1797V52.831H349.677V54.5312H341.908V62.2997H350.556V64H339.856V43.4795H350.556V45.1797H341.908ZM373.86 64H371.808L360.463 46.7627V64H358.411V43.5088H360.463L371.808 60.7167V43.5088H373.86V64ZM394.308 43.5088V45.209H388.621V64H386.569V45.209H380.853V43.5088H394.308Z" fill="white"/>
</svg>
