<svg width="32" height="32" viewBox="0 0 32 32" fill="none" xmlns="http://www.w3.org/2000/svg">
<g id="appointment">
<g id="Group">
<path id="Vector" d="M15.9999 12.0001C18.5772 12.0001 20.6666 9.91074 20.6666 7.33341C20.6666 4.75609 18.5772 2.66675 15.9999 2.66675C13.4226 2.66675 11.3333 4.75609 11.3333 7.33341C11.3333 9.91074 13.4226 12.0001 15.9999 12.0001Z" stroke="white" stroke-width="2.66667" stroke-linecap="round" stroke-linejoin="round"/>
<path id="Vector_2" d="M2.66663 27.3334C2.66663 21.4421 8.03929 16.6667 14.6666 16.6667" stroke="white" stroke-width="2.66667" stroke-linecap="round" stroke-linejoin="round"/>
<path id="Vector_3" d="M22.6666 28.6667C25.9803 28.6667 28.6666 25.9805 28.6666 22.6667C28.6666 19.353 25.9803 16.6667 22.6666 16.6667C19.3529 16.6667 16.6666 19.353 16.6666 22.6667C16.6666 25.9805 19.3529 28.6667 22.6666 28.6667Z" stroke="white" stroke-width="2.66667"/>
<path id="Vector_4" d="M22 20.6667V23.3334H24.6667" stroke="white" stroke-width="2.66667" stroke-linecap="round" stroke-linejoin="round"/>
</g>
</g>
</svg>
