<svg width="32" height="32" viewBox="0 0 32 32" fill="none" xmlns="http://www.w3.org/2000/svg">
<g id="doctor">
<path id="Vector" d="M11.7334 14.9333C10.3189 14.9333 8.96235 14.3714 7.96215 13.3712C6.96196 12.371 6.40006 11.0145 6.40006 9.59997V5.3333C6.40006 5.0504 6.51244 4.77909 6.71248 4.57905C6.91252 4.37902 7.18383 4.26663 7.46672 4.26663H8.53339C8.81629 4.26663 9.0876 4.15425 9.28764 3.95421C9.48768 3.75418 9.60006 3.48287 9.60006 3.19997C9.60006 2.91707 9.48768 2.64576 9.28764 2.44572C9.0876 2.24568 8.81629 2.1333 8.53339 2.1333H7.46672C6.61803 2.1333 5.8041 2.47044 5.20398 3.07056C4.60387 3.67068 4.26672 4.48461 4.26672 5.3333V9.59997C4.26809 10.805 4.56195 11.9917 5.12304 13.0582C5.68414 14.1246 6.49571 15.039 7.48806 15.7226C8.44147 16.5632 9.21468 17.5882 9.761 18.7359C10.3073 19.8835 10.6154 21.13 10.6667 22.4C10.6667 24.3803 11.4534 26.2794 12.8537 27.6797C14.2539 29.08 16.1531 29.8666 18.1334 29.8666C20.1137 29.8666 22.0128 29.08 23.4131 27.6797C24.8134 26.2794 25.6001 24.3803 25.6001 22.4V21.184C26.6056 20.9243 27.4819 20.3069 28.0647 19.4474C28.6475 18.5879 28.8969 17.5454 28.7661 16.5152C28.6352 15.485 28.1331 14.5379 27.3539 13.8514C26.5747 13.1649 25.5719 12.7861 24.5334 12.7861C23.4949 12.7861 22.4921 13.1649 21.7129 13.8514C20.9337 14.5379 20.4316 15.485 20.3007 16.5152C20.1699 17.5454 20.4192 18.5879 21.0021 19.4474C21.5849 20.3069 22.4612 20.9243 23.4667 21.184V22.4C23.4667 23.8145 22.9048 25.171 21.9046 26.1712C20.9044 27.1714 19.5479 27.7333 18.1334 27.7333C16.7189 27.7333 15.3623 27.1714 14.3622 26.1712C13.362 25.171 12.8001 23.8145 12.8001 22.4C12.8541 21.1284 13.1655 19.881 13.7155 18.7332C14.2656 17.5855 15.0427 16.5613 16.0001 15.7226C16.9885 15.0366 17.7959 14.1212 18.3532 13.0549C18.9105 11.9886 19.2011 10.8031 19.2001 9.59997V5.3333C19.2001 4.48461 18.8629 3.67068 18.2628 3.07056C17.6627 2.47044 16.8488 2.1333 16.0001 2.1333H14.9334C14.6505 2.1333 14.3792 2.24568 14.1791 2.44572C13.9791 2.64576 13.8667 2.91707 13.8667 3.19997C13.8667 3.48287 13.9791 3.75418 14.1791 3.95421C14.3792 4.15425 14.6505 4.26663 14.9334 4.26663H16.0001C16.283 4.26663 16.5543 4.37902 16.7543 4.57905C16.9543 4.77909 17.0667 5.0504 17.0667 5.3333V9.59997C17.0667 10.3004 16.9288 10.9939 16.6607 11.6409C16.3927 12.288 15.9999 12.876 15.5046 13.3712C15.0094 13.8664 14.4214 14.2593 13.7744 14.5273C13.1273 14.7954 12.4338 14.9333 11.7334 14.9333ZM24.5334 19.2C23.9676 19.2 23.425 18.9752 23.0249 18.5751C22.6248 18.1751 22.4001 17.6324 22.4001 17.0666C22.4001 16.5008 22.6248 15.9582 23.0249 15.5581C23.425 15.1581 23.9676 14.9333 24.5334 14.9333C25.0992 14.9333 25.6418 15.1581 26.0419 15.5581C26.442 15.9582 26.6667 16.5008 26.6667 17.0666C26.6667 17.6324 26.442 18.1751 26.0419 18.5751C25.6418 18.9752 25.0992 19.2 24.5334 19.2Z" fill="white"/>
</g>
</svg>
