<svg width="24" height="24" viewBox="0 0 24 24" fill="none" xmlns="http://www.w3.org/2000/svg">
<path d="M9.82575 20.8005V14.7935H7.97025V12.0331H9.82575V10.8438C9.82575 7.76874 11.2117 6.34376 14.2192 6.34376C14.52 6.34376 14.9355 6.37538 15.3203 6.4213C15.6084 6.45106 15.8943 6.5001 16.176 6.56808V9.07101C16.0132 9.05577 15.8498 9.04673 15.6863 9.04391C15.503 9.03914 15.3198 9.03688 15.1365 9.03714C14.6062 9.03714 14.1922 9.1094 13.8802 9.26974C13.6705 9.37536 13.4942 9.53748 13.371 9.73796C13.1775 10.0541 13.0905 10.487 13.0905 11.0568V12.0331H16.0297L15.7402 13.6162L15.525 14.7935H13.0905V21C17.547 20.4595 21 16.6513 21 12.0331C21 7.04458 16.9702 3 12 3C7.02975 3 3 7.04458 3 12.0331C3 16.2697 5.9055 19.8242 9.82575 20.8005Z" fill="white"/>
</svg>
