<svg width="24" height="24" viewBox="0 0 24 24" fill="none" xmlns="http://www.w3.org/2000/svg">
<path d="M12.9251 3.00049C13.9376 3.00319 14.4515 3.00859 14.8951 3.02119L15.0697 3.02749C15.2713 3.03469 15.4702 3.04369 15.7105 3.05449C16.6681 3.09948 17.3214 3.25068 17.8947 3.47296C18.4887 3.70155 18.989 4.01114 19.4894 4.51061C19.947 4.96049 20.3011 5.50469 20.5271 6.10533C20.7494 6.6786 20.9005 7.33197 20.9455 8.29042C20.9563 8.5298 20.9653 8.7287 20.9725 8.93118L20.9779 9.10578C20.9914 9.54855 20.9968 10.0624 20.9986 11.0749L20.9995 11.7462V12.9252C21.0017 13.5816 20.9948 14.238 20.9788 14.8943L20.9734 15.0689C20.9662 15.2714 20.9572 15.4702 20.9464 15.7096C20.9014 16.6681 20.7485 17.3206 20.5271 17.8947C20.3018 18.4957 19.9476 19.04 19.4894 19.4894C19.0394 19.9469 18.4952 20.301 17.8947 20.5271C17.3214 20.7494 16.6681 20.9006 15.7105 20.9456C15.497 20.9556 15.2834 20.9646 15.0697 20.9726L14.8951 20.978C14.4515 20.9906 13.9376 20.9969 12.9251 20.9987L12.2538 20.9996H11.0757C10.419 21.0018 9.76228 20.9949 9.10575 20.9789L8.93115 20.9735C8.71751 20.9654 8.50392 20.9561 8.29039 20.9456C7.33284 20.9006 6.67947 20.7494 6.1053 20.5271C5.50473 20.3015 4.96075 19.9474 4.51148 19.4894C4.05345 19.0397 3.69902 18.4955 3.47293 17.8947C3.25065 17.3215 3.09945 16.6681 3.05446 15.7096C3.04443 15.4961 3.03543 15.2825 3.02746 15.0689L3.02296 14.8943C3.00637 14.238 2.99887 13.5816 3.00046 12.9252V11.0749C2.99795 10.4184 3.00455 9.76202 3.02026 9.10578L3.02656 8.93118C3.03376 8.7287 3.04276 8.5298 3.05356 8.29042C3.09855 7.33197 3.24975 6.6795 3.47203 6.10533C3.69803 5.50407 4.05315 4.95971 4.51238 4.51061C4.96154 4.05296 5.50516 3.69884 6.1053 3.47296C6.67947 3.25068 7.33194 3.09948 8.29039 3.05449C8.52977 3.04369 8.72956 3.03469 8.93115 3.02749L9.10575 3.02209C9.76199 3.0061 10.4184 2.9992 11.0748 3.00139L12.9251 3.00049ZM12 7.50026C10.8066 7.50026 9.66205 7.97434 8.81818 8.81821C7.97431 9.66208 7.50023 10.8066 7.50023 12C7.50023 13.1934 7.97431 14.338 8.81818 15.1818C9.66205 16.0257 10.8066 16.4998 12 16.4998C13.1934 16.4998 14.3379 16.0257 15.1818 15.1818C16.0257 14.338 16.4998 13.1934 16.4998 12C16.4998 10.8066 16.0257 9.66208 15.1818 8.81821C14.3379 7.97434 13.1934 7.50026 12 7.50026ZM12 9.30017C12.3545 9.30011 12.7056 9.36988 13.0332 9.50551C13.3608 9.64113 13.6585 9.83996 13.9092 10.0906C14.16 10.3413 14.3589 10.6389 14.4946 10.9664C14.6304 11.294 14.7002 11.645 14.7003 11.9996C14.7004 12.3541 14.6306 12.7052 14.495 13.0328C14.3593 13.3604 14.1605 13.6581 13.9099 13.9088C13.6592 14.1595 13.3616 14.3585 13.0341 14.4942C12.7065 14.6299 12.3554 14.6998 12.0009 14.6999C11.2848 14.6999 10.5981 14.4154 10.0918 13.9091C9.58548 13.4028 9.30104 12.7161 9.30104 12C9.30104 11.284 9.58548 10.5973 10.0918 10.0909C10.5981 9.58461 11.2848 9.30017 12.0009 9.30017M16.7257 6.15033C16.4273 6.15033 16.1412 6.26885 15.9302 6.47981C15.7192 6.69078 15.6007 6.97692 15.6007 7.27527C15.6007 7.57362 15.7192 7.85976 15.9302 8.07072C16.1412 8.28169 16.4273 8.40021 16.7257 8.40021C17.024 8.40021 17.3101 8.28169 17.5211 8.07072C17.7321 7.85976 17.8506 7.57362 17.8506 7.27527C17.8506 6.97692 17.7321 6.69078 17.5211 6.47981C17.3101 6.26885 17.024 6.15033 16.7257 6.15033Z" fill="white"/>
</svg>
