<svg width="32" height="32" viewBox="0 0 32 32" fill="none" xmlns="http://www.w3.org/2000/svg">
<path fill-rule="evenodd" clip-rule="evenodd" d="M28.8 12.8C28.8 12.3757 28.6314 11.9687 28.3314 11.6687C28.0313 11.3686 27.6243 11.2 27.2 11.2H10.7072C10.2828 11.2 9.87587 11.3686 9.57582 11.6687C9.27576 11.9687 9.10719 12.3757 9.10719 12.8C9.10719 13.2244 9.27576 13.6314 9.57582 13.9314C9.87587 14.2315 10.2828 14.4 10.7072 14.4H27.2C27.6243 14.4 28.0313 14.2315 28.3314 13.9314C28.6314 13.6314 28.8 13.2244 28.8 12.8ZM28.8 6.40005C28.8 5.9757 28.6314 5.56874 28.3314 5.26868C28.0313 4.96862 27.6243 4.80005 27.2 4.80005H4.79999C4.37564 4.80005 3.96867 4.96862 3.66862 5.26868C3.36856 5.56874 3.19999 5.9757 3.19999 6.40005C3.19999 6.8244 3.36856 7.23136 3.66862 7.53142C3.96867 7.83148 4.37564 8.00005 4.79999 8.00005H27.2C27.6243 8.00005 28.0313 7.83148 28.3314 7.53142C28.6314 7.23136 28.8 6.8244 28.8 6.40005ZM28.8 19.2C28.8 18.7757 28.6314 18.3687 28.3314 18.0687C28.0313 17.7686 27.6243 17.6 27.2 17.6H4.79999C4.37564 17.6 3.96867 17.7686 3.66862 18.0687C3.36856 18.3687 3.19999 18.7757 3.19999 19.2C3.19999 19.6244 3.36856 20.0314 3.66862 20.3314C3.96867 20.6315 4.37564 20.8 4.79999 20.8H27.2C27.6243 20.8 28.0313 20.6315 28.3314 20.3314C28.6314 20.0314 28.8 19.6244 28.8 19.2ZM28.8 25.6C28.8 25.1757 28.6314 24.7687 28.3314 24.4687C28.0313 24.1686 27.6243 24 27.2 24H10.7072C10.2828 24 9.87587 24.1686 9.57582 24.4687C9.27576 24.7687 9.10719 25.1757 9.10719 25.6C9.10719 26.0244 9.27576 26.4314 9.57582 26.7314C9.87587 27.0315 10.2828 27.2 10.7072 27.2H27.2C27.6243 27.2 28.0313 27.0315 28.3314 26.7314C28.6314 26.4314 28.8 26.0244 28.8 25.6Z" fill="white"/>
</svg>
