<svg width="32" height="32" viewBox="0 0 32 32" fill="none" xmlns="http://www.w3.org/2000/svg">
<g id="patients">
<path id="Vector" d="M25.7828 21.3485C26.2123 20.9407 26.5543 20.4497 26.788 19.9055C27.0217 19.3612 27.1423 18.7751 27.1423 18.1828C27.1423 17.5905 27.0217 17.0044 26.788 16.4602C26.5543 15.916 26.2123 15.425 25.7828 15.0171C24.9036 14.1827 23.7378 13.7175 22.5257 13.7175C21.3136 13.7175 20.1477 14.1827 19.2685 15.0171L16 18.2857L12.7314 15.0171C11.8522 14.1827 10.6863 13.7175 9.47424 13.7175C8.26214 13.7175 7.09627 14.1827 6.2171 15.0171C5.78761 15.425 5.4456 15.916 5.2119 16.4602C4.97819 17.0044 4.85767 17.5905 4.85767 18.1828C4.85767 18.7751 4.97819 19.3612 5.2119 19.9055C5.4456 20.4497 5.78761 20.9407 6.2171 21.3485L16 30.8571L25.7828 21.3485ZM16 10.2857C17.2124 10.2857 18.3751 9.80405 19.2324 8.94674C20.0898 8.08943 20.5714 6.92667 20.5714 5.71425C20.5714 4.50183 20.0898 3.33907 19.2324 2.48176C18.3751 1.62445 17.2124 1.14282 16 1.14282C14.7875 1.14282 13.6248 1.62445 12.7675 2.48176C11.9102 3.33907 11.4285 4.50183 11.4285 5.71425C11.4285 6.92667 11.9102 8.08943 12.7675 8.94674C13.6248 9.80405 14.7875 10.2857 16 10.2857Z" stroke="white" stroke-width="2.28571" stroke-linecap="round" stroke-linejoin="round"/>
</g>
</svg>
