<svg width="24" height="24" viewBox="0 0 24 24" fill="none" xmlns="http://www.w3.org/2000/svg">
<g id="material-symbols-light:edit-note-outline">
<path id="Vector" d="M5 14V13H12V14H5ZM5 10V9H16V10H5ZM5 6V5H16V6H5ZM13.23 19V16.79L18.563 11.483C18.6623 11.3843 18.7643 11.3177 18.869 11.283C18.9737 11.2483 19.0787 11.231 19.184 11.231C19.2987 11.231 19.4113 11.2523 19.522 11.295C19.632 11.3383 19.7323 11.4027 19.823 11.488L20.748 12.433C20.83 12.5317 20.8927 12.634 20.936 12.74C20.9787 12.8467 21 12.9533 21 13.06C21 13.1667 20.9793 13.274 20.938 13.382C20.8973 13.49 20.834 13.5933 20.748 13.692L15.44 19H13.23ZM14.115 18.115H15.065L18.533 14.642L18.063 14.167L17.608 13.679L14.115 17.165V18.115ZM18.063 14.167L17.608 13.679L18.533 14.642L18.063 14.167Z" fill="white"/>
</g>
</svg>
