<svg width="32" height="32" viewBox="0 0 32 32" fill="none" xmlns="http://www.w3.org/2000/svg">
<path d="M21 30C19.4178 30 17.871 29.5308 16.5554 28.6518C15.2398 27.7727 14.2145 26.5233 13.609 25.0615C13.0035 23.5997 12.845 21.9911 13.1537 20.4393C13.4624 18.8874 14.2243 17.462 15.3431 16.3431C16.462 15.2243 17.8874 14.4624 19.4393 14.1537C20.9911 13.845 22.5997 14.0035 24.0615 14.609C25.5233 15.2145 26.7727 16.2398 27.6518 17.5554C28.5308 18.871 29 20.4178 29 22C29 24.1217 28.1571 26.1566 26.6569 27.6569C25.1566 29.1571 23.1217 30 21 30ZM21 16C19.8133 16 18.6533 16.3519 17.6666 17.0112C16.6799 17.6705 15.9109 18.6075 15.4567 19.7039C15.0026 20.8003 14.8838 22.0067 15.1153 23.1705C15.3468 24.3344 15.9182 25.4035 16.7574 26.2426C17.5965 27.0818 18.6656 27.6532 19.8295 27.8847C20.9933 28.1162 22.1997 27.9974 23.2961 27.5433C24.3925 27.0892 25.3295 26.3201 25.9888 25.3334C26.6481 24.3467 27 23.1867 27 22C27 20.4087 26.3679 18.8826 25.2426 17.7574C24.1174 16.6321 22.5913 16 21 16Z" fill="white"/>
<path d="M22.59 25L20 22.41V18H22V21.59L24 23.59L22.59 25Z" fill="white"/>
<path d="M28 6C28 5.46957 27.7893 4.96086 27.4142 4.58579C27.0391 4.21071 26.5304 4 26 4H22V2H20V4H12V2H10V4H6C5.46957 4 4.96086 4.21071 4.58579 4.58579C4.21071 4.96086 4 5.46957 4 6V26C4 26.5304 4.21071 27.0391 4.58579 27.4142C4.96086 27.7893 5.46957 28 6 28H10V26H6V6H10V8H12V6H20V8H22V6H26V12H28V6Z" fill="white"/>
</svg>
