<svg width="24" height="24" viewBox="0 0 24 24" fill="none" xmlns="http://www.w3.org/2000/svg">
<path d="M4.75 20.5H19.25C19.44 20.5001 19.6229 20.5722 19.7618 20.702C19.9006 20.8317 19.9851 21.0093 19.998 21.1989C20.011 21.3885 19.9515 21.5759 19.8316 21.7233C19.7117 21.8707 19.5402 21.9671 19.352 21.993L19.25 22H4.75C4.55998 21.9999 4.37706 21.9278 4.23821 21.798C4.09936 21.6683 4.01493 21.4907 4.00197 21.3011C3.98902 21.1115 4.04852 20.9241 4.16843 20.7767C4.28835 20.6293 4.45975 20.5329 4.648 20.507L4.75 20.5ZM16.25 3C17.2446 3 18.1984 3.39509 18.9017 4.09835C19.6049 4.80161 20 5.75544 20 6.75V15.25C20 16.2446 19.6049 17.1984 18.9017 17.9017C18.1984 18.6049 17.2446 19 16.25 19H7.75C6.75544 19 5.80161 18.6049 5.09835 17.9017C4.39509 17.1984 4 16.2446 4 15.25V6.75C4 5.75544 4.39509 4.80161 5.09835 4.09835C5.80161 3.39509 6.75544 3 7.75 3H16.25ZM16.25 4.5H7.75C7.15326 4.5 6.58097 4.73705 6.15901 5.15901C5.73705 5.58097 5.5 6.15326 5.5 6.75V15.25C5.5 15.8467 5.73705 16.419 6.15901 16.841C6.58097 17.2629 7.15326 17.5 7.75 17.5H16.25C16.8467 17.5 17.419 17.2629 17.841 16.841C18.2629 16.419 18.5 15.8467 18.5 15.25V6.75C18.5 6.15326 18.2629 5.58097 17.841 5.15901C17.419 4.73705 16.8467 4.5 16.25 4.5Z" fill="black"/>
</svg>
