<svg width="100" height="100" viewBox="0 0 100 100" fill="none" xmlns="http://www.w3.org/2000/svg">
<path d="M97.95 79.3L60.035 9.62C57.575 5.055 53.895 2.5 49.945 2.5C45.995 2.5 42.37 5.105 39.865 9.67L2.045 79.305C-0.405 83.81 -0.675 88.43 1.355 91.955C3.38 95.49 7.435 97.5 12.45 97.5H87.55C92.565 97.5 96.62 95.49 98.65 91.96C100.675 88.43 100.405 83.865 97.95 79.305M50 24.285C51.975 24.285 53.575 25.915 53.575 27.925V60.84C53.575 62.85 51.975 64.48 50 64.48C49.5262 64.4761 49.0577 64.3788 48.6215 64.1937C48.1853 64.0085 47.7899 63.7392 47.4578 63.4012C47.1258 63.0631 46.8637 62.6629 46.6865 62.2234C46.5092 61.7839 46.4204 61.3138 46.425 60.84V27.92C46.425 25.965 48.025 24.285 50 24.285ZM50 82.4C46.905 82.4 44.45 79.85 44.45 76.7C44.45 73.55 46.96 70.995 50 70.995C53.095 70.995 55.55 73.545 55.55 76.695C55.55 79.845 53.04 82.4 50 82.4Z" fill="#F6B216"/>
</svg>
