<svg width="2280" height="2078" viewBox="0 0 2280 2078" fill="none" xmlns="http://www.w3.org/2000/svg">
<g id="background-login">
<g id="&#60;Group&#62;">
<g id="&#60;Group&#62;_2" style="mix-blend-mode:multiply">
<path id="&#60;Path&#62;" d="M1382.9 473C1370.8 524.7 1355.7 575.7 1337.5 625.6C1329.4 647.8 1320.5 670.2 1304.9 687.9C1265 733.2 1195.3 734.6 1135.8 724.8C1081 715.7 1027.2 700.1 976.1 678.4C925.4 656.9 876.4 629.1 822.1 620C767.7 610.9 704.6 625.5 675.3 672.2C657.9 699.9 655.1 735.1 661.9 767.1C668.7 799.2 684.3 828.7 701.6 856.5C721.5 888.3 744.5 920.6 747.4 958C750.5 996.7 729.1 1036.3 695.1 1054.9C646.6 1081.4 587.3 1064.8 532.9 1054.9C463.9 1042.3 389.8 1042.4 326.7 1073.2C263.7 1103.9 214.9 1170.8 221.4 1240.7" stroke="white" stroke-width="2" stroke-miterlimit="10"/>
<path id="&#60;Path&#62;_2" d="M1370.7 462.5C1358.9 513.1 1344 562.9 1326.1 611.6C1318.1 633.2 1309.2 655.1 1294 672.5C1255.2 716.8 1187.7 719.3 1129.9 710.8C1116.1 708.8 1102.43 706.367 1088.9 703.5C1049.7 695.4 1011.3 683.7 974.2 668.8C924.7 648.8 876.7 622.8 823.6 614.4C770.5 606.1 710.7 621.4 679.8 664.7C668.2 681 660.2 698.6 656.9 717.6C654.6 730.5 654.1 744 655.4 757.3C656 763.367 656.967 769.467 658.3 775.6C663.6 800.1 675 824.1 687.3 846.8C688.567 849.067 689.8 851.333 691 853.6C710.4 888.5 730.8 924.3 732 963.4C733 1001 713.2 1039.3 680 1057.7C632.8 1083.8 575.2 1068.9 522.6 1060.5C518.467 1059.83 514.3 1059.23 510.1 1058.7C447 1050.2 381 1053.7 324.7 1082.8C264.7 1113.8 218.8 1179.3 226.1 1247.2" stroke="#F9F9F9" stroke-width="2" stroke-miterlimit="10"/>
<path id="&#60;Path&#62;_3" d="M1358.4 452.1C1347 501.5 1332.3 550.1 1314.6 597.6C1306.7 618.7 1298 640 1283.2 657C1245.4 700.4 1180.2 703.9 1124 696.8C1110.6 695.133 1097.3 693.067 1084.1 690.6C1046 683.4 1008.5 672.9 972.3 659.1C924 640.8 877 616.5 825.2 608.9C773.3 601.3 716.4 617.1 684.3 657.3C671.3 673.5 660.7 689.5 655 707.9C651.1 720.4 649 733.8 648.9 747.5C648.834 753.767 649.233 760.133 650.1 766.6C653.4 792.5 664.7 818.6 676.8 843.4C678 845.8 679.2 848.233 680.4 850.7C699.3 888.8 717.3 927.8 716.5 968.8C715.8 1005.3 697.2 1042.3 664.9 1060.5C619 1086.2 563.1 1072.9 512.3 1066.1C508.3 1065.57 504.3 1065.07 500.3 1064.6C439.3 1058 376.1 1063 322.7 1092.4C265.7 1123.7 222.7 1187.7 230.8 1253.6" stroke="#F4F4F4" stroke-width="2" stroke-miterlimit="10"/>
<path id="&#60;Path&#62;_4" d="M1346.2 441.6C1335 489.9 1320.6 537.3 1303.2 583.6C1295.4 604.1 1286.8 624.9 1272.4 641.5C1235.6 684 1172.6 688.5 1118 682.8C1105.07 681.467 1092.17 679.733 1079.3 677.6C1042.3 671.5 1005.8 662 970.5 649.5C923.3 632.8 877.3 610.3 826.7 603.4C776.1 596.5 721.9 612.8 688.7 649.8C674.3 666 661.1 680.3 653.1 698.1C647.7 710.3 643.8 723.6 642.4 737.7C641.7 744.1 641.5 750.7 641.8 757.5C643.2 784.8 654.4 813.2 666.3 839.9C667.5 842.567 668.667 845.2 669.8 847.8C688.3 889 703.8 931.3 701 974.2C698.7 1009.5 681.3 1045.4 649.9 1063.2C605.2 1088.6 551.1 1077 502 1071.7C498.134 1071.3 494.267 1070.93 490.4 1070.6C431.6 1065.8 371.3 1072.4 320.6 1102C266.7 1133.6 226.6 1196.1 235.4 1260.1" stroke="#EEEEEE" stroke-width="2" stroke-miterlimit="10"/>
<path id="&#60;Path&#62;_5" d="M1333.9 431.2C1323.1 478.2 1308.9 524.5 1291.7 569.6C1284 589.6 1275.5 609.8 1261.5 626C1225.8 667.6 1165.1 673.1 1112.1 668.9C1099.57 667.833 1087.03 666.433 1074.5 664.7C1038.6 659.5 1003.1 651.2 968.6 639.9C922.5 624.7 877.6 604 828.3 597.8C778.9 591.7 727 608.3 693.2 642.4C677.2 658.5 661.5 671.1 651.3 688.4C644.3 700.2 638.7 713.4 635.8 727.8C634.5 734.4 633.7 741.3 633.6 748.5C633 777.2 644.1 807.8 655.8 836.4C656.934 839.267 658.067 842.1 659.2 844.9C677.2 889.2 690.4 934.6 685.5 979.6C681.9 1013.6 665.3 1048.4 634.8 1066C591.3 1091 539 1081 491.7 1077.3C487.967 1077.03 484.234 1076.8 480.5 1076.6C423.9 1073.7 366.4 1081.8 318.6 1111.7C267.7 1143.5 230.5 1204.6 240.1 1266.5" stroke="#E9E9E9" stroke-width="2" stroke-miterlimit="10"/>
<path id="&#60;Path&#62;_6" d="M1321.7 420.7C1311.2 466.6 1297.3 511.7 1280.2 555.6C1272.7 575 1264.3 594.7 1250.7 610.6C1215.9 651.2 1157.5 657.7 1106.2 654.9C1094 654.233 1081.87 653.167 1069.8 651.7C1034.9 647.6 1000.3 640.4 966.7 630.2C921.8 616.7 877.9 597.7 829.8 592.3C781.7 586.9 731.8 603.7 697.6 635C680.1 651 662 661.9 649.4 678.7C640.8 690.1 633.6 703.3 629.3 718C627.3 724.8 625.9 731.9 625.3 739.5C622.8 769.5 633.8 802.3 645.2 833C646.333 836 647.467 839.033 648.6 842.1C666.2 889.4 677 937.9 670.1 985C665.2 1017.8 649.4 1051.5 619.7 1068.8C577.5 1093.4 527 1085.1 481.4 1082.9C477.8 1082.77 474.2 1082.67 470.6 1082.6C416.2 1081.5 361.5 1091.1 316.6 1121.3C268.7 1153.4 234.4 1213 244.8 1273" stroke="#E3E3E3" stroke-width="2" stroke-miterlimit="10"/>
<path id="&#60;Path&#62;_7" d="M1309.5 410.3C1299.2 455 1285.6 498.9 1268.8 541.5C1261.3 560.5 1253 579.5 1239.8 595.1C1206.1 634.8 1149.9 642.3 1100.3 640.9C1088.5 640.566 1076.73 639.866 1065 638.8C1031.1 635.7 997.6 629.6 964.8 620.6C921.1 608.6 878.2 591.4 831.4 586.8C784.5 582.1 736.4 599 702.1 627.5C682.8 643.5 662.4 652.7 647.5 669C637.4 680 628.5 693.1 622.8 708.2C620.2 715.1 618.2 722.5 617 730.4C612.5 761.9 623.5 796.9 634.7 829.5C635.833 832.7 636.933 835.933 638 839.2C655.1 889.7 663.8 941.1 654.6 990.4C648.7 1021.9 633.4 1054.5 604.6 1071.5C563.7 1095.8 514.9 1089.1 471.1 1088.6C467.633 1088.53 464.167 1088.53 460.7 1088.6C408.5 1089.3 356.6 1100.5 314.5 1130.9C269.7 1163.3 238.3 1221.5 249.5 1279.5" stroke="#DEDEDE" stroke-width="2" stroke-miterlimit="10"/>
<path id="&#60;Path&#62;_8" d="M1297.2 399.8C1287.3 443.4 1273.9 486.1 1257.3 527.5C1250 546 1241.8 564.4 1229 579.6C1196.3 618.4 1142.4 627 1094.4 626.9C1083 626.9 1071.6 626.533 1060.2 625.8C1027.4 623.7 994.9 618.7 963 611C920.4 600.6 878.5 585.1 832.9 581.2C787.3 577.3 735.7 588.4 706.6 620.1C683.1 632 662.8 643.6 645.7 659.2C634 669.9 623.4 682.9 616.3 698.4C613 705.5 610.4 713.1 608.8 721.4C602.3 754.3 613.2 791.5 624.2 826C625.267 829.4 626.333 832.833 627.4 836.3C644.1 889.9 650.7 944.2 639.1 995.8C632.3 1026.1 617.4 1057.5 589.6 1074.3C549.9 1098.2 502.8 1093.2 460.8 1094.2C457.467 1094.27 454.167 1094.37 450.9 1094.5C400.8 1097.1 351.7 1109.8 312.5 1140.5C270.7 1173.2 242.2 1229.9 254.2 1285.9" stroke="#D8D8D8" stroke-width="2" stroke-miterlimit="10"/>
<path id="&#60;Path&#62;_9" d="M1285 389.3C1275.4 431.8 1262.2 473.3 1245.9 513.5C1238.6 531.4 1230.6 549.3 1218.1 564.1C1186.5 601.9 1134.8 611.6 1088.5 612.9C1077.5 613.233 1066.47 613.2 1055.4 612.8C1023.7 611.8 992.1 607.9 961.1 601.3C919.7 592.6 878.8 578.8 834.5 575.7C790.1 572.5 740.1 583.1 711 612.6C685.6 623.9 663.2 634.4 643.8 649.5C630.5 659.8 618.3 672.7 609.8 688.6C605.8 695.8 602.7 703.7 600.5 712.4C592.1 746.6 602.9 786.1 613.7 822.6C614.767 826.2 615.8 829.8 616.8 833.4C633 890.1 637.7 947.4 623.6 1001.2C616 1030.2 601.5 1060.6 574.5 1077.1C536.1 1100.6 490.8 1097.2 450.5 1099.8C447.3 1100 444.134 1100.23 441 1100.5C393 1104.9 346.8 1119.2 310.5 1150.2C271.7 1183.1 246.1 1238.3 258.9 1292.4" stroke="#D2D2D2" stroke-width="2" stroke-miterlimit="10"/>
<path id="&#60;Path&#62;_10" d="M1272.7 378.9C1263.5 420.2 1250.5 460.5 1234.4 499.5C1227.3 516.9 1219.3 534.2 1207.3 548.7C1176.7 585.5 1127.3 596.2 1082.6 598.9C1071.93 599.567 1061.3 599.9 1050.7 599.9C1020 599.9 989.4 597.1 959.2 591.7C919 584.5 879.2 572.5 836 570.1C792.9 567.7 744.5 577.8 715.5 605.2C688.2 615.9 663.7 625.2 642 639.8C627.1 649.7 613.2 662.6 603.2 678.8C598.6 686.2 594.9 694.3 592.3 703.3C581.9 739 592.6 780.6 603.1 819.1C604.166 822.9 605.2 826.7 606.2 830.5C621.9 890.3 624.9 950.6 608.1 1006.6C599.9 1034.4 585.5 1063.6 559.4 1079.9C522.3 1103 478.7 1101.3 440.2 1105.4C437.133 1105.73 434.1 1106.1 431.1 1106.5C385.3 1112.7 342 1128.6 308.4 1159.8C272.7 1193 250 1246.8 263.6 1298.8" stroke="#CDCDCD" stroke-width="2" stroke-miterlimit="10"/>
<path id="&#60;Path&#62;_11" d="M1260.5 368.4C1251.5 408.6 1238.9 447.8 1223 485.5C1215.9 502.3 1208.1 519.1 1196.5 533.2C1166.8 569.1 1119.7 580.8 1076.7 584.9C1066.43 585.9 1056.17 586.567 1045.9 586.9C1016.3 587.9 986.6 586.3 957.4 582.1C918.3 576.5 879.5 566.3 837.6 564.6C795.7 562.9 749 572.5 720 597.7C690.8 607.8 664.1 616 640.1 630C623.6 639.6 608 652.4 596.7 668.9C591.5 676.5 587.1 685 584 694.3C571.7 731.3 582.3 775.2 592.6 815.6C593.6 819.6 594.6 823.6 595.6 827.6C610.9 890.5 612.2 953.8 592.7 1012C583.8 1038.5 569.6 1066.7 544.4 1082.6C508.4 1105.4 466.6 1105.3 429.9 1111C426.967 1111.47 424.067 1111.97 421.2 1112.5C377.6 1120.5 337.1 1137.9 306.4 1169.4C273.7 1202.9 253.9 1255.2 268.3 1305.3" stroke="#C7C7C7" stroke-width="2" stroke-miterlimit="10"/>
<path id="&#60;Path&#62;_12" d="M1248.2 358C1239.6 396.9 1227.2 435 1211.5 471.5C1204.6 487.8 1196.8 504 1185.6 517.7C1157 552.7 1112.1 565.4 1070.8 570.9C1060.93 572.233 1051.03 573.267 1041.1 574C1012.6 576 983.9 575.4 955.5 572.4C917.6 568.4 879.8 560 839.1 559.1C798.5 558.1 753.4 567.2 724.4 590.3C693.4 599.7 664.5 606.8 638.2 620.3C620.2 629.5 602.9 642.2 590.2 659.1C584.3 666.9 579.4 675.6 575.7 685.2C561.4 723.7 572 769.8 582.1 812.1C583.1 816.3 584.066 820.533 585 824.8C599.8 890.8 599.7 957.1 577.2 1017.5C567.8 1042.7 553.6 1069.7 529.3 1085.4C494.6 1107.8 454.6 1109.4 419.6 1116.6C416.866 1117.2 414.1 1117.83 411.3 1118.5C369.9 1128.3 332.2 1147.3 304.4 1179C274.7 1212.8 257.8 1263.7 273 1311.8" stroke="#C2C2C2" stroke-width="2" stroke-miterlimit="10"/>
<path id="&#60;Path&#62;_13" d="M1236 347.5C1227.7 385.3 1215.5 422.2 1200.1 457.5C1193.2 473.2 1185.6 488.9 1174.8 502.2C1147.2 536.3 1104.6 550.1 1064.8 557C1055.4 558.6 1045.93 559.933 1036.4 561C1008.9 564 981.2 564.6 953.6 562.8C916.9 560.4 880.1 553.7 840.7 553.5C801.3 553.3 757.8 561.9 728.9 582.8C696 591.6 665 597.7 636.4 610.6C616.8 619.4 597.8 632 583.7 649.3C577.1 657.2 571.6 666.2 567.5 676.2C551.2 716.1 561.7 764.3 571.6 808.7C572.533 813.1 573.466 817.5 574.4 821.9C588.8 891 587.3 960.4 561.7 1022.9C551.8 1047 537.7 1072.7 514.2 1088.2C480.8 1110.2 442.5 1113.5 409.3 1122.2C406.7 1122.93 404.1 1123.67 401.5 1124.4C362.2 1136.1 327.3 1156.7 302.3 1188.6C275.7 1222.7 261.7 1272.1 277.7 1318.2" stroke="#BCBCBC" stroke-width="2" stroke-miterlimit="10"/>
<path id="&#60;Path&#62;_14" d="M1223.7 337C1215.7 373.7 1203.8 409.4 1188.6 443.5C1181.9 458.7 1174.3 473.8 1163.9 486.8C1137.4 519.9 1097 534.7 1058.9 543C1049.83 545 1040.73 546.7 1031.6 548.1C1005.2 552.1 978.4 553.8 951.8 553.2C916.2 552.3 880.4 547.4 842.2 548C804.1 548.5 765.1 561.9 733.4 575.4C700.5 589.4 665.4 588.5 634.5 600.9C613.3 609.3 592.7 621.9 577.1 639.5C569.9 647.6 563.8 656.8 559.2 667.2C541 708.4 551.5 758.9 561 805.2C562 809.8 562.934 814.4 563.8 819C577.7 891.2 575.2 963.9 546.2 1028.3C535.9 1051.2 521.7 1075.8 499.2 1091C467 1112.6 430.4 1117.5 399 1127.9C396.534 1128.7 394.067 1129.53 391.6 1130.4C354.5 1143.9 322.4 1166 300.3 1198.3C276.7 1232.6 265.6 1280.5 282.4 1324.7" stroke="#B7B7B7" stroke-width="2" stroke-miterlimit="10"/>
<path id="&#60;Path&#62;_15" d="M1211.5 326.6C1203.8 362.1 1192.1 396.6 1177.2 429.5C1170.5 444.1 1163.1 458.6 1153.1 471.3C1127.6 503.5 1089.5 519.3 1053 529C1044.33 531.333 1035.6 533.367 1026.8 535.1C1001.4 540.2 975.7 542.9 949.9 543.5C915.5 544.3 880.7 541.1 843.8 542.4C806.9 543.7 769 556.1 737.8 567.9C702.8 581.2 665.8 579.3 632.6 591.1C609.9 599.2 587.6 611.7 570.6 629.7C562.8 637.9 556.1 647.4 551 658.1C530.8 700.8 541.2 753.5 550.5 801.7C551.433 806.5 552.333 811.3 553.2 816.1C566.7 891.4 563.2 967.5 530.8 1033.7C520.1 1055.5 505.7 1078.8 484.1 1093.7C453.2 1115 418.4 1121.6 388.7 1133.5C386.367 1134.43 384.033 1135.4 381.7 1136.4C346.8 1151.7 317.6 1175.4 298.3 1207.9C277.7 1242.5 269.5 1289 287.1 1331.1" stroke="#B1B1B1" stroke-width="2" stroke-miterlimit="10"/>
<path id="&#60;Path&#62;_16" d="M1199.3 316.1C1191.9 350.5 1180.4 383.8 1165.7 415.5C1159.2 429.6 1151.9 443.5 1142.2 455.8C1117.7 487.1 1081.9 503.9 1047.1 515C1038.83 517.667 1030.47 520.033 1022 522.1C997.7 528.2 972.9 532.1 948 533.9C914.7 536.3 881 534.8 845.3 536.9C809.7 539 773 550.3 742.3 560.5C705.1 572.8 666.3 570.1 630.8 581.4C606.5 589.1 582.5 601.5 564.1 619.8C555.6 628.3 548.3 638 542.7 649.1C520.6 693.2 530.9 748 540 798.3C540.867 803.233 541.734 808.2 542.6 813.2C555.6 891.7 551.5 971.2 515.3 1039.1C504.2 1059.9 489.8 1081.9 469 1096.5C439.4 1117.4 406.3 1125.6 378.4 1139.1C376.2 1140.17 374 1141.27 371.8 1142.4C339.1 1159.6 312.7 1184.7 296.2 1217.5C278.7 1252.4 273.4 1297.4 291.8 1337.6" stroke="#ABABAB" stroke-width="2" stroke-miterlimit="10"/>
<path id="&#60;Path&#62;_17" d="M1187 305.7C1179.9 338.9 1168.8 371 1154.3 401.5C1147.8 415.1 1140.6 428.4 1131.4 440.3C1107.9 470.7 1074.3 488.5 1041.2 501C1033.33 504 1025.37 506.733 1017.3 509.2C994 516.3 970.2 521.3 946.1 524.3C914 528.2 881.3 528.6 846.9 531.4C812.5 534.2 776.9 544.4 746.7 553.1C707.4 564.3 666.7 561 628.9 571.7C603 579 577.4 591.3 557.6 610C548.4 618.6 540.5 628.6 534.5 640C510.3 685.5 520.6 742.6 529.5 794.8C530.366 799.933 531.2 805.1 532 810.3C544.6 891.9 539.9 975.1 499.8 1044.5C488.4 1064.2 473.8 1084.9 453.9 1099.3C425.6 1119.8 394.2 1129.7 368.1 1144.7C366.033 1145.9 363.966 1147.1 361.9 1148.3C331.4 1167.4 307.8 1194.1 294.2 1227.1C279.7 1262.3 277.3 1305.9 296.4 1344.1" stroke="#A6A6A6" stroke-width="2" stroke-miterlimit="10"/>
<path id="&#60;Path&#62;_18" d="M1174.8 295.2C1168 327.2 1157.1 358.2 1142.8 387.5C1136.5 400.5 1129.4 413.3 1120.5 424.9C1098.1 454.2 1066.8 473.1 1035.3 487C1027.77 490.333 1020.17 493.4 1012.5 496.2C990.3 504.4 967.5 510.5 944.3 514.6C913.3 520.2 881.6 522.3 848.4 525.8C815.3 529.4 781 538.5 751.2 545.6C709.7 555.6 667.1 551.8 627 561.9C599.6 568.9 572.2 581.2 551 600.2C541.3 609 532.8 619.2 526.2 631C500.1 677.9 510.3 737.2 518.9 791.3C519.767 796.7 520.6 802.1 521.4 807.5C533.5 892.1 528.6 979.2 484.3 1049.9C472.6 1068.7 457.9 1087.9 438.9 1102C411.7 1122.2 382.2 1133.7 357.8 1150.3C355.867 1151.63 353.967 1152.97 352.1 1154.3C323.6 1175.2 302.9 1203.5 292.2 1236.8C280.7 1272.2 281.2 1314.3 301.1 1350.5" stroke="#A0A0A0" stroke-width="2" stroke-miterlimit="10"/>
<path id="&#60;Path&#62;_19" d="M1162.5 284.8C1156.1 315.6 1145.4 345.4 1131.3 373.5C1125.1 386 1118.1 398.2 1109.7 409.4C1088.3 437.8 1059.2 457.8 1029.4 473C1022.27 476.666 1015.03 480.1 1007.7 483.3C986.6 492.4 964.7 499.6 942.4 505C912.6 512.1 882 516 850 520.3C818.1 524.6 785 532.5 755.7 538.2C712 546.6 667.6 542.6 625.2 552.2C596.2 558.8 567.1 571 544.5 590.4C534.1 599.3 525 609.8 517.9 622C489.9 670.2 500 731.7 508.4 787.9C509.267 793.433 510.067 799 510.8 804.6C522.4 892.3 517.5 983.6 468.9 1055.3C456.8 1073.1 441.9 1091 423.8 1104.8C397.9 1124.6 370.1 1137.8 347.5 1155.9C345.7 1157.37 343.934 1158.83 342.2 1160.3C315.9 1183 298 1212.8 290.1 1246.4C281.7 1282.1 285.1 1322.7 305.8 1357" stroke="#9B9B9B" stroke-width="2" stroke-miterlimit="10"/>
<path id="&#60;Path&#62;_20" d="M1150.3 274.3C1144.1 304 1133.7 332.6 1119.9 359.5C1113.7 371.4 1106.9 383.1 1098.9 393.9C1078.5 421.4 1051.7 442.4 1023.5 459.1C1016.77 463.033 1009.93 466.766 1003 470.3C982.9 480.5 962 488.8 940.5 495.4C911.9 504.1 882.3 509.7 851.5 514.8C820.9 519.8 789.2 526.4 760.1 530.7C714.4 537.5 668 533.4 623.3 542.5C592.7 548.7 562 560.8 538 580.6C526.9 589.7 517.3 600.4 509.7 612.9C479.7 662.6 489.7 726.3 497.9 784.4C498.7 790.133 499.466 795.9 500.2 801.7C511.4 892.5 506.6 988.2 453.4 1060.7C441 1077.6 426 1094 408.7 1107.6C384.1 1127 358.1 1141.8 337.2 1161.5C335.533 1163.1 333.9 1164.7 332.3 1166.3C308.2 1190.8 293.1 1222.2 288.1 1256C282.7 1292 289 1331.2 310.5 1363.4" stroke="#959595" stroke-width="2" stroke-miterlimit="10"/>
<path id="&#60;Path&#62;_21" d="M1138 263.8C1132.2 292.4 1122 319.8 1108.4 345.5C1102.4 356.9 1095.7 368 1088 378.4C1068.6 405 1044.1 427 1017.6 445.1C1011.27 449.366 1004.8 453.466 998.2 457.4C979.2 468.6 959.2 478 938.7 485.7C911.2 496.1 882.6 503.4 853.1 509.2C823.7 515 793.5 520.3 764.6 523.3C716.8 528.2 668.4 524.2 621.4 532.8C589.3 538.6 556.9 550.6 531.5 570.8C519.7 580 509.5 591 501.4 603.9C469.5 655 479.4 720.9 487.4 780.9C488.133 786.833 488.867 792.8 489.6 798.8C500.3 892.8 495.9 993.1 437.9 1066.1C425.2 1082.2 410 1097 393.7 1110.4C370.3 1129.4 346 1145.9 326.9 1167.1C325.367 1168.83 323.867 1170.57 322.4 1172.3C300.5 1198.6 288.3 1231.5 286 1265.6C283.7 1301.9 292.9 1339.6 315.2 1369.9" stroke="#909090" stroke-width="2" stroke-miterlimit="10"/>
<path id="&#60;Path&#62;_22" d="M1125.8 253.4C1110.1 331.3 1059.1 399.7 993.4 444.4C927.7 489.1 848.4 511.2 769.1 515.8C719.2 518.7 668.9 515.1 619.6 523C570.3 531 520.3 552.9 493.2 594.9C459.2 647.3 469.1 715.5 476.8 777.5C489.5 879.4 489.4 993.6 422.4 1071.5C389.1 1110.4 341.9 1136.3 312.5 1178.2C271.8 1236.3 275 1321.4 319.9 1376.4" stroke="#8A8A8A" stroke-width="2" stroke-miterlimit="10"/>
</g>
<g id="&#60;Group&#62;_3" style="mix-blend-mode:multiply">
<path id="&#60;Path&#62;_23" d="M709.4 1589.1C740.5 1546.1 774.2 1504.9 810.2 1465.9C826.2 1448.6 843.1 1431.3 864.3 1421C918.6 1394.6 983.5 1420.2 1034.6 1452.3C1081.7 1481.8 1125.2 1517 1164 1556.8C1202.4 1596.2 1236.9 1640.7 1283.5 1670.1C1330.1 1699.5 1394 1710.4 1439 1678.6C1465.8 1659.8 1481.9 1628.4 1488 1596.2C1494.1 1564 1491.1 1530.8 1485.9 1498.5C1479.9 1461.4 1471.1 1422.8 1482.8 1387.2C1494.9 1350.3 1530 1322 1568.6 1318C1623.5 1312.2 1671.8 1350.5 1718.1 1380.6C1777 1418.9 1845.3 1447.4 1915.4 1443.3C1985.5 1439.3 2056.3 1396.5 2077.3 1329.5" stroke="white" stroke-width="2" stroke-miterlimit="10"/>
<path id="&#60;Path&#62;_24" d="M716.6 1603.5C747.2 1561.2 780.4 1520.8 816 1482.7C831.9 1465.8 848.6 1449 869.5 1438.8C911.4 1418.4 959.6 1428.8 1002.9 1448.9C1014.6 1454.4 1026.1 1460.6 1036.9 1467C1083.4 1494.9 1126.6 1528.4 1165.2 1566.5C1203.5 1604.3 1237.8 1647.4 1283.9 1675.7C1309.7 1691.5 1340.4 1702.4 1370.5 1704.4C1396.8 1706 1422.8 1700.8 1444.6 1685.9C1448.53 1683.23 1452.23 1680.33 1455.7 1677.2C1477.1 1657.8 1490 1629.9 1495.7 1601.3C1497.5 1592.1 1498.7 1582.8 1499.3 1573.5C1500.9 1549.3 1499 1524.7 1496.2 1500.7C1491.9 1462.7 1486 1423.7 1499.2 1388.2C1512.3 1352.8 1545.8 1325.4 1583.5 1321.2C1637.2 1315.3 1684.5 1351.4 1729.8 1379.4C1733.4 1381.6 1737 1383.77 1740.6 1385.9C1795.6 1418.1 1857.8 1440.4 1921 1435.3C1988.4 1429.8 2055.9 1387.2 2075.4 1321.7" stroke="#F9F9F9" stroke-width="2" stroke-miterlimit="10"/>
<path id="&#60;Path&#62;_25" d="M723.9 1617.9C753.9 1576.3 786.7 1536.7 821.9 1499.6C837.6 1483 854.1 1466.7 874.6 1456.7C915.8 1436.6 963 1446 1005.6 1464.7C1017.2 1469.9 1028.5 1475.7 1039.2 1481.8C1085.1 1508 1127.9 1539.9 1166.4 1576.3C1204.5 1612.4 1238.7 1654 1284.3 1681.2C1311.1 1697.3 1342.6 1708.6 1373.6 1711C1400.6 1713.1 1427.7 1708.2 1450.3 1693.2C1454.3 1690.53 1458.1 1687.57 1461.7 1684.3C1484 1664.6 1497.3 1635.8 1503.4 1606.3C1505.4 1596.8 1506.7 1587.3 1507.5 1577.8C1509.5 1552.8 1508.4 1527.6 1506.6 1503C1503.8 1463.9 1500.9 1424.7 1515.6 1389.1C1529.5 1355.4 1561.7 1328.7 1598.5 1324.5C1650.9 1318.5 1697.2 1352.3 1741.5 1378.2C1744.97 1380.27 1748.47 1382.27 1752 1384.2C1805.7 1413.8 1865.9 1433.6 1926.6 1427.2C1991.3 1420.3 2055.6 1377.9 2073.6 1314" stroke="#F4F4F4" stroke-width="2" stroke-miterlimit="10"/>
<path id="&#60;Path&#62;_26" d="M731.1 1632.3C760.5 1591.3 792.9 1552.6 827.8 1516.4C843.3 1500.3 859.6 1484.3 879.8 1474.5C920.2 1454.8 966.5 1463.1 1008.3 1480.6C1019.8 1485.4 1030.9 1490.8 1041.4 1496.5C1086.8 1521.1 1129.3 1551.3 1167.6 1586.1C1205.6 1620.5 1239.7 1660.5 1284.7 1686.8C1312.6 1703 1344.8 1714.8 1376.7 1717.7C1404.5 1720.2 1432.5 1715.6 1455.9 1700.5C1460.1 1697.77 1464.07 1694.77 1467.8 1691.5C1491 1671.3 1504.6 1641.7 1511.2 1611.3C1513.3 1601.6 1514.7 1591.8 1515.6 1582C1518.1 1556.4 1517.7 1530.5 1516.9 1505.3C1515.8 1465.2 1515.7 1425.7 1531.9 1390.1C1546.6 1358 1577.6 1332.1 1613.5 1327.8C1664.5 1321.6 1709.9 1353.2 1753.1 1377C1756.57 1378.87 1760.03 1380.7 1763.5 1382.5C1815.8 1409.6 1874 1426.9 1932.2 1419.1C1994.1 1410.8 2055.2 1368.6 2071.8 1306.2" stroke="#EEEEEE" stroke-width="2" stroke-miterlimit="10"/>
<path id="&#60;Path&#62;_27" d="M738.4 1646.6C767.2 1606.4 799.2 1568.5 833.6 1533.2C849 1517.5 865.2 1502 884.9 1492.4C924.6 1473 969.9 1480.3 1011.1 1496.5C1022.3 1500.8 1033.3 1505.9 1043.7 1511.2C1088.6 1534.3 1130.6 1562.8 1168.8 1595.9C1206.6 1628.6 1240.7 1667.1 1285.1 1692.3C1314 1708.7 1347 1721 1379.9 1724.4C1408.3 1727.3 1437.3 1723 1461.5 1707.8C1465.83 1705.07 1469.97 1702.03 1473.9 1698.7C1498 1678.1 1511.9 1647.6 1518.9 1616.4C1521.1 1606.4 1522.7 1596.3 1523.8 1586.2C1526.7 1560 1527.1 1533.3 1527.3 1507.6C1527.7 1466.5 1530.4 1426.7 1548.3 1391.1C1563.7 1360.5 1593.5 1335.4 1628.5 1331C1678.2 1324.7 1722.6 1354.1 1764.8 1375.8C1768.13 1377.53 1771.5 1379.2 1774.9 1380.8C1826 1405.4 1882.1 1420.1 1937.8 1411C1997 1401.3 2054.9 1359.3 2069.9 1298.4" stroke="#E9E9E9" stroke-width="2" stroke-miterlimit="10"/>
<path id="&#60;Path&#62;_28" d="M745.7 1661C773.9 1621.5 805.4 1584.4 839.5 1550C854.7 1534.7 870.7 1519.7 890.1 1510.2C929 1491.1 973.3 1497.4 1013.8 1512.3C1024.9 1516.3 1035.7 1521 1046 1526C1090.3 1547.4 1132 1574.2 1170 1605.6C1207.6 1636.7 1241.7 1673.6 1285.6 1697.9C1315.4 1714.4 1349.1 1727.1 1383 1731C1412.2 1734.4 1442.1 1730.4 1467.1 1715C1471.63 1712.27 1475.93 1709.2 1480 1705.8C1504.9 1684.9 1519.2 1653.6 1526.6 1621.4C1529 1611.1 1530.7 1600.8 1532 1590.5C1535.4 1563.5 1536.4 1536.2 1537.6 1509.8C1539.6 1467.7 1545.1 1427.8 1564.7 1392.1C1580.6 1363.1 1609.4 1338.8 1643.4 1334.3C1691.9 1327.8 1735.3 1355.1 1776.5 1374.6C1779.77 1376.13 1783.03 1377.63 1786.3 1379.1C1836.1 1401.2 1890.3 1413.4 1943.3 1402.9C1999.9 1391.7 2054.6 1350 2068.1 1290.6" stroke="#E3E3E3" stroke-width="2" stroke-miterlimit="10"/>
<path id="&#60;Path&#62;_29" d="M752.9 1675.4C780.6 1636.6 811.7 1600.3 845.4 1566.8C860.4 1551.9 876.2 1537.4 895.2 1528C933.3 1509.3 976.7 1514.6 1016.6 1528.2C1027.5 1531.8 1038.1 1536.1 1048.3 1540.7C1092 1560.5 1133.4 1585.7 1171.2 1615.4C1208.7 1644.8 1242.7 1680.1 1286 1703.4C1316.8 1720.1 1351.3 1733.3 1386.1 1737.7C1416.1 1741.4 1446.9 1737.7 1472.8 1722.3C1477.47 1719.57 1481.87 1716.47 1486 1713C1511.9 1691.7 1526.5 1659.5 1534.3 1626.4C1536.8 1615.9 1538.7 1605.3 1540.2 1594.7C1544 1567.1 1545.7 1539 1548 1512.1C1551.5 1469 1559.7 1428.9 1581 1393.1C1597.5 1365.6 1625.3 1342.2 1658.4 1337.5C1705.5 1331 1748 1356 1788.2 1373.4C1791.33 1374.8 1794.5 1376.13 1797.7 1377.4C1846.2 1396.9 1898.4 1406.6 1948.9 1394.8C2002.8 1382.2 2054.2 1340.7 2066.3 1282.9" stroke="#DEDEDE" stroke-width="2" stroke-miterlimit="10"/>
<path id="&#60;Path&#62;_30" d="M760.2 1689.8C787.3 1651.6 817.9 1616.1 851.2 1583.6C866 1569.1 881.7 1555 900.3 1545.9C937.7 1527.5 980.2 1531.7 1019.3 1544C1030 1547.3 1040.5 1551.2 1050.6 1555.4C1093.8 1573.6 1134.7 1597.1 1172.4 1625.2C1209.7 1652.9 1243.7 1686.5 1286.4 1709C1318.3 1725.7 1353.5 1739.5 1389.2 1744.4C1419.9 1748.5 1451.8 1745.1 1478.4 1729.6C1483.2 1726.8 1487.77 1723.63 1492.1 1720.1C1518.9 1698.5 1533.7 1665.4 1542.1 1631.5C1544.7 1620.7 1546.7 1609.7 1548.3 1598.9C1552.6 1570.7 1555.1 1541.9 1558.3 1514.4C1563.5 1470.2 1574.2 1429.9 1597.4 1394.1C1614.2 1368.1 1641.2 1345.5 1673.4 1340.8C1719.2 1334.1 1760.7 1356.9 1799.8 1372.2C1802.93 1373.4 1806.03 1374.57 1809.1 1375.7C1856.3 1392.7 1906.5 1399.9 1954.5 1386.7C2005.7 1372.7 2053.9 1331.4 2064.4 1275.1" stroke="#D8D8D8" stroke-width="2" stroke-miterlimit="10"/>
<path id="&#60;Path&#62;_31" d="M767.4 1704.1C794 1666.7 824.2 1632 857.1 1600.4C871.7 1586.4 887.2 1572.7 905.5 1563.7C942.1 1545.7 983.6 1549 1022 1559.9C1032.6 1562.8 1042.9 1566.4 1052.9 1570.2C1095.5 1586.7 1136.1 1608.6 1173.6 1634.9C1210.8 1661.1 1244.7 1693 1286.8 1714.5C1319.7 1731.4 1355.7 1745.7 1392.3 1751C1423.8 1755.6 1456.6 1752.5 1484 1736.9C1489 1734.03 1493.73 1730.83 1498.2 1727.3C1525.8 1705.3 1541 1671.4 1549.8 1636.5C1552.5 1625.4 1554.7 1614.2 1556.5 1603.2C1561.2 1574.2 1564.5 1544.8 1568.7 1516.6C1575.4 1471.5 1588.6 1431 1613.7 1395.1C1630.9 1370.5 1657.1 1348.9 1688.4 1344.1C1732.9 1337.2 1773.4 1357.8 1811.5 1371C1814.5 1372.07 1817.53 1373.07 1820.6 1374C1866.5 1388.5 1914.6 1393.1 1960.1 1378.6C2008.6 1363.2 2053.6 1322.1 2062.6 1267.3" stroke="#D2D2D2" stroke-width="2" stroke-miterlimit="10"/>
<path id="&#60;Path&#62;_32" d="M774.7 1718.5C800.7 1681.8 830.4 1647.9 863 1617.2C877.4 1603.6 892.7 1590.4 910.6 1581.5C946.5 1563.8 987 1566.1 1024.8 1575.7C1035.1 1578.3 1045.3 1581.5 1055.2 1584.9C1097.2 1599.8 1137.5 1620 1174.8 1644.7C1211.8 1669.2 1245.8 1699.4 1287.2 1720.1C1321.2 1737 1357.9 1751.9 1395.4 1757.7C1427.6 1762.7 1461.4 1759.9 1489.7 1744.1C1494.77 1741.3 1499.63 1738.07 1504.3 1734.4C1532.8 1712 1548.3 1677.3 1557.5 1641.5C1560.4 1630.2 1562.7 1618.7 1564.7 1607.4C1569.8 1577.8 1573.8 1547.6 1579 1518.9C1587.4 1472.7 1603 1432 1630.1 1396.1C1647.5 1373 1673 1352.2 1703.3 1347.3C1746.5 1340.3 1786.1 1358.7 1823.2 1369.8C1826.13 1370.67 1829.07 1371.5 1832 1372.3C1876.6 1384.3 1922.7 1386.4 1965.7 1370.5C2011.5 1353.7 2053.2 1312.8 2060.8 1259.6" stroke="#CDCDCD" stroke-width="2" stroke-miterlimit="10"/>
<path id="&#60;Path&#62;_33" d="M781.9 1732.9C807.4 1696.9 836.7 1663.8 868.9 1634C883.1 1620.8 898.2 1608.1 915.8 1599.4C950.9 1582 990.4 1583.3 1027.5 1591.6C1037.7 1593.8 1047.7 1596.6 1057.5 1599.6C1098.9 1612.9 1138.8 1631.5 1176 1654.5C1212.8 1677.3 1246.8 1705.8 1287.6 1725.6C1322.6 1742.7 1360.1 1758.1 1398.6 1764.4C1431.5 1769.8 1466.2 1767.3 1495.3 1751.4C1500.57 1748.53 1505.57 1745.27 1510.3 1741.6C1539.8 1718.8 1555.6 1683.2 1565.2 1646.6C1568.3 1634.9 1570.7 1623.2 1572.8 1611.6C1578.5 1581.4 1583.2 1550.5 1589.4 1521.2C1599.3 1473.9 1617.3 1433 1646.5 1397.1C1664.1 1375.4 1688.9 1355.6 1718.3 1350.6C1760.2 1343.4 1798.8 1359.7 1834.8 1368.6C1837.67 1369.33 1840.53 1370 1843.4 1370.6C1886.7 1380 1930.9 1379.6 1971.3 1362.4C2014.4 1344.2 2052.9 1303.6 2058.9 1251.8" stroke="#C7C7C7" stroke-width="2" stroke-miterlimit="10"/>
<path id="&#60;Path&#62;_34" d="M789.2 1747.3C814.1 1712 842.9 1679.7 874.7 1650.8C888.8 1638 903.7 1625.7 920.9 1617.2C955.3 1600.2 993.9 1600.5 1030.2 1607.4C1040.3 1609.3 1050.2 1611.7 1059.7 1614.4C1100.7 1626 1140.2 1642.9 1177.2 1664.3C1213.9 1685.4 1247.9 1712.1 1288 1731.2C1324.1 1748.3 1362.3 1764.2 1401.7 1771.1C1435.3 1776.8 1471 1774.7 1500.9 1758.7C1506.3 1755.83 1511.47 1752.53 1516.4 1748.8C1546.7 1725.6 1562.9 1689.1 1572.9 1651.6C1576.1 1639.7 1578.7 1627.7 1581 1615.9C1587.1 1584.9 1592.5 1553.4 1599.7 1523.5C1611.3 1475.2 1631.5 1434 1662.8 1398C1680.6 1377.7 1704.8 1359 1733.3 1353.9C1773.9 1346.6 1811.5 1360.6 1846.5 1367.4C1849.3 1367.93 1852.07 1368.43 1854.8 1368.9C1896.9 1375.8 1939 1372.9 1976.9 1354.4C2017.3 1334.7 2052.6 1294.3 2057.1 1244" stroke="#C2C2C2" stroke-width="2" stroke-miterlimit="10"/>
<path id="&#60;Path&#62;_35" d="M796.5 1761.6C820.7 1727 849.2 1695.6 880.6 1667.6C894.5 1655.2 909.2 1643.4 926.1 1635C959.7 1618.4 997.3 1617.6 1033 1623.3C1042.8 1624.8 1052.6 1626.8 1062 1629.1C1102.4 1639.1 1141.6 1654.4 1178.4 1674C1214.9 1693.5 1249 1718.5 1288.4 1736.7C1325.6 1753.9 1364.5 1770.4 1404.8 1777.7C1439.2 1783.9 1475.9 1782 1506.5 1766C1512.1 1763.07 1517.43 1759.7 1522.5 1755.9C1553.7 1732.4 1570.2 1695.1 1580.7 1656.6C1584 1644.5 1586.7 1632.2 1589.2 1620.1C1595.7 1588.5 1602 1556.2 1610.1 1525.7C1623.3 1476.5 1645.6 1434.8 1679.2 1399C1697 1380 1720.7 1362.3 1748.2 1357.1C1787.6 1349.7 1824.2 1361.5 1858.2 1366.2C1860.87 1366.6 1863.57 1366.93 1866.3 1367.2C1907 1371.6 1947.1 1366.1 1982.5 1346.3C2020.2 1325.1 2052.2 1285 2055.3 1236.2" stroke="#BCBCBC" stroke-width="2" stroke-miterlimit="10"/>
<path id="&#60;Path&#62;_36" d="M803.7 1776C827.4 1742.1 855.4 1711.5 886.5 1684.5C900.2 1672.5 914.7 1661.1 931.2 1652.9C964.1 1636.5 1000.7 1634.8 1035.7 1639.1C1045.4 1640.3 1055 1641.9 1064.3 1643.9C1104.1 1652.2 1142.9 1665.8 1179.6 1683.8C1216 1701.6 1250.1 1724.8 1288.9 1742.3C1327.1 1759.5 1366.7 1776.6 1407.9 1784.4C1443 1791 1480.7 1789.4 1512.2 1773.3C1517.87 1770.37 1523.33 1766.97 1528.6 1763.1C1560.7 1739.2 1577.5 1701 1588.4 1661.7C1591.8 1649.2 1594.7 1636.7 1597.4 1624.3C1604.3 1592 1611.3 1559.1 1620.4 1528C1635.3 1477.7 1659.7 1435.6 1695.6 1400C1713.5 1382.3 1736.5 1365.7 1763.2 1360.4C1801.2 1352.8 1836.9 1362.4 1869.9 1365C1872.5 1365.2 1875.1 1365.37 1877.7 1365.5C1917.1 1367.4 1955.2 1359.4 1988.1 1338.2C2023.1 1315.6 2051.9 1275.7 2053.4 1228.5" stroke="#B7B7B7" stroke-width="2" stroke-miterlimit="10"/>
<path id="&#60;Path&#62;_37" d="M811 1790.4C834.1 1757.2 861.7 1727.3 892.3 1701.3C905.9 1689.7 920.2 1678.7 936.3 1670.7C968.5 1654.7 1004.1 1651.9 1038.5 1655C1048 1655.8 1057.4 1657 1066.6 1658.6C1105.8 1665.3 1144.3 1677.3 1180.8 1693.6C1217 1709.7 1251.2 1731.1 1289.3 1747.8C1328.6 1765 1368.9 1782.8 1411 1791.1C1446.9 1798.1 1485.5 1796.8 1517.8 1780.5C1523.67 1777.57 1529.27 1774.13 1534.6 1770.2C1567.6 1746 1584.7 1706.9 1596.1 1666.7C1599.7 1654 1602.7 1641.1 1605.5 1628.5C1612.9 1595.6 1620.7 1562 1630.8 1530.3C1647.3 1479 1673.7 1436.2 1711.9 1401C1729.8 1384.5 1752.4 1369 1778.2 1363.6C1814.9 1355.9 1849.5 1363.3 1881.5 1363.8C1884.03 1363.87 1886.57 1363.87 1889.1 1363.8C1927.2 1363.1 1963.3 1352.6 1993.7 1330.1C2026 1306.1 2051.5 1266.4 2051.6 1220.7" stroke="#B1B1B1" stroke-width="2" stroke-miterlimit="10"/>
<path id="&#60;Path&#62;_38" d="M818.2 1804.8C840.8 1772.3 868 1743.2 898.2 1718.1C911.6 1706.9 925.8 1696.4 941.5 1688.6C972.9 1672.9 1007.6 1669.1 1041.2 1670.8C1050.5 1671.3 1059.8 1672.2 1068.9 1673.3C1107.6 1678.4 1145.6 1688.7 1182.1 1703.3C1218 1717.8 1252.3 1737.4 1289.7 1753.4C1330.1 1770.6 1371.1 1789 1414.1 1797.7C1450.7 1805.1 1490.3 1804.2 1523.4 1787.8C1529.47 1784.87 1535.23 1781.4 1540.7 1777.4C1574.6 1752.7 1592 1712.9 1603.8 1671.7C1607.5 1658.7 1610.7 1645.6 1613.7 1632.8C1621.5 1599.2 1630 1564.8 1641.1 1532.5C1659.2 1480.2 1687.5 1436.8 1728.3 1402C1746.2 1386.7 1768.3 1372.4 1793.2 1366.9C1828.6 1359.1 1862.2 1364.2 1893.2 1362.6C1895.67 1362.47 1898.1 1362.3 1900.5 1362.1C1937.4 1358.9 1971.4 1345.9 1999.3 1322C2028.9 1296.6 2051.2 1257.1 2049.8 1212.9" stroke="#ABABAB" stroke-width="2" stroke-miterlimit="10"/>
<path id="&#60;Path&#62;_39" d="M825.5 1819.1C847.5 1787.3 874.2 1759.1 904.1 1734.9C917.3 1724.1 931.3 1714.1 946.6 1706.4C977.3 1691.1 1011 1686.2 1043.9 1686.7C1053.1 1686.8 1062.2 1687.3 1071.2 1688.1C1109.3 1691.5 1147 1700.2 1183.3 1713.1C1219.1 1725.9 1253.4 1743.7 1290.1 1758.9C1331.6 1776.1 1373.3 1795.2 1417.2 1804.4C1454.6 1812.2 1495.1 1811.6 1529 1795.1C1535.2 1792.1 1541.2 1788.6 1546.8 1784.5C1581.6 1759.5 1599.3 1718.8 1611.5 1676.8C1615.4 1663.5 1618.7 1650.1 1621.9 1637C1630.2 1602.7 1639.4 1567.7 1651.5 1534.8C1671.2 1481.5 1701.4 1437.2 1744.7 1403C1762.6 1388.8 1784.2 1375.7 1808.1 1370.2C1842.2 1362.2 1874.9 1365.2 1904.9 1361.4C1907.23 1361.13 1909.57 1360.8 1911.9 1360.4C1947.5 1354.7 1979.6 1339.1 2004.9 1313.9C2031.8 1287.1 2050.9 1247.8 2047.9 1205.2" stroke="#A6A6A6" stroke-width="2" stroke-miterlimit="10"/>
<path id="&#60;Path&#62;_40" d="M832.7 1833.5C854.2 1802.4 880.5 1775 909.9 1751.7C923 1741.4 936.8 1731.8 951.8 1724.2C981.7 1709.2 1014.4 1703.4 1046.7 1702.5C1055.7 1702.3 1064.6 1702.4 1073.5 1702.8C1111 1704.6 1148.4 1711.6 1184.5 1722.9C1220.1 1734 1254.5 1750 1290.5 1764.5C1333.1 1781.6 1375.5 1801.3 1420.4 1811.1C1458.5 1819.3 1500 1819 1534.7 1802.4C1541 1799.4 1547.1 1795.8 1552.9 1791.7C1588.5 1766.3 1606.6 1724.7 1619.3 1681.8C1623.3 1668.3 1626.7 1654.6 1630.1 1641.2C1638.8 1606.3 1648.7 1570.6 1661.8 1537.1C1683.1 1482.7 1715.1 1437.4 1761 1404C1778.9 1390.9 1800.1 1379.1 1823.1 1373.4C1855.9 1365.3 1887.6 1366.1 1916.5 1360.2C1918.83 1359.73 1921.13 1359.23 1923.4 1358.7C1957.6 1350.5 1987.7 1332.4 2010.5 1305.8C2034.7 1277.6 2050.5 1238.5 2046.1 1197.4" stroke="#A0A0A0" stroke-width="2" stroke-miterlimit="10"/>
<path id="&#60;Path&#62;_41" d="M840 1847.9C860.9 1817.5 886.7 1790.9 915.8 1768.5C928.7 1758.6 942.3 1749.4 956.9 1742.1C986.1 1727.4 1017.9 1720.5 1049.4 1718.4C1058.2 1717.8 1067 1717.5 1075.8 1717.5C1112.8 1717.7 1149.7 1723.1 1185.7 1732.7C1221.2 1742.1 1255.6 1756.3 1290.9 1770C1334.6 1787 1377.7 1807.5 1423.5 1817.7C1462.3 1826.4 1504.8 1826.3 1540.3 1809.6C1546.8 1806.6 1553 1803 1558.9 1798.8C1595.5 1773.1 1613.9 1730.6 1627 1686.8C1631.1 1673 1634.7 1659.1 1638.2 1645.5C1647.4 1609.9 1658.1 1573.4 1672.1 1539.4C1695.1 1484 1728.8 1437.5 1777.4 1405C1795.3 1393 1816 1382.5 1838.1 1376.7C1869.6 1368.4 1900.3 1367 1928.2 1359C1930.4 1358.4 1932.6 1357.73 1934.8 1357C1967.8 1346.2 1995.8 1325.6 2016 1297.7C2037.6 1268.1 2050.2 1229.2 2044.3 1189.6" stroke="#9B9B9B" stroke-width="2" stroke-miterlimit="10"/>
<path id="&#60;Path&#62;_42" d="M847.2 1862.3C867.6 1832.6 893 1806.8 921.7 1785.3C934.4 1775.8 947.8 1767.1 962 1759.9C990.5 1745.6 1021.3 1737.6 1052.2 1734.2C1060.8 1733.2 1069.4 1732.6 1078.1 1732.3C1114.5 1730.8 1151.1 1734.5 1186.9 1742.4C1222.2 1750.2 1256.7 1762.5 1291.3 1775.6C1336.2 1792.5 1379.9 1813.7 1426.6 1824.4C1466.2 1833.5 1509.6 1833.7 1545.9 1816.9C1552.6 1813.9 1558.9 1810.2 1565 1806C1602.5 1779.9 1621.2 1736.6 1634.7 1691.9C1639 1677.8 1642.7 1663.6 1646.4 1649.7C1656 1613.4 1667.5 1576.3 1682.5 1541.6C1707 1485.2 1742.4 1437.3 1793.8 1405.9C1811.7 1395 1831.9 1385.8 1853 1379.9C1883.2 1371.6 1913 1367.9 1939.9 1357.8C1942.03 1357 1944.13 1356.17 1946.2 1355.3C1977.9 1342 2003.9 1318.9 2021.6 1289.6C2040.5 1258.5 2049.9 1219.9 2042.4 1181.9" stroke="#959595" stroke-width="2" stroke-miterlimit="10"/>
<path id="&#60;Path&#62;_43" d="M854.5 1876.6C874.3 1847.6 899.2 1822.7 927.5 1802.1C940.1 1793 953.3 1784.8 967.2 1777.7C994.9 1763.7 1024.7 1754.8 1054.9 1750.1C1063.37 1748.77 1071.83 1747.73 1080.3 1747C1116.2 1743.9 1152.5 1746 1188.1 1752.2C1223.2 1758.3 1257.8 1768.7 1291.7 1781.1C1337.7 1797.9 1382.1 1819.9 1429.7 1831.1C1470 1840.5 1514.4 1841.1 1551.6 1824.2C1558.3 1821.1 1564.9 1817.5 1571.1 1813.2C1609.4 1786.7 1628.5 1742.5 1642.4 1696.9C1646.8 1682.5 1650.7 1668.1 1654.6 1653.9C1664.6 1617 1676.8 1579.2 1692.8 1543.9C1719 1486.5 1756 1437 1810.1 1406.9C1828.1 1397 1847.8 1389.2 1868 1383.2C1896.9 1374.7 1925.7 1368.8 1951.6 1356.6C1953.6 1355.67 1955.6 1354.67 1957.6 1353.6C1988 1337.8 2012 1312.1 2027.2 1281.5C2043.4 1249 2049.5 1210.6 2040.6 1174.1" stroke="#909090" stroke-width="2" stroke-miterlimit="10"/>
<path id="&#60;Path&#62;_44" d="M861.8 1891C906.3 1825.3 979.8 1781.8 1057.6 1765.9C1135.5 1750.1 1217.2 1760.3 1292.2 1786.7C1339.3 1803.2 1384.3 1826.1 1432.8 1837.7C1481.4 1849.4 1536 1848.5 1577.2 1820.3C1628.7 1785 1645.9 1718.3 1662.7 1658.2C1690.4 1559.2 1734.6 1454 1826.5 1407.9C1872.2 1385 1925.8 1379.2 1969.1 1351.9C2029.1 1314 2059 1234.3 2038.8 1166.3" stroke="#8A8A8A" stroke-width="2" stroke-miterlimit="10"/>
</g>
<g id="&#60;Group&#62;_4" style="mix-blend-mode:multiply">
<path id="&#60;Path&#62;_45" d="M1 455.3C39.4 418.6 79.9 384.1 122.4 352.3C141.3 338.1 161 324.2 183.8 317.8C241.9 301.7 301.1 338.6 345.6 379.3C386.6 416.9 423 459.3 454 505.4C484.7 551.1 510.6 601.2 551.1 638.5C591.6 675.8 652.6 698 702.6 674.9C732.3 661.2 753.8 633.2 765.6 602.7C777.4 572.1 780.5 538.9 781.2 506.1C782 468.6 780.3 429.1 798.2 396.1C816.8 362 856.3 340.5 895 343.5C950.1 347.8 990.7 394.1 1030.9 432.1C1081.8 480.3 1143.9 520.7 1213.6 529.4C1283.2 538.1 1360.6 508.7 1393.3 446.6" stroke="#8A8A8A" stroke-width="2" stroke-miterlimit="10"/>
<path id="&#60;Path&#62;_46" d="M5.6001 470.7C43.2001 434.6 83.2001 400.9 125.1 369.9C143.8 356.1 163.3 342.6 185.6 336.3C230.5 323.8 276.1 342.7 315 370.3C325.6 377.8 335.7 385.9 345.2 394.2C385.9 430.1 422.3 470.8 453.5 515.3C484.3 559.3 510.3 607.9 550.5 644C573.1 664.3 601.2 680.5 630.6 687.8C656.1 694.2 682.7 693.8 706.8 683.1C711.067 681.167 715.2 678.967 719.2 676.5C743.7 661.2 761.5 636.1 772.3 609C775.7 600.3 778.5 591.4 780.8 582.4C786.8 558.8 789.3 534.3 790.9 510.2C793.5 472 794.8 432.6 814.1 400C833.4 367.6 871.4 346.7 909.2 349.4C963 353.3 1003.1 397.3 1042.6 433C1045.67 435.8 1048.8 438.6 1052 441.4C1100.3 482.9 1157.4 516.1 1220.5 522.4C1287.8 529.2 1361.9 499.5 1392.9 438.6" stroke="#909090" stroke-width="2" stroke-miterlimit="10"/>
<path id="&#60;Path&#62;_47" d="M10.1001 486.2C47.1001 450.6 86.5001 417.6 127.9 387.5C146.3 374 165.5 360.9 187.5 354.8C231.6 342.5 276.4 360.2 314.8 386.3C325.3 393.5 335.4 401.2 344.8 409.1C385.2 443.3 421.6 482.3 452.9 525.1C483.9 567.5 510 614.5 549.9 649.5C573.4 670.2 602.3 687 632.4 695C658.6 701.9 686.1 701.9 711 691.2C715.467 689.333 719.767 687.133 723.9 684.6C749.4 669.2 767.6 643.3 779 615.4C782.6 606.4 785.6 597.3 788.1 588C794.6 563.9 798 538.8 800.7 514.3C805 475.4 809.2 436.3 830.1 404C849.9 373.3 886.4 352.9 923.3 355.3C975.9 358.8 1015.4 400.5 1054.2 433.9C1057.27 436.567 1060.4 439.167 1063.6 441.7C1111 480.6 1166.6 510.9 1227.5 515.5C1292.3 520.4 1363.3 490.3 1392.5 430.6" stroke="#959595" stroke-width="2" stroke-miterlimit="10"/>
<path id="&#60;Path&#62;_48" d="M14.7002 501.6C51.0002 466.7 89.8002 434.4 130.6 405C148.8 392 167.7 379.3 189.3 373.3C232.6 361.1 276.6 377.7 314.7 402.4C325.1 409.2 335 416.5 344.4 424C384.6 456.5 420.9 493.8 452.3 534.9C483.4 575.6 509.8 621.2 549.3 655.1C573.8 676 603.3 693.4 634.3 702.1C661.1 709.6 689.5 710.1 715.2 699.4C719.8 697.533 724.267 695.3 728.6 692.7C755 677.1 773.7 650.4 785.7 621.7C789.5 612.5 792.7 603.1 795.4 593.7C802.4 568.9 806.7 543.3 810.5 518.4C816.6 478.8 823.6 439.9 846 407.9C866.2 378.9 901.4 359 937.5 361.2C988.8 364.4 1027.7 403.7 1065.9 434.9C1068.97 437.367 1072.03 439.767 1075.1 442.1C1121.7 478.2 1175.8 505.7 1234.4 508.5C1296.9 511.5 1364.6 481.1 1392.1 422.7" stroke="#9B9B9B" stroke-width="2" stroke-miterlimit="10"/>
<path id="&#60;Path&#62;_49" d="M19.2002 517.1C54.8002 482.7 93.1002 451.2 133.4 422.6C151.3 410 170 397.7 191.1 391.7C233.6 379.8 276.9 395.2 314.5 418.5C324.8 424.9 334.6 431.8 344 439C383.9 469.7 420.2 505.3 451.7 544.7C483 583.8 509.6 627.8 548.8 660.6C574.1 681.9 604.4 699.9 636.1 709.2C663.6 717.2 692.9 718.2 719.4 707.6C724.2 705.667 728.834 703.433 733.3 700.9C760.6 685 779.8 657.6 792.4 628.1C796.4 618.6 799.7 609 802.6 599.3C810.3 574 815.4 547.8 820.2 522.5C828.1 482.2 837.9 443.6 861.9 411.8C882.5 384.5 916.4 365.2 951.6 367.1C1001.7 369.9 1040 406.9 1077.6 435.8C1080.6 438.067 1083.6 440.3 1086.6 442.5C1132.4 475.9 1185 500.5 1241.4 501.6C1301.5 502.7 1366 471.9 1391.7 414.7" stroke="#A0A0A0" stroke-width="2" stroke-miterlimit="10"/>
<path id="&#60;Path&#62;_50" d="M23.7998 532.5C58.6998 498.7 96.3998 467.9 136.1 440.2C153.7 427.9 172.2 416.1 193 410.2C234.7 398.5 277.2 412.7 314.3 434.6C324.5 440.6 334.3 447.1 343.5 453.9C383.2 482.9 419.4 516.8 451.1 554.6C482.5 591.9 509.4 634.3 548.2 666.1C574.5 687.8 605.4 706.4 638 716.3C666.1 724.9 696.3 726.3 723.7 715.8C728.633 713.867 733.4 711.6 738 709C766.3 693 785.9 664.7 799 634.4C803.2 624.7 806.8 614.8 809.9 604.9C818.1 579.1 824 552.3 830 526.6C839.5 485.6 852.1 447.3 877.8 415.7C898.7 390 931.5 371.4 965.7 373C1014.5 375.4 1052.3 410.1 1089.3 436.7C1092.23 438.834 1095.2 440.9 1098.2 442.9C1143.2 473.6 1194.3 495.4 1248.4 494.6C1306 493.9 1367.3 462.7 1391.3 406.7" stroke="#A6A6A6" stroke-width="2" stroke-miterlimit="10"/>
<path id="&#60;Path&#62;_51" d="M28.2998 548C62.4998 514.8 99.5998 484.7 138.8 457.8C156.2 445.9 174.4 434.4 194.8 428.7C235.7 417.1 277.5 430.2 314.2 450.7C324.2 456.3 333.9 462.4 343.1 468.8C382.6 496.1 418.7 528.3 450.6 564.4C482.1 600.1 509.2 640.9 547.6 671.7C574.9 693.6 606.5 712.9 639.9 723.5C668.7 732.5 699.7 734.5 727.9 723.9C732.966 722.034 737.867 719.767 742.6 717.1C771.9 700.9 792 671.8 805.7 640.7C810.1 630.8 813.8 620.7 817.2 610.6C825.9 584.1 832.7 556.8 839.8 530.7C851.1 488.9 866.3 451 893.7 419.6C914.9 395.5 946.5 377.5 979.9 379C1027.4 381 1064.7 413.3 1101 437.6C1103.87 439.533 1106.77 441.433 1109.7 443.3C1153.9 471.3 1203.5 490.2 1255.3 487.7C1310.6 485 1368.6 453.5 1390.9 398.7" stroke="#ABABAB" stroke-width="2" stroke-miterlimit="10"/>
<path id="&#60;Path&#62;_52" d="M32.7998 563.4C66.3998 530.8 102.9 501.4 141.6 475.4C158.7 463.9 176.7 452.8 196.7 447.2C236.8 435.8 277.7 447.7 314 466.8C324 472 333.6 477.7 342.7 483.7C381.9 509.3 418 539.8 450 574.2C481.7 608.3 509 647.4 547 677.2C575.3 699.4 607.5 719.3 641.7 730.6C671.2 740.2 703.1 742.6 732.1 732.1C737.367 730.233 742.433 727.967 747.3 725.3C777.5 708.8 798.1 679 812.4 647.1C817 636.9 820.9 626.5 824.5 616.2C833.8 589.2 841.4 561.3 849.5 534.8C862.6 492.3 880.4 454.7 909.7 423.6C930.9 401 961.5 383.7 994 384.9C1040.3 386.5 1077 416.4 1112.7 438.6C1115.57 440.333 1118.43 442.033 1121.3 443.7C1164.6 468.9 1212.7 485 1262.3 480.7C1315.2 476.2 1370 444.3 1390.5 390.8" stroke="#B1B1B1" stroke-width="2" stroke-miterlimit="10"/>
<path id="&#60;Path&#62;_53" d="M37.3999 578.9C70.2999 546.8 106.2 518.2 144.3 493C161.2 481.8 178.9 471.2 198.5 465.6C237.8 454.5 278 465.2 313.8 482.9C323.7 487.7 333.2 493 342.3 498.6C381.2 522.5 417.3 551.4 449.4 584C481.2 616.4 508.9 653.9 546.4 682.7C575.7 705.3 608.6 725.8 643.6 737.7C673.7 747.8 706.5 750.7 736.3 740.3C741.7 738.433 746.933 736.133 752 733.4C783.2 716.7 804.2 686.1 819.1 653.4C823.8 643 828 632.4 831.7 621.8C841.6 594.2 850.1 565.8 859.3 538.9C874.1 495.7 894.4 458.3 925.6 427.5C946.9 406.5 976.5 389.9 1008.2 390.8C1053.2 392.1 1089.3 419.6 1124.4 439.5C1127.2 441.033 1130 442.567 1132.8 444.1C1175.3 466.6 1221.9 479.8 1269.2 473.8C1319.7 467.4 1371.3 435.1 1390.1 382.8" stroke="#B7B7B7" stroke-width="2" stroke-miterlimit="10"/>
<path id="&#60;Path&#62;_54" d="M41.8999 594.3C74.0999 562.9 109.5 534.9 147.1 510.6C163.7 499.8 181.1 489.6 200.4 484.1C238.9 473.2 278.3 482.7 313.7 498.9C323.4 503.4 332.9 508.3 341.9 513.5C380.6 535.7 416.5 562.9 448.8 593.9C480.8 624.6 508.8 660.4 545.8 688.3C576.1 711.1 609.6 732.3 645.4 744.8C676.2 755.5 709.9 758.9 740.6 748.5C746.133 746.633 751.5 744.333 756.7 741.6C788.8 724.7 810.3 693.3 825.8 659.8C830.7 649.1 835 638.3 839 627.5C849.4 599.3 858.8 570.3 869.1 543C885.6 499.1 908.3 461.9 941.5 431.4C962.8 411.8 991.6 396 1022.3 396.7C1066.1 397.6 1101.6 422.8 1136.1 440.4C1138.83 441.8 1141.57 443.167 1144.3 444.5C1186.1 464.3 1231.1 474.7 1276.2 466.8C1324.3 458.5 1372.7 425.9 1389.7 374.8" stroke="#BCBCBC" stroke-width="2" stroke-miterlimit="10"/>
<path id="&#60;Path&#62;_55" d="M46.5 609.8C78 578.9 112.8 551.7 149.8 528.2C166.2 517.8 183.4 507.9 202.2 502.6C239.9 491.8 278.5 500.2 313.5 515C323.1 519.1 332.5 523.6 341.5 528.4C379.9 548.9 415.8 574.4 448.3 603.7C480.3 632.8 508.6 666.9 545.2 693.8C576.5 716.9 610.7 738.8 647.3 751.9C678.7 763.2 713.3 767 744.8 756.6C750.467 754.733 756 752.433 761.4 749.7C794.4 732.6 816.4 700.4 832.5 666.1C837.6 655.2 842.1 644.1 846.3 633.1C857.3 604.4 867.5 574.9 878.8 547.1C897.2 502.5 922.2 465.5 957.4 435.3C978.6 417.2 1006.6 402.2 1036.4 402.6C1079 403.1 1114 426 1147.8 441.3C1150.47 442.567 1153.17 443.767 1155.9 444.9C1196.8 461.9 1240.3 469.5 1283.2 459.9C1328.9 449.7 1374 416.7 1389.3 366.8" stroke="#C2C2C2" stroke-width="2" stroke-miterlimit="10"/>
<path id="&#60;Path&#62;_56" d="M51 625.2C81.8 595 116.1 568.4 152.5 545.8C168.7 535.7 185.6 526.3 204 521C240.9 510.5 278.8 517.7 313.3 531.1C322.9 534.8 332.2 538.9 341.1 543.3C379.3 562.1 415.1 585.9 447.7 613.5C479.9 640.9 508.6 673.4 544.6 699.3C577 722.7 611.7 745.3 649.2 759.1C681.2 770.8 716.8 775.1 749 764.8C754.867 762.933 760.567 760.6 766.1 757.8C800 740.5 822.5 707.6 839.2 672.4C844.4 661.3 849.2 650 853.6 638.8C865.1 609.4 876.2 579.4 888.6 551.2C908.7 505.9 936 468.9 973.3 439.3C994.4 422.5 1021.6 408.4 1050.6 408.5C1091.8 408.7 1126.3 429.2 1159.5 442.3C1162.1 443.3 1164.73 444.267 1167.4 445.2C1207.5 459.6 1249.5 464.3 1290.1 452.9C1333.4 440.9 1375.4 407.5 1388.9 358.9" stroke="#C7C7C7" stroke-width="2" stroke-miterlimit="10"/>
<path id="&#60;Path&#62;_57" d="M55.6001 640.7C85.7001 611 119.4 585.2 155.3 563.4C171.2 553.7 187.8 544.7 205.9 539.5C242 529.2 279.1 535.2 313.2 547.2C322.6 550.5 331.8 554.2 340.7 558.2C378.6 575.3 414.4 597.4 447.1 623.4C479.5 649.1 508.5 679.8 544 704.9C577.4 728.5 612.7 751.7 651 766.2C683.7 778.5 720.2 783.2 753.2 773C759.2 771.133 765.033 768.8 770.7 766C805.7 748.5 828.6 714.7 845.9 678.8C851.3 667.4 856.2 655.8 860.8 644.4C872.9 614.5 884.9 583.9 898.4 555.3C920.3 509.3 949.8 472.3 989.2 443.2C1010.2 427.7 1036.6 414.5 1064.7 414.4C1104.7 414.2 1138.6 432.4 1171.2 443.2C1173.8 444.067 1176.4 444.867 1179 445.6C1218.2 457.3 1258.7 459.1 1297.1 446C1338 432 1376.7 398.3 1388.5 350.9" stroke="#CDCDCD" stroke-width="2" stroke-miterlimit="10"/>
<path id="&#60;Path&#62;_58" d="M60.1001 656.1C89.6001 627 122.6 601.9 158 581C173.7 571.7 190.1 563.1 207.7 558C243 547.8 279.4 552.7 313 563.3C322.3 566.2 331.4 569.5 340.3 573.1C377.9 588.5 413.6 608.9 446.5 633.2C479 657.2 508.4 686.2 543.4 710.4C577.9 734.2 613.8 758.2 652.9 773.3C686.3 786.1 723.6 791.4 757.5 781.2C763.633 779.333 769.6 776.967 775.4 774.1C811.3 756.4 834.7 721.9 852.5 685.1C858.2 673.5 863.3 661.7 868.1 650C880.8 619.5 893.6 588.4 908.2 559.4C931.9 512.7 963.5 475.6 1005.2 447.1C1025.9 432.9 1051.7 420.7 1078.8 420.3C1117.6 419.7 1150.9 435.6 1182.9 444.1C1185.43 444.767 1187.97 445.4 1190.5 446C1229 454.9 1267.9 454 1304 439C1342.6 423.2 1378.1 389.1 1388.1 342.9" stroke="#D2D2D2" stroke-width="2" stroke-miterlimit="10"/>
<path id="&#60;Path&#62;_59" d="M64.7002 671.5C93.4002 643.1 125.9 618.7 160.8 598.6C176.2 589.6 192.3 581.4 209.6 576.5C244.1 566.5 279.6 570.2 312.9 579.4C322.1 581.9 331.1 584.8 339.9 588C377.3 601.7 412.9 620.4 445.9 643C478.6 665.4 508.3 692.6 542.8 715.9C578.3 739.9 614.8 764.7 654.8 780.4C688.8 793.8 727 799.5 761.7 789.3C767.967 787.5 774.1 785.133 780.1 782.2C816.9 764.3 840.8 729 859.2 691.5C865 679.6 870.3 667.5 875.4 655.7C888.6 624.6 902.3 592.9 917.9 563.5C943.4 516.1 977.1 478.8 1021.1 451C1041.7 438 1066.7 426.9 1093 426.2C1130.5 425.3 1163.2 438.8 1194.6 445C1197.07 445.533 1199.53 446 1202 446.4C1239.7 452.6 1277.1 448.8 1311 432.1C1347.1 414.3 1379.4 379.9 1387.7 335" stroke="#D8D8D8" stroke-width="2" stroke-miterlimit="10"/>
<path id="&#60;Path&#62;_60" d="M69.2002 687C97.3002 659.1 129.2 635.4 163.5 616.1C178.7 607.6 194.5 599.8 211.4 594.9C245.1 585.2 279.9 587.7 312.7 595.5C321.8 597.6 330.7 600.1 339.5 602.9C376.6 614.9 412.2 631.9 445.4 652.8C478.2 673.6 508.3 699 542.2 721.5C578.8 745.7 615.9 771.2 656.6 787.5C691.3 801.4 730.4 807.6 765.9 797.5C772.367 795.7 778.667 793.333 784.8 790.4C822.6 772.2 846.9 736.1 865.9 697.8C871.9 685.7 877.4 673.4 882.7 661.3C896.4 629.6 911 597.4 927.7 567.6C954.9 519.5 990.6 481.8 1037 455C1057.4 443.2 1081.7 433.1 1107.1 432.1C1143.4 430.8 1175.6 442 1206.3 446C1208.7 446.267 1211.13 446.533 1213.6 446.8C1250.4 450.3 1286.3 443.6 1318 425.1C1351.7 405.5 1380.8 370.7 1387.3 327" stroke="#DEDEDE" stroke-width="2" stroke-miterlimit="10"/>
<path id="&#60;Path&#62;_61" d="M73.7998 702.4C101.1 675.1 132.5 652.2 166.2 633.7C181.2 625.6 196.7 618.2 213.2 613.4C246.2 603.8 280.2 605.2 312.5 611.5C321.5 613.3 330.4 615.4 339.1 617.8C375.9 628.1 411.5 643.4 444.8 662.7C477.7 681.7 508.2 705.4 541.6 727C579.3 751.4 616.9 777.7 658.5 794.7C693.8 809.1 733.8 815.8 770.1 805.7C776.7 803.8 783.2 801.5 789.5 798.5C828.2 780.2 853 743.3 872.6 704.2C878.8 691.8 884.5 679.3 889.9 666.9C904.3 634.7 919.7 601.9 937.5 571.7C966.5 522.8 1004.2 484.7 1052.9 458.9C1073.1 448.2 1096.7 439.2 1121.3 438C1156.2 436.4 1187.9 445.2 1218 446.9C1220.4 447.033 1222.77 447.133 1225.1 447.2C1261.1 448 1295.5 438.4 1324.9 418.2C1356.3 396.7 1382.1 361.5 1386.9 319" stroke="#E3E3E3" stroke-width="2" stroke-miterlimit="10"/>
<path id="&#60;Path&#62;_62" d="M78.2998 717.9C105 691.2 135.8 668.9 169 651.3C183.7 643.5 199 636.6 215.1 631.9C247.2 622.5 280.5 622.7 312.4 627.6C321.2 629 330 630.7 338.7 632.7C375.3 641.3 410.7 654.9 444.2 672.5C477.3 689.9 508.2 711.8 541 732.5C579.8 757 618 784.1 660.3 801.8C696.3 816.8 737.2 823.9 774.3 813.9C781.1 812 787.7 809.6 794.2 806.6C833.8 788.1 859.1 750.4 879.3 710.5C885.7 697.9 891.5 685.1 897.2 672.6C912.1 639.8 928.3 606.4 947.2 575.8C978 526.2 1017.6 487.4 1068.8 462.8C1088.8 453.2 1111.8 445.4 1135.4 444C1169.1 441.9 1200.2 448.4 1229.7 447.8C1232.03 447.8 1234.37 447.733 1236.7 447.6C1271.9 445.6 1304.7 433.3 1331.9 411.2C1360.8 387.8 1383.4 352.3 1386.5 311" stroke="#E9E9E9" stroke-width="2" stroke-miterlimit="10"/>
<path id="&#60;Path&#62;_63" d="M82.7998 733.3C108.9 707.2 139.1 685.7 171.7 668.9C186.2 661.5 201.2 654.9 216.9 650.3C248.3 641.2 280.8 640.1 312.2 643.7C321 644.7 329.7 646 338.3 647.6C374.6 654.5 410 666.4 443.6 682.3C476.8 698 508.1 718.2 540.4 738.1C580.3 762.7 619 790.6 662.2 808.9C698.8 824.4 740.6 832 778.6 822C785.5 820.2 792.3 817.8 798.9 814.8C839.5 796 865.2 757.6 886 716.8C892.5 704 898.6 691 904.5 678.2C919.9 644.8 937 610.9 957 579.9C989.5 529.6 1031.1 489.9 1084.8 466.7C1104.5 458.2 1126.8 451.6 1149.5 449.9C1182 447.4 1212.5 451.6 1241.4 448.7C1243.67 448.5 1245.93 448.267 1248.2 448C1282.6 443.3 1313.9 428.1 1338.8 404.3C1365.4 379 1384.8 343.1 1386.1 303.1" stroke="#EEEEEE" stroke-width="2" stroke-miterlimit="10"/>
<path id="&#60;Path&#62;_64" d="M87.3999 748.8C112.7 723.2 142.4 702.5 174.5 686.5C188.7 679.5 203.4 673.3 218.8 668.8C249.3 659.8 281 657.6 312 659.8C320.7 660.4 329.3 661.3 337.9 662.5C373.9 667.7 409.3 677.9 443.1 692.2C476.4 706.2 508.1 724.5 539.8 743.6C580.9 768.3 620.1 797.1 664.1 816C701.3 832.1 744 840.2 782.8 830.2C789.9 828.4 796.8 826 803.5 822.9C845.1 804 871.3 764.7 892.7 723.2C899.4 710.1 905.6 696.8 911.8 683.8C927.8 649.9 945.7 615.4 966.8 584C1001.1 533 1044.5 492.3 1100.7 470.7C1120.3 463.1 1141.8 457.7 1163.7 455.8C1194.9 453 1224.8 454.8 1253.1 449.7C1255.3 449.3 1257.53 448.833 1259.8 448.3C1293.3 441 1323.1 422.9 1345.8 397.3C1370 370.2 1386.1 333.9 1385.7 295.1" stroke="#F4F4F4" stroke-width="2" stroke-miterlimit="10"/>
<path id="&#60;Path&#62;_65" d="M91.8999 764.2C116.6 739.3 145.7 719.2 177.2 704.1C191.2 697.4 205.7 691.7 220.6 687.3C250.3 678.5 281.3 675.1 311.9 675.9C320.433 676.1 328.933 676.6 337.4 677.4C373.3 680.9 408.6 689.5 442.5 702C476 714.4 508.1 730.8 539.2 749.1C581.4 773.9 621.1 803.6 665.9 823.2C703.9 839.7 747.4 848.3 787 838.4C794.2 836.6 801.3 834.1 808.2 831C850.7 811.9 877.4 771.9 899.4 729.5C906.3 716.2 912.7 702.7 919 689.5C935.6 654.9 954.4 619.9 976.5 588.1C1012.6 536.4 1057.9 494.4 1116.6 474.6C1136 468 1156.8 463.9 1177.8 461.7C1207.8 458.5 1237.2 457.9 1264.8 450.6C1267 450 1269.17 449.367 1271.3 448.7C1304 438.6 1332.3 417.7 1352.8 390.4C1374.5 361.3 1387.5 324.7 1385.3 287.1" stroke="#F9F9F9" stroke-width="2" stroke-miterlimit="10"/>
<path id="&#60;Path&#62;_66" d="M96.5 779.7C152.2 723 232.3 693.5 311.7 692C391.1 690.4 469.7 715.2 538.6 754.7C582 779.5 622.1 810 667.8 830.3C713.4 850.5 767.3 859.5 812.9 839.2C870 813.7 898.9 751.3 926.3 695.1C971.4 602.8 1033.9 507.3 1132.5 478.5C1181.6 464.2 1235.3 468.2 1282.8 449.1C1348.7 422.7 1392.5 349.7 1384.9 279.1" stroke="white" stroke-width="2" stroke-miterlimit="10"/>
</g>
<g id="&#60;Group&#62;_5" style="mix-blend-mode:multiply">
<path id="&#60;Path&#62;_67" d="M444.8 1599.7C436.4 1531.7 503.5 1474.2 571.2 1463.6C638.9 1453.1 706.8 1474.9 773.9 1488.8C841 1502.8 916.5 1507.4 972.5 1468C1044.2 1417.6 1060.7 1311.5 1134.4 1264.1C1191.9 1227.2 1266.7 1238.3 1325.5 1265.7C1358.8 1281.3 1387.1 1307.4 1418.9 1325.6C1563.1 1408.1 1572.9 1576.7 1695.4 1601.8C1828.1 1629.1 1900.1 1564.4 1925.1 1519.5C1957.2 1462 2010.7 1312.9 1879.7 1209.3C1826.4 1167.2 1773.8 1122.3 1734.7 1066.8C1676 983.9 1676.4 857 1751.4 788.4C1802.8 741.4 1881.8 724.2 1916.7 663.9C1940.1 623.4 1936.9 571.2 1916.8 528.9C1896.6 486.7 1861.4 453.3 1823.3 426.2" stroke="#8A8A8A" stroke-width="2" stroke-miterlimit="10"/>
<path id="&#60;Path&#62;_68" d="M447.8 1603.1C442 1533.1 508.8 1472.7 578.5 1460.6C646.6 1448.9 715.6 1470.5 782.7 1485.9C849 1501.2 922.6 1508.1 978.5 1472.3C1049.8 1426.4 1069.9 1325.7 1143.5 1279C1202.1 1241.9 1275.7 1248.8 1336 1272.8C1370.6 1286.6 1401.3 1311.2 1434.6 1329.7C1575.8 1407.9 1587.4 1571.1 1707.3 1595.9C1836.2 1622.5 1907.9 1561.3 1933.9 1517.1C1966.9 1461.2 2017.9 1317.5 1894 1215C1843 1172.8 1792.4 1127 1753.8 1071.9C1696.9 990.9 1696.4 868.5 1767.2 800.5C1816.1 753.5 1892.2 734.3 1927 674.9C1950.9 634.2 1949.4 582.7 1931.8 540.2C1914 497.2 1881.5 461.9 1844.9 432.8" stroke="#909090" stroke-width="2" stroke-miterlimit="10"/>
<path id="&#60;Path&#62;_69" d="M450.9 1606.4C447.7 1534.5 514.1 1471.1 585.8 1457.6C654.2 1444.7 724.4 1466.2 791.5 1483.1C857 1499.6 928.7 1508.8 984.4 1476.5C1055.5 1435.2 1078.9 1339.7 1152.6 1293.8C1212.3 1256.5 1284.9 1259.3 1346.4 1279.9C1382.4 1292 1415.4 1315.1 1450.3 1333.8C1588.3 1408 1602 1565.4 1719.2 1589.9C1844.4 1615.9 1915.6 1558.1 1942.6 1514.7C1976.5 1460.3 2025.1 1321.9 1908.4 1220.8C1859.5 1178.3 1810.9 1131.8 1773 1077C1717.8 998 1716.3 880.1 1782.9 812.7C1829.5 765.6 1902.7 744.5 1937.3 685.8C1961.6 645 1961.9 594.2 1946.8 551.4C1931.4 507.7 1901.6 470.5 1866.4 439.4" stroke="#959595" stroke-width="2" stroke-miterlimit="10"/>
<path id="&#60;Path&#62;_70" d="M453.9 1609.8C453.3 1536 519.3 1469.6 593.1 1454.6C661.9 1440.6 733.1 1461.8 800.3 1480.2C865 1497.9 934.9 1509.5 990.4 1480.8C1061.1 1444 1088 1353.9 1161.6 1308.6C1222.5 1271.2 1294.1 1269.8 1356.9 1287C1394.3 1297.3 1429.6 1319 1466 1337.9C1600.7 1408.2 1616.5 1559.8 1731.1 1583.9C1852.5 1609.3 1923.3 1555 1951.3 1512.3C1986 1459.4 2032.3 1326.3 1922.8 1226.5C1876.1 1183.9 1829.5 1136.4 1792.1 1082.1C1738.9 1004.9 1736.3 891.6 1798.6 824.9C1842.8 777.7 1913.1 754.6 1947.7 696.7C1972.2 655.7 1974.4 605.6 1961.8 562.6C1948.8 518.1 1921.7 479.1 1888 446" stroke="#9B9B9B" stroke-width="2" stroke-miterlimit="10"/>
<path id="&#60;Path&#62;_71" d="M456.9 1613.2C459 1537.4 524.6 1468.2 600.4 1451.6C669.5 1436.6 741.9 1457.4 809 1477.3C873 1496.2 941 1510.1 996.3 1485.1C1066.8 1452.8 1097.2 1368 1170.7 1323.4C1232.7 1285.8 1303.3 1280.1 1367.4 1294.1C1406.3 1302.5 1443.8 1322.8 1481.7 1342C1613.1 1408.5 1631.1 1554.1 1743 1577.9C1860.7 1602.7 1931 1551.9 1960 1509.9C1995.6 1458.5 2039.5 1330.5 1937.2 1232.2C1892.6 1189.4 1848.1 1141.1 1811.2 1087.2C1759.8 1011.9 1756.2 903 1814.4 837.1C1856.1 789.8 1923.5 764.7 1958 707.7C1982.9 666.4 1986.9 617.1 1976.8 573.8C1966.2 528.5 1941.8 487.7 1909.6 452.6" stroke="#A0A0A0" stroke-width="2" stroke-miterlimit="10"/>
<path id="&#60;Path&#62;_72" d="M460 1616.6C464.6 1538.9 529.9 1466.7 607.7 1448.6C677.2 1432.5 750.7 1453 817.8 1474.4C881 1494.5 947.2 1510.9 1002.3 1489.3C1072.5 1461.8 1106.3 1382.2 1179.7 1338.3C1243 1300.5 1312.6 1290.5 1377.9 1301.2C1418.2 1307.8 1457.9 1326.7 1497.4 1346.1C1625.3 1409 1645.6 1548.5 1754.8 1571.9C1868.8 1596.1 1938.7 1548.8 1968.8 1507.5C2005.1 1457.6 2046.7 1334.7 1951.6 1238C1909.1 1194.8 1866.6 1145.9 1830.4 1092.3C1780.7 1018.9 1776.1 914.4 1830.1 849.2C1869.5 801.8 1934 774.9 1968.3 718.6C1993.6 677.2 1999.5 628.5 1991.8 585C1983.7 538.8 1961.9 496.3 1931.2 459.2" stroke="#A6A6A6" stroke-width="2" stroke-miterlimit="10"/>
<path id="&#60;Path&#62;_73" d="M463 1620C470.2 1540.3 535.2 1465.3 615 1445.6C684.8 1428.4 759.4 1448.6 826.6 1471.5C889 1492.8 953.3 1511.6 1008.2 1493.6C1078.2 1470.6 1115.4 1396.3 1188.8 1353.1C1253.2 1315.1 1321.9 1300.7 1388.3 1308.3C1430.2 1313 1472 1330.6 1513.1 1350.3C1637.4 1409.7 1660.2 1542.9 1766.7 1565.9C1877 1589.5 1946.4 1545.6 1977.5 1505.1C2014.7 1456.7 2054 1338.6 1966 1243.7C1925.6 1200.3 1885.2 1150.6 1849.5 1097.4C1801.6 1025.9 1796 925.7 1845.9 861.4C1882.8 813.8 1944.4 785 1978.7 729.5C2004.3 688 2012.1 639.8 2006.8 596.2C2001.2 549.1 1982 504.9 1952.8 465.8" stroke="#ABABAB" stroke-width="2" stroke-miterlimit="10"/>
<path id="&#60;Path&#62;_74" d="M466.1 1623.4C475.9 1541.8 540.5 1463.9 622.3 1442.6C692.5 1424.4 768.2 1444.1 835.4 1468.6C897 1491.1 959.4 1512.3 1014.2 1497.9C1083.8 1479.5 1124.5 1410.5 1197.9 1367.9C1263.4 1329.8 1331.3 1310.9 1398.8 1315.4C1442.1 1318.2 1486.1 1334.6 1528.7 1354.4C1649.5 1410.4 1674.7 1537.2 1778.6 1559.9C1885.1 1582.9 1954 1542.5 1986.2 1502.7C2024.2 1455.8 2061.4 1342.5 1980.4 1249.5C1942.2 1205.6 1903.7 1155.3 1868.7 1102.5C1822.5 1033 1815.9 937 1861.6 873.6C1896.1 825.7 1954.9 795.1 1989 740.5C2015.1 698.7 2024.7 651.2 2021.8 607.4C2018.7 559.5 2002.1 513.5 1974.3 472.4" stroke="#B1B1B1" stroke-width="2" stroke-miterlimit="10"/>
<path id="&#60;Path&#62;_75" d="M469.1 1626.8C481.5 1543.2 545.7 1462.5 629.6 1439.6C700.2 1420.4 777 1439.7 844.2 1465.7C905 1489.3 965.5 1513 1020.1 1502.1C1089.5 1488.3 1133.7 1424.7 1206.9 1382.7C1273.7 1344.5 1340.6 1321.1 1409.3 1322.4C1454.1 1323.3 1500.2 1338.5 1544.4 1358.5C1661.5 1411.3 1689.3 1531.6 1790.5 1554C1893.2 1576.4 1961.7 1539.3 1995 1500.3C2033.6 1454.8 2068.9 1346.2 1994.8 1255.2C1958.7 1210.9 1922.3 1160 1887.8 1107.6C1843.4 1040 1835.8 948.2 1877.4 885.7C1909.4 837.6 1965.3 805.3 1999.3 751.4C2025.8 709.5 2037.4 662.5 2036.9 618.6C2036.3 569.8 2022.2 522.1 1995.9 479" stroke="#B7B7B7" stroke-width="2" stroke-miterlimit="10"/>
<path id="&#60;Path&#62;_76" d="M472.1 1630.2C487.2 1544.6 551 1461.1 636.9 1436.6C707.9 1416.4 785.8 1435.2 852.9 1462.9C913 1487.6 971.6 1513.7 1026.1 1506.4C1095.1 1497.1 1142.8 1438.9 1216 1397.6C1283.9 1359.2 1350 1331.1 1419.7 1329.5C1466.1 1328.5 1514.3 1342.5 1560.1 1362.6C1673.5 1412.3 1703.8 1525.9 1802.4 1548C1901.4 1569.8 1969.3 1536.2 2003.7 1497.9C2043.1 1453.9 2076.4 1349.7 2009.2 1261C1975.2 1216.2 1940.8 1164.8 1906.9 1112.6C1864.3 1047.1 1855.6 959.3 1893.1 897.9C1922.7 849.4 1975.8 815.4 2009.7 762.3C2036.5 720.2 2050.1 673.8 2051.9 629.8C2053.9 580.1 2042.2 530.7 2017.5 485.6" stroke="#BCBCBC" stroke-width="2" stroke-miterlimit="10"/>
<path id="&#60;Path&#62;_77" d="M475.2 1633.6C492.8 1546.1 556.3 1459.7 644.2 1433.6C715.5 1412.5 794.6 1430.7 861.7 1460C921 1485.8 977.8 1514.4 1032 1510.7C1100.8 1506 1152 1453.1 1225 1412.4C1294.2 1373.9 1359.3 1341.2 1430.2 1336.6C1478 1333.5 1528.3 1346.5 1575.8 1366.7C1685.4 1413.3 1718.4 1520.3 1814.3 1542C1909.5 1563.2 1976.9 1533 2012.4 1495.5C2052.6 1453 2084 1353.1 2023.5 1266.7C1991.7 1221.3 1959.3 1169.5 1926.1 1117.7C1885.2 1054.1 1875.3 970.4 1908.8 910.1C1936 861.3 1986.3 825.6 2020 773.3C2047.2 731 2062.8 685.2 2066.9 641C2071.6 590.4 2062.3 539.2 2039.1 492.2" stroke="#C2C2C2" stroke-width="2" stroke-miterlimit="10"/>
<path id="&#60;Path&#62;_78" d="M478.2 1637C498.5 1547.5 561.6 1458.4 651.5 1430.6C723.2 1408.5 803.3 1426.2 870.5 1457.1C929 1484 983.9 1515.1 1038 1515C1106.4 1514.8 1161.2 1467.3 1234.1 1427.2C1304.4 1388.6 1368.6 1351.2 1440.7 1343.7C1490 1338.6 1542.4 1350.5 1591.5 1370.8C1697.3 1414.5 1732.9 1514.7 1826.2 1536C1917.7 1556.6 1984.5 1529.9 2021.1 1493.1C2062 1452 2091.8 1356.3 2037.9 1272.5C2008.3 1226.4 1977.9 1174.3 1945.2 1122.8C1906.1 1061.2 1895 981.5 1924.6 922.2C1949.2 873 1996.8 835.7 2030.3 784.2C2057.9 741.8 2075.6 696.5 2081.9 652.2C2089.3 600.7 2082.4 547.8 2060.7 498.8" stroke="#C7C7C7" stroke-width="2" stroke-miterlimit="10"/>
<path id="&#60;Path&#62;_79" d="M481.3 1640.4C504.1 1549 567 1457.1 658.8 1427.6C730.9 1404.5 812.2 1421.6 879.3 1454.2C937.1 1482.2 990 1515.8 1043.9 1519.2C1112.1 1523.6 1170.3 1481.5 1243.2 1442C1314.7 1403.3 1378 1361.1 1451.2 1350.8C1502 1343.6 1556.4 1354.6 1607.2 1374.9C1709.1 1415.7 1747.4 1509.2 1838 1530C1925.8 1550.2 1992.1 1526.7 2029.9 1490.7C2071.4 1451 2099.8 1359.4 2052.3 1278.2C2025 1231.5 1996.4 1179 1964.4 1127.9C1927 1068.2 1914.6 992.4 1940.3 934.4C1962.4 884.8 2007.3 845.9 2040.6 795.2C2068.7 752.6 2088.4 707.9 2096.9 663.4C2107 611 2102.5 556.4 2082.2 505.5" stroke="#CDCDCD" stroke-width="2" stroke-miterlimit="10"/>
<path id="&#60;Path&#62;_80" d="M484.3 1643.8C509.8 1550.4 572.3 1455.8 666.1 1424.6C738.6 1400.6 821 1417.1 888.1 1451.3C945.1 1480.4 996.1 1516.4 1049.9 1523.5C1117.7 1532.4 1179.5 1495.7 1252.2 1456.9C1325 1418 1387.3 1371.1 1461.6 1357.9C1513.9 1348.6 1570.4 1358.7 1622.9 1379C1720.9 1417 1762 1503.6 1849.9 1524C1933.9 1543.6 1999.7 1523.5 2038.6 1488.3C2080.8 1450 2107.9 1362.3 2066.7 1284C2041.7 1236.4 2014.9 1183.8 1983.5 1133C1947.8 1075.3 1934.1 1003.4 1956.1 946.6C1975.5 896.4 2017.8 856.1 2051 806.1C2079.4 763.3 2101.2 719.2 2111.9 674.6C2124.7 621.3 2122.6 565 2103.8 512.1" stroke="#D2D2D2" stroke-width="2" stroke-miterlimit="10"/>
<path id="&#60;Path&#62;_81" d="M487.4 1647.2C515.4 1551.8 577.6 1454.5 673.4 1421.6C746.3 1396.7 829.8 1412.5 896.9 1448.4C953.2 1478.5 1002.2 1517.1 1055.8 1527.8C1123.4 1541.2 1188.6 1510 1261.3 1471.7C1335.2 1432.7 1396.6 1381 1472.1 1365C1525.9 1353.6 1584.4 1362.9 1638.6 1383.2C1732.7 1418.4 1776.5 1497.9 1861.8 1518.1C1942.1 1537 2007.3 1520.2 2047.3 1485.8C2090.2 1449 2116.2 1365.1 2081.1 1289.7C2058.5 1241.3 2033.4 1188.5 2002.6 1138.1C1968.7 1082.4 1953.5 1014.2 1971.8 958.8C1988.5 908.1 2028.3 866.2 2061.3 817C2090.1 774.1 2114 730.6 2126.9 685.8C2142.5 631.7 2142.7 573.6 2125.4 518.7" stroke="#D8D8D8" stroke-width="2" stroke-miterlimit="10"/>
<path id="&#60;Path&#62;_82" d="M490.4 1650.6C521.1 1553.3 582.9 1453.2 680.7 1418.6C754 1392.8 838.6 1408 905.6 1445.5C961.2 1476.7 1008.4 1517.8 1061.8 1532C1129 1550 1197.8 1524.2 1270.3 1486.5C1345.5 1447.4 1405.8 1390.9 1482.6 1372.1C1537.8 1358.5 1598.4 1367.1 1654.3 1387.3C1744.5 1419.8 1791.1 1492.3 1873.7 1512.1C1950.2 1530.4 2014.8 1517 2056 1483.4C2099.6 1448 2124.8 1367.8 2095.5 1295.5C2075.5 1246.1 2051.9 1193.3 2021.8 1143.2C1989.5 1089.4 1972.9 1025.1 1987.6 970.9C2001.4 919.7 2038.8 876.4 2071.6 828C2100.9 784.9 2126.9 742 2142 697C2160.3 642 2162.8 582.2 2147 525.3" stroke="#DEDEDE" stroke-width="2" stroke-miterlimit="10"/>
<path id="&#60;Path&#62;_83" d="M493.4 1654C526.7 1554.7 588.3 1452 688 1415.7C761.7 1388.8 847.5 1403.4 914.4 1442.6C969.3 1474.8 1014.5 1518.4 1067.7 1536.3C1134.7 1558.8 1207 1538.4 1279.4 1501.3C1355.8 1462.2 1415.1 1400.7 1493 1379.2C1549.7 1363.5 1612.4 1371.4 1670 1391.4C1756.3 1421.3 1805.6 1486.6 1885.6 1506.1C1958.3 1523.8 2022.4 1513.7 2064.8 1481C2109 1446.9 2133.5 1370.4 2109.9 1301.2C2092.7 1250.9 2070.4 1198 2040.9 1148.3C2010.3 1096.5 1992.1 1036 2003.3 983.1C2014.2 931.4 2049.3 886.6 2082 838.9C2111.6 795.7 2139.8 753.4 2157 708.2C2178.2 652.4 2182.9 590.8 2168.6 531.9" stroke="#E3E3E3" stroke-width="2" stroke-miterlimit="10"/>
<path id="&#60;Path&#62;_84" d="M496.5 1657.4C532.4 1556.2 593.6 1450.7 695.3 1412.7C769.4 1384.9 856.3 1398.8 923.2 1439.8C977.3 1473 1020.6 1519 1073.7 1540.6C1140.4 1567.4 1216.2 1552.7 1288.5 1516.2C1366.1 1476.9 1424.3 1410.6 1503.5 1386.2C1561.6 1368.4 1626.3 1375.7 1685.7 1395.5C1768 1422.9 1820.2 1480.8 1897.5 1500.1C1966.5 1517 2029.9 1510.5 2073.5 1478.6C2118.3 1445.9 2142.5 1373 2124.3 1307C2110.1 1255.7 2088.8 1202.8 2060.1 1153.3C2031.2 1103.6 2011.2 1046.9 2019 995.3C2026.9 943 2059.8 896.8 2092.3 849.8C2122.4 806.5 2152.7 764.9 2172 719.4C2196 662.9 2203 599.4 2190.1 538.5" stroke="#E9E9E9" stroke-width="2" stroke-miterlimit="10"/>
<path id="&#60;Path&#62;_85" d="M499.5 1660.8C538 1557.6 599 1449.5 702.6 1409.7C777.1 1381 865.2 1394.1 932 1436.9C985.4 1471.1 1026.8 1519.7 1079.6 1544.8C1146.1 1576.3 1225.4 1566.9 1297.5 1531C1376.3 1491.7 1433.5 1420.4 1514 1393.3C1573.4 1373.3 1640.2 1380.2 1701.4 1399.6C1779.8 1424.5 1834.8 1475.2 1909.4 1494.1C1974.7 1510.5 2037.4 1507.2 2082.2 1476.2C2127.7 1444.8 2151.8 1375.7 2138.7 1312.7C2127.7 1260.4 2107.3 1207.6 2079.2 1158.4C2052 1110.7 2030.3 1057.8 2034.8 1007.4C2039.5 954.7 2070.3 906.9 2102.6 860.8C2133.1 817.3 2165.6 776.3 2187 730.6C2213.9 673.3 2223 608 2211.7 545.1" stroke="#EEEEEE" stroke-width="2" stroke-miterlimit="10"/>
<path id="&#60;Path&#62;_86" d="M502.6 1664.2C543.6 1559.1 604.3 1448.2 709.9 1406.7C784.8 1377.2 874.1 1389.5 940.8 1434C993.5 1469.2 1032.9 1520.4 1085.6 1549.1C1151.7 1585.1 1234.6 1581.3 1306.6 1545.8C1386.7 1506.6 1442.7 1430.2 1524.4 1400.4C1585.3 1378.2 1654.1 1384.7 1717.1 1403.7C1791.5 1426.2 1849.3 1469.6 1921.3 1488.1C1982.8 1503.9 2044.9 1503.9 2090.9 1473.8C2137 1443.7 2161.3 1378.5 2153.1 1318.5C2145.7 1265.2 2125.7 1212.4 2098.4 1163.5C2072.7 1117.8 2049.2 1068.7 2050.5 1019.6C2051.9 966.4 2080.9 917.2 2113 871.7C2144 828.1 2178.5 787.8 2202 741.8C2231.7 683.8 2243.1 616.6 2233.3 551.7" stroke="#F4F4F4" stroke-width="2" stroke-miterlimit="10"/>
<path id="&#60;Path&#62;_87" d="M505.6 1667.5C549.3 1560.5 609.7 1447.2 717.2 1403.7C792.6 1373.4 883 1384.8 949.5 1431.1C1001.6 1467.3 1039 1521 1091.5 1553.4C1157.4 1593.9 1243.8 1595.5 1315.6 1560.6C1397 1521.3 1451.9 1440 1534.9 1407.5C1597.2 1383.1 1668 1389.4 1732.8 1407.8C1803.3 1427.9 1863.9 1463.9 1933.1 1482.1C1991 1497.3 2052.5 1500.5 2099.7 1471.4C2146.4 1442.6 2171 1381.5 2167.4 1324.2C2164 1270.1 2144.2 1217.2 2117.5 1168.6C2093.5 1124.9 2068.1 1079.8 2066.3 1031.8C2064.2 978.1 2091.4 927.3 2123.3 882.6C2154.7 838.9 2191.4 799.3 2217 753C2249.6 694.3 2263.2 625.2 2254.9 558.3" stroke="#F9F9F9" stroke-width="2" stroke-miterlimit="10"/>
<path id="&#60;Path&#62;_88" d="M508.6 1670.9C554.9 1561.9 615.1 1445.8 724.5 1400.7C800.3 1369.4 891.9 1380.2 958.3 1428.2C1009.8 1465.4 1045.2 1521.7 1097.5 1557.7C1163 1602.7 1252.9 1609.8 1324.7 1575.5C1407.2 1536 1461 1449.9 1545.4 1414.6C1609 1388 1681.8 1394.2 1748.5 1411.9C1815.1 1429.7 1878.4 1458.3 1945 1476.2C1999.1 1490.7 2060 1497.2 2108.4 1469C2155.8 1441.5 2181 1384.8 2181.8 1330C2182.7 1275.1 2162.5 1222 2136.6 1173.7C2114.3 1132 2086.9 1091 2082 1044C2076.4 990 2101.8 937.5 2133.6 893.6C2165.4 849.7 2204.3 810.8 2232 764.2C2267.5 704.8 2283.3 633.8 2276.5 564.9" stroke="white" stroke-width="2" stroke-miterlimit="10"/>
</g>
<g id="&#60;Group&#62;_6" style="mix-blend-mode:multiply">
<path id="&#60;Path&#62;_89" d="M1301.6 2076.9C1243.3 2040.9 1240.6 1952.5 1274.7 1893.1C1308.9 1833.7 1368.5 1794.5 1421.4 1750.9C1474.3 1707.4 1525.2 1651.5 1529.6 1583.1C1535.2 1495.7 1462.9 1416.3 1472.1 1329.2C1479.3 1261.3 1534.8 1209.9 1593.1 1181.2C1626 1165 1664.1 1159.3 1698.2 1145.9C1852.9 1085.2 1990.4 1183.3 2086.8 1103.5C2191.1 1017.1 2185.8 920.5 2166.5 872.9C2141.8 811.8 2059.1 676.7 1896.2 713.9C1830.1 729.1 1762.1 741.9 1694.4 737.7C1593 731.4 1494.3 651.6 1487.8 550.2C1483.4 480.7 1519.5 408.4 1494.4 343.4C1477.5 299.8 1434.8 269.6 1389.2 258.8C1343.7 248.1 1295.6 254.5 1250.6 267.3" stroke="white" stroke-width="2" stroke-miterlimit="10"/>
<path id="&#60;Path&#62;_90" d="M1306.1 2076.7C1248 2037.4 1242.7 1947.4 1277 1885.6C1310.5 1825.2 1370.6 1784.9 1424.6 1742.3C1478.1 1700.2 1529.6 1647.1 1536.6 1581.1C1545.6 1496.8 1479.7 1418 1489.4 1331.4C1497.2 1262.5 1548.7 1209.4 1605.2 1177.5C1637.6 1159.2 1676 1150.7 1711.3 1136.3C1860.7 1075.2 1995.1 1168.4 2089.6 1090.5C2191.1 1006.7 2188.2 912.5 2170.1 864.5C2147.2 803.8 2067.2 674 1909.7 706.3C1844.8 719.7 1777.4 730.5 1710.4 726C1611.5 719.6 1515.8 643.3 1507.2 545.6C1501.2 477.9 1533.9 406.6 1509.4 342.2C1492.6 298.2 1451.6 267.1 1407.4 254.1C1362.7 241.1 1314.9 244.3 1269.2 254.6" stroke="#FBFBFB" stroke-width="2" stroke-miterlimit="10"/>
<path id="&#60;Path&#62;_91" d="M1310.7 2076.4C1252.6 2033.9 1244.8 1942.4 1279.2 1878C1312 1816.6 1372.7 1775.3 1427.9 1733.6C1481.8 1692.9 1533.9 1642.8 1543.7 1579.2C1556 1497.9 1496.3 1419.8 1506.6 1333.6C1515 1263.7 1562.6 1208.9 1617.2 1173.8C1649.2 1153.3 1687.9 1142.1 1724.3 1126.6C1868.6 1065.5 1999.9 1153.5 2092.4 1077.5C2191.1 996.2 2190.7 904.5 2173.7 856.2C2152.5 795.8 2075.1 671.2 1923.2 698.7C1859.5 710.2 1792.7 719 1726.3 714.3C1630.1 707.7 1537.3 635 1526.5 540.9C1519 475.1 1548.4 404.8 1524.4 341C1507.7 296.5 1468.3 264.5 1425.5 249.4C1381.8 234.1 1334.2 234 1287.9 241.9" stroke="#F6F6F6" stroke-width="2" stroke-miterlimit="10"/>
<path id="&#60;Path&#62;_92" d="M1315.2 2076.2C1257.3 2030.4 1246.9 1937.3 1281.5 1870.4C1313.6 1808.1 1374.8 1765.8 1431.1 1725C1485.5 1685.6 1538.3 1638.4 1550.7 1577.2C1566.4 1499 1513 1421.5 1523.8 1335.8C1532.8 1264.9 1576.5 1208.3 1629.3 1170.1C1660.8 1147.3 1699.8 1133.4 1737.3 1117C1876.5 1055.9 2004.6 1138.6 2095.1 1064.5C2191 985.7 2193.1 896.5 2177.3 847.9C2157.8 787.7 2083.1 668.3 1936.7 691.1C1874.2 700.8 1808.1 707.4 1742.3 702.5C1648.7 695.6 1558.8 626.6 1545.9 536.3C1536.8 472.3 1562.8 403 1539.4 339.8C1522.7 295 1485.1 261.9 1443.6 244.8C1400.8 227 1353.5 223.7 1306.6 229.3" stroke="#F2F2F2" stroke-width="2" stroke-miterlimit="10"/>
<path id="&#60;Path&#62;_93" d="M1319.8 2075.9C1261.9 2026.9 1249.1 1932.3 1283.7 1862.9C1315.2 1799.5 1376.8 1756.2 1434.4 1716.3C1489.2 1678.4 1542.7 1634.1 1557.8 1575.2C1576.8 1500.1 1529.7 1423.3 1541 1338.1C1550.6 1266.1 1590.4 1207.6 1641.4 1166.4C1672.4 1141.4 1711.7 1124.9 1750.4 1107.3C1884.5 1046.6 2009.3 1123.8 2097.9 1051.4C2191 975.2 2195.5 888.6 2180.9 839.6C2163.1 779.7 2090.9 665.4 1950.2 683.5C1888.9 691.4 1823.4 695.9 1758.2 690.8C1667.3 683.7 1580.2 618.3 1565.2 531.6C1554.5 469.5 1577.2 401.3 1554.4 338.6C1537.8 293.4 1501.9 259.3 1461.8 240.1C1419.8 219.9 1372.7 213.4 1325.2 216.6" stroke="#EEEEEE" stroke-width="2" stroke-miterlimit="10"/>
<path id="&#60;Path&#62;_94" d="M1324.3 2075.7C1266.6 2023.4 1251.3 1927.3 1285.9 1855.3C1316.9 1791 1378.9 1746.6 1437.6 1707.7C1492.9 1671.1 1547.2 1629.8 1564.8 1573.3C1587.4 1501.3 1546.5 1425.1 1558.3 1340.3C1568.4 1267.3 1604.3 1206.8 1653.5 1162.6C1683.9 1135.4 1723.6 1116.3 1763.4 1097.7C1892.6 1037.4 2014 1108.9 2100.7 1038.4C2191 964.8 2197.8 880.6 2184.5 831.3C2168.4 771.7 2098.6 662.3 1963.7 675.9C1903.5 681.9 1838.7 684.4 1774.2 679.1C1685.9 671.8 1601.5 609.9 1584.6 527C1572.2 466.6 1591.7 399.5 1569.3 337.4C1552.9 291.8 1518.6 256.7 1479.9 235.4C1438.9 212.8 1392 203.2 1343.9 203.9" stroke="#E9E9E9" stroke-width="2" stroke-miterlimit="10"/>
<path id="&#60;Path&#62;_95" d="M1328.9 2075.4C1271.3 2019.9 1253.5 1922.3 1288.2 1847.7C1318.5 1782.5 1380.9 1737 1440.9 1699C1496.6 1663.8 1551.5 1625.4 1571.9 1571.3C1597.8 1502.4 1563.2 1426.8 1575.5 1342.5C1586.3 1268.5 1618.1 1205.9 1665.6 1158.9C1695.5 1129.3 1735.4 1107.7 1776.4 1088C1900.7 1028.3 2018.7 1094 2103.5 1025.4C2190.9 954.3 2200.2 872.7 2188.1 823C2173.7 763.7 2106.3 659.1 1977.2 668.3C1918 672.5 1854 672.9 1790.1 667.3C1704.5 659.9 1622.8 601.5 1603.9 522.3C1589.9 463.7 1606.1 397.7 1584.3 336.2C1568 290.2 1535.3 254 1498.1 230.7C1457.9 205.6 1411.3 192.9 1362.6 191.2" stroke="#E5E5E5" stroke-width="2" stroke-miterlimit="10"/>
<path id="&#60;Path&#62;_96" d="M1333.4 2075.2C1275.9 2016.4 1255.7 1917.3 1290.4 1840.2C1320.2 1774 1383 1727.4 1444.2 1690.4C1500.3 1656.4 1555.9 1621.1 1579 1569.3C1608.3 1503.5 1580 1428.6 1592.7 1344.7C1604.1 1269.8 1631.9 1205.1 1677.7 1155.2C1707 1123.2 1747.3 1099.2 1789.5 1078.4C1908.8 1019.3 2023.5 1079.1 2106.3 1012.4C2190.9 943.8 2202.6 864.7 2191.7 814.7C2178.9 755.8 2112.2 639.3 1990.7 660.6C1933.4 670.7 1869.3 661.4 1806.1 655.6C1723 648 1644.1 593 1623.3 517.7C1607.6 460.8 1620.6 395.9 1599.3 335C1583.1 288.6 1552.1 251.3 1516.2 226C1476.9 198.4 1430.6 182.6 1381.2 178.5" stroke="#E1E1E1" stroke-width="2" stroke-miterlimit="10"/>
<path id="&#60;Path&#62;_97" d="M1338 2075C1280.6 2012.9 1257.9 1912.3 1292.6 1832.6C1321.9 1765.5 1385 1717.7 1447.4 1681.7C1503.9 1649.1 1560.3 1616.7 1586 1567.4C1618.7 1504.6 1596.8 1430.3 1610 1347C1622 1271 1645.7 1204.1 1689.8 1151.5C1718.5 1117.1 1759.2 1090.7 1802.5 1068.7C1917 1010.5 2028.2 1064.3 2109 999.4C2190.9 933.3 2204.9 856.8 2195.3 806.4C2184.1 747.8 2120 634.4 2004.2 653C1947.7 662.1 1884.6 649.9 1822.1 643.9C1741.6 636.1 1665.2 584.6 1642.6 513C1625.2 457.9 1635 394.1 1614.3 333.8C1598.2 286.9 1568.9 248.5 1534.3 221.4C1495.9 191.2 1449.9 172.3 1399.9 165.8" stroke="#DCDCDC" stroke-width="2" stroke-miterlimit="10"/>
<path id="&#60;Path&#62;_98" d="M1342.5 2074.7C1285.3 2009.4 1260.2 1907.3 1294.9 1825C1323.6 1757.1 1387 1708.1 1450.7 1673.1C1507.6 1641.7 1564.7 1612.4 1593.1 1565.4C1629.1 1505.8 1613.6 1432.1 1627.2 1349.2C1639.8 1272.2 1659.4 1203.2 1701.8 1147.8C1730 1111 1771.2 1082.2 1815.6 1059C1925.3 1001.8 2032.9 1049.4 2111.8 986.4C2190.8 922.9 2207.2 848.9 2198.9 798.1C2189.3 739.8 2127.9 629.7 2017.7 645.4C1962 653.3 1899.9 638.4 1838 632.1C1760.2 624.3 1686.3 576.2 1662 508.4C1642.8 455 1649.5 392.3 1629.3 332.6C1613.3 285.3 1585.7 245.7 1552.5 216.7C1515 183.9 1469.2 162.1 1418.6 153.2" stroke="#D8D8D8" stroke-width="2" stroke-miterlimit="10"/>
<path id="&#60;Path&#62;_99" d="M1347.1 2074.5C1289.9 2005.9 1262.4 1902.3 1297.1 1817.4C1325.3 1748.6 1389 1698.4 1453.9 1664.4C1511.2 1634.4 1569 1608.1 1600.1 1563.5C1639.5 1506.9 1630.4 1433.9 1644.4 1351.4C1657.7 1273.4 1673.1 1202.2 1713.9 1144C1741.5 1104.8 1783.1 1073.8 1828.6 1049.4C1933.6 993.2 2037.6 1034.5 2114.6 973.4C2190.8 912.4 2209.5 841 2202.5 789.8C2194.5 731.9 2135.9 625.2 2031.2 637.8C1976.1 644.4 1915.2 626.9 1854 620.4C1778.8 612.4 1707.4 567.7 1681.3 503.8C1660.3 452 1664 390.5 1644.3 331.4C1628.4 283.7 1602.5 242.9 1570.6 212C1534.1 176.6 1488.4 151.8 1437.2 140.5" stroke="#D4D4D4" stroke-width="2" stroke-miterlimit="10"/>
<path id="&#60;Path&#62;_100" d="M1351.6 2074.2C1294.6 2002.4 1264.7 1897.3 1299.4 1809.9C1327 1740.1 1391 1688.7 1457.2 1655.8C1514.8 1627 1573.4 1603.7 1607.2 1561.5C1649.9 1508 1647.2 1435.6 1661.7 1353.6C1675.6 1274.6 1686.7 1201.1 1726 1140.3C1752.9 1098.7 1795 1065.3 1841.6 1039.7C1941.9 984.7 2042.3 1019.6 2117.4 960.3C2190.8 901.9 2211.8 833.1 2206.1 781.5C2199.7 723.9 2143.8 640.7 2044.7 630.2C1990.2 624.4 1930.5 615.5 1869.9 608.7C1797.4 600.5 1728.3 559.3 1700.7 499.1C1677.7 449.1 1678.5 388.7 1659.3 330.2C1643.6 282.1 1619.3 240 1588.7 207.3C1553.2 169.3 1507.7 141.5 1455.9 127.8" stroke="#CFCFCF" stroke-width="2" stroke-miterlimit="10"/>
<path id="&#60;Path&#62;_101" d="M1356.2 2074C1299.2 1998.9 1267 1892.4 1301.6 1802.3C1328.7 1731.6 1393 1679 1460.4 1647.1C1518.4 1619.6 1577.8 1599.4 1614.2 1559.5C1660.3 1509.1 1664 1437.4 1678.9 1355.9C1693.5 1275.8 1700.3 1200.1 1738.1 1136.6C1764.3 1092.5 1807 1056.9 1854.7 1030.1C1950.3 976.2 2047.2 1004.9 2120.2 947.3C2190.8 891.6 2214.1 825.1 2209.7 773.2C2204.8 716 2151.1 636.4 2058.2 622.6C2004.6 614.6 1945.8 604 1885.9 596.9C1815.9 588.7 1749.1 550.9 1720 494.5C1695.1 446.2 1693 386.8 1674.3 329C1658.7 280.5 1636.2 237.2 1606.9 202.6C1572.3 161.9 1527 131.3 1474.6 115.1" stroke="#CBCBCB" stroke-width="2" stroke-miterlimit="10"/>
<path id="&#60;Path&#62;_102" d="M1360.7 2073.7C1303.9 1995.4 1269.3 1887.4 1303.8 1794.7C1330.5 1723.2 1395 1669.3 1463.7 1638.4C1522 1612.2 1582.1 1595 1621.3 1557.6C1670.7 1510.3 1680.8 1439.1 1696.1 1358.1C1711.4 1277.1 1713.9 1199.1 1750.2 1132.9C1775.7 1086.3 1819 1048.6 1867.7 1020.4C1958.7 967.8 2051.9 990 2123 934.3C2190.8 881.1 2216.3 817.2 2213.2 764.9C2209.9 708 2158.5 631.9 2071.7 614.9C2018.9 604.7 1961.1 592.6 1901.8 585.2C1834.5 576.9 1769.9 542.5 1739.4 489.8C1712.4 443.3 1707.5 385 1689.3 327.8C1673.8 278.9 1653.1 234.3 1625 197.9C1591.5 154.6 1546.3 121 1493.2 102.4" stroke="#C7C7C7" stroke-width="2" stroke-miterlimit="10"/>
<path id="&#60;Path&#62;_103" d="M1365.3 2073.5C1308.6 1991.9 1271.6 1882.4 1306.1 1787.2C1332.3 1714.7 1396.9 1659.6 1466.9 1629.8C1525.7 1604.8 1586.5 1590.7 1628.3 1555.6C1681.1 1511.4 1697.7 1440.9 1713.4 1360.3C1729.3 1278.3 1727.4 1198.1 1762.3 1129.2C1787.1 1080.1 1831 1040.3 1880.7 1010.8C1967.2 959.5 2056.6 975.2 2125.7 921.3C2190.8 870.6 2218.6 809.3 2216.8 756.6C2215 700 2165.9 627.2 2085.1 607.3C2033.3 594.6 1976.4 581.1 1917.8 573.5C1853.1 565.1 1790.5 534.2 1758.7 485.2C1729.7 440.4 1722 383.2 1704.3 326.6C1688.9 277.3 1670 231.4 1643.2 193.3C1610.7 147.2 1565.6 110.7 1511.9 89.7" stroke="#C2C2C2" stroke-width="2" stroke-miterlimit="10"/>
<path id="&#60;Path&#62;_104" d="M1369.8 2073.2C1313.2 1988.4 1274 1877.5 1308.3 1779.6C1334 1706.3 1398.9 1649.8 1470.2 1621.1C1529.3 1597.3 1590.8 1586.3 1635.4 1553.6C1691.5 1512.5 1714.5 1442.7 1730.6 1362.6C1747.2 1279.5 1740.9 1197 1774.3 1125.4C1798.4 1073.9 1843 1032 1893.8 1001.1C1975.7 951.2 2061.3 960.3 2128.5 908.3C2190.7 860.1 2220.8 801.4 2220.4 748.2C2220.1 692.1 2173.3 622.2 2098.6 599.7C2047.7 584.4 1991.7 569.7 1933.8 561.8C1871.7 553.3 1811.1 525.9 1778.1 480.5C1746.8 437.7 1736.5 381.4 1719.3 325.4C1704.1 275.7 1687 228.5 1661.3 188.6C1630 139.8 1584.9 100.4 1530.6 77.1001" stroke="#BEBEBE" stroke-width="2" stroke-miterlimit="10"/>
<path id="&#60;Path&#62;_105" d="M1374.4 2073C1317.9 1984.9 1276.3 1872.5 1310.5 1772C1335.8 1697.8 1400.9 1640.1 1473.4 1612.5C1532.9 1589.9 1595.2 1582 1642.5 1551.7C1701.9 1513.6 1731.4 1444.5 1747.8 1364.8C1765.2 1280.7 1754.4 1196 1786.4 1121.7C1809.7 1067.8 1855.1 1023.8 1906.8 991.5C1984.2 943 2066 945.4 2131.3 895.3C2190.7 849.7 2223 793.5 2224 739.9C2225.1 684.1 2180.9 617 2112.1 592.1C2062.2 574 2007 558.3 1949.7 550C1890.2 541.5 1831.6 517.7 1797.4 475.9C1763.9 434.9 1751 379.6 1734.3 324.2C1719.2 274 1703.9 225.6 1679.4 183.9C1649.2 132.4 1604.2 90.1999 1549.2 64.3999" stroke="#BABABA" stroke-width="2" stroke-miterlimit="10"/>
<path id="&#60;Path&#62;_106" d="M1378.9 2072.8C1322.5 1981.4 1278.7 1867.6 1312.8 1764.5C1337.6 1689.4 1402.8 1630.3 1476.7 1603.8C1536.5 1582.4 1599.5 1577.5 1649.5 1549.7C1712.3 1514.5 1748.2 1446.2 1765 1367C1783.1 1282 1767.9 1195 1798.5 1118C1821 1061.6 1867.3 1015.7 1919.9 981.8C1992.8 934.8 2070.7 930.4 2134.1 882.3C2190.5 839.1 2225.1 785.6 2227.6 731.6C2230.2 676.2 2188.6 611.6 2125.6 584.5C2076.8 563.4 2022.3 546.9 1965.7 538.3C1908.8 529.7 1852.1 509.6 1816.8 471.2C1781 432.3 1765.5 377.8 1749.3 323C1734.3 272.4 1720.9 222.7 1697.6 179.2C1668.5 125.1 1623.4 79.9 1567.9 51.7" stroke="#B5B5B5" stroke-width="2" stroke-miterlimit="10"/>
<path id="&#60;Path&#62;_107" d="M1383.5 2072.5C1327.2 1977.9 1281.1 1862.6 1315 1756.9C1339.4 1680.9 1404.8 1620.5 1479.9 1595.2C1540.1 1574.9 1603.8 1573.2 1656.6 1547.8C1722.7 1515.7 1765.1 1448 1782.3 1369.2C1801 1283.2 1781.3 1194 1810.6 1114.3C1832.3 1055.4 1879.4 1007.6 1932.9 972.1C2001.4 926.6 2075.4 915.5 2136.9 869.2C2190.5 828.6 2227.3 777.6 2231.2 723.3C2235.2 668.2 2196.5 606.1 2139.1 576.9C2091.5 552.6 2037.6 535.5 1981.6 526.6C1927.4 517.9 1872.5 501.6 1836.1 466.6C1797.9 429.8 1780 376 1764.3 321.8C1749.5 270.8 1737.9 219.9 1715.7 174.5C1687.9 117.7 1642.7 69.6 1586.6 39" stroke="#B1B1B1" stroke-width="2" stroke-miterlimit="10"/>
<path id="&#60;Path&#62;_108" d="M1388 2072.3C1331.9 1974.4 1283.5 1857.7 1317.3 1749.3C1341.2 1672.5 1406.7 1610.6 1483.2 1586.5C1543.7 1567.5 1608.2 1568.8 1663.6 1545.8C1733.1 1516.8 1782.1 1449.8 1799.5 1371.5C1819.2 1284.5 1794.7 1193 1822.7 1110.6C1843.5 1049.2 1891.7 999.7 1945.9 962.5C2010.1 918.5 2080.1 900.6 2139.6 856.2C2190.5 818.1 2229.4 769.7 2234.8 715C2240.2 660.2 2204.6 600.4 2152.6 569.3C2106.5 541.6 2052.8 524.1 1997.6 514.8C1945.9 506.2 1892.9 493.8 1855.5 461.9C1814.8 427.5 1794.6 374.1 1779.3 320.6C1764.7 269.1 1754.9 217 1733.8 169.8C1707.2 110.3 1662 59.3 1605.3 26.3" stroke="#ADADAD" stroke-width="2" stroke-miterlimit="10"/>
<path id="&#60;Path&#62;_109" d="M1392.6 2072C1336.5 1970.9 1286.1 1852.8 1319.5 1741.8C1343.1 1664 1408.7 1600.8 1486.4 1577.9C1547.3 1559.9 1612.6 1564.5 1670.7 1543.8C1743.5 1517.9 1798.9 1451.6 1816.7 1373.7C1837.1 1285.7 1808.1 1192 1834.8 1106.8C1854.8 1043 1904 991.8 1959 952.8C2018.8 910.4 2084.8 885.8 2142.4 843.2C2190.4 807.6 2231.5 761.7 2238.4 706.7C2245.2 652.2 2213 594.7 2166.1 561.6C2121.8 530.4 2068.1 512.8 2013.6 503.1C1964.5 494.4 1913.4 486 1874.8 457.3C1831.7 425.3 1809.1 372.3 1794.3 319.4C1779.9 267.5 1772 214.1 1752 165.2C1726.6 102.9 1681.3 49.1001 1623.9 13.6001" stroke="#A8A8A8" stroke-width="2" stroke-miterlimit="10"/>
<path id="&#60;Path&#62;_110" d="M1397.1 2071.8C1341.2 1967.4 1288.4 1847.8 1321.7 1734.2C1344.8 1655.5 1410.6 1590.9 1489.7 1569.2C1550.9 1552.4 1617 1560.1 1677.7 1541.9C1753.9 1519 1815.7 1453.4 1834 1375.9C1854.9 1286.9 1821.5 1191 1846.9 1103.1C1866 1036.9 1916.5 984 1972 943.2C2027.6 902.4 2089.5 870.9 2145.2 830.2C2190.4 797.2 2233.6 753.8 2242 698.4C2250.2 644.2 2221.8 589.1 2179.6 554C2137.4 519 2083.4 501.4 2029.5 491.4C1983 482.7 1933.8 478.3 1894.2 452.7C1848.6 423.2 1823.6 370.5 1809.3 318.2C1795 265.9 1789 211.3 1770.1 160.5C1746 95.6 1700.6 38.8 1642.6 1" stroke="#A4A4A4" stroke-width="2" stroke-miterlimit="10"/>
</g>
</g>
</g>
</svg>
