<svg width="1500" height="1000" viewBox="0 0 1500 1000" fill="none" xmlns="http://www.w3.org/2000/svg">
<g id="background" clip-path="url(#clip0_30_2)">
<g id="OBJECTS">
<g id="Clip path group">
<mask id="mask0_30_2" style="mask-type:luminance" maskUnits="userSpaceOnUse" x="0" y="0" width="1500" height="1000">
<g id="cp1">
<path id="Vector" d="M1500 1000H0V0H1500V1000Z" fill="white"/>
</g>
</mask>
<g mask="url(#mask0_30_2)">
<g id="&#60;Clip Group&#62;">
<g id="&#60;Group&#62;">
<g id="&#60;Group&#62;_2" style="mix-blend-mode:multiply">
<path id="&#60;Path&#62;" d="M853.4 -104.6C841.3 -52.9001 826.2 -1.90009 808 47.9999C799.9 70.1999 791 92.5999 775.4 110.3C735.5 155.6 665.8 157 606.3 147.2C551.5 138.1 497.7 122.5 446.6 100.8C395.9 79.2999 346.9 51.4999 292.6 42.3999C238.2 33.2999 175.1 47.8999 145.8 94.5999C128.4 122.3 125.6 157.5 132.4 189.5C139.2 221.6 154.8 251.1 172.1 278.9C192 310.7 215 343 217.9 380.4C221 419.1 199.6 458.7 165.6 477.3C117.1 503.8 57.8 487.2 3.39999 477.3C-65.6 464.7 -139.7 464.8 -202.8 495.6C-265.8 526.3 -314.6 593.2 -308.1 663.1" stroke="white" stroke-width="2" stroke-miterlimit="10"/>
<path id="&#60;Path&#62;_2" d="M841.2 -115.1C829.4 -64.5001 814.5 -14.7001 796.6 33.9999C788.6 55.5999 779.7 77.4999 764.5 94.8999C725.7 139.2 658.2 141.7 600.4 133.2C586.6 131.2 572.933 128.767 559.4 125.9C520.2 117.8 481.8 106.1 444.7 91.1999C395.2 71.1999 347.2 45.1999 294.1 36.7999C241 28.4999 181.2 43.7999 150.3 87.0999C138.7 103.4 130.7 121 127.4 140C125.1 152.9 124.6 166.4 125.9 179.7C126.5 185.767 127.467 191.867 128.8 198C134.1 222.5 145.5 246.5 157.8 269.2C159.067 271.467 160.3 273.733 161.5 276C180.9 310.9 201.3 346.7 202.5 385.8C203.5 423.4 183.7 461.7 150.5 480.1C103.3 506.2 45.7 491.3 -6.90002 482.9C-11.0334 482.233 -15.2 481.633 -19.4 481.1C-82.5 472.6 -148.5 476.1 -204.8 505.2C-264.8 536.2 -310.7 601.7 -303.4 669.6" stroke="#F9F9F9" stroke-width="2" stroke-miterlimit="10"/>
<path id="&#60;Path&#62;_3" d="M828.9 -125.5C817.5 -76.1002 802.8 -27.5002 785.1 19.9998C777.2 41.0998 768.5 62.3997 753.7 79.3997C715.9 122.8 650.7 126.3 594.5 119.2C581.1 117.533 567.8 115.466 554.6 113C516.5 105.8 479 95.2998 442.8 81.4998C394.5 63.1998 347.5 38.8998 295.7 31.2998C243.8 23.6998 186.9 39.4998 154.8 79.6998C141.8 95.8998 131.2 111.9 125.5 130.3C121.6 142.8 119.5 156.2 119.4 169.9C119.333 176.166 119.733 182.533 120.6 189C123.9 214.9 135.2 241 147.3 265.8C148.5 268.2 149.7 270.633 150.9 273.1C169.8 311.2 187.8 350.2 187 391.2C186.3 427.7 167.7 464.7 135.4 482.9C89.5 508.6 33.6 495.3 -17.2 488.5C-21.2 487.966 -25.2 487.466 -29.2 487C-90.2 480.4 -153.4 485.4 -206.8 514.8C-263.8 546.1 -306.8 610.1 -298.7 676" stroke="#F4F4F4" stroke-width="2" stroke-miterlimit="10"/>
<path id="&#60;Path&#62;_4" d="M816.7 -136C805.5 -87.7002 791.1 -40.3002 773.7 5.99976C765.9 26.4998 757.3 47.2997 742.9 63.8997C706.1 106.4 643.1 110.9 588.5 105.2C575.567 103.866 562.667 102.133 549.8 99.9998C512.8 93.8998 476.3 84.3997 441 71.8997C393.8 55.1997 347.8 32.6998 297.2 25.7998C246.6 18.8998 192.4 35.1998 159.2 72.1998C144.8 88.3998 131.6 102.7 123.6 120.5C118.2 132.7 114.3 146 112.9 160.1C112.2 166.5 112 173.1 112.3 179.9C113.7 207.2 124.9 235.6 136.8 262.3C138 264.966 139.167 267.6 140.3 270.2C158.8 311.4 174.3 353.7 171.5 396.6C169.2 431.9 151.8 467.8 120.4 485.6C75.7 511 21.6 499.4 -27.5 494.1C-31.3667 493.7 -35.2333 493.333 -39.1 493C-97.9 488.2 -158.2 494.8 -208.9 524.4C-262.8 556 -302.9 618.5 -294.1 682.5" stroke="#EEEEEE" stroke-width="2" stroke-miterlimit="10"/>
<path id="&#60;Path&#62;_5" d="M804.4 -146.4C793.6 -99.4001 779.4 -53.1002 762.2 -8.00015C754.5 11.9998 746 32.1998 732 48.3998C696.3 89.9998 635.6 95.4999 582.6 91.2999C570.067 90.2332 557.533 88.8332 545 87.0999C509.1 81.8999 473.6 73.5999 439.1 62.2999C393 47.0999 348.1 26.3998 298.8 20.1998C249.4 14.0998 197.5 30.6999 163.7 64.7999C147.7 80.8999 132 93.4999 121.8 110.8C114.8 122.6 109.2 135.8 106.3 150.2C105 156.8 104.2 163.7 104.1 170.9C103.5 199.6 114.6 230.2 126.3 258.8C127.433 261.667 128.567 264.5 129.7 267.3C147.7 311.6 160.9 357 156 402C152.4 436 135.8 470.8 105.3 488.4C61.8 513.4 9.5 503.4 -37.8 499.7C-41.5333 499.433 -45.2667 499.2 -49 499C-105.6 496.1 -163.1 504.2 -210.9 534.1C-261.8 565.9 -299 627 -289.4 688.9" stroke="#E9E9E9" stroke-width="2" stroke-miterlimit="10"/>
<path id="&#60;Path&#62;_6" d="M792.2 -156.9C781.7 -111 767.8 -65.9002 750.7 -22.0002C743.2 -2.60015 734.8 17.0998 721.2 32.9998C686.4 73.5998 628 80.0999 576.7 77.2999C564.5 76.6332 552.367 75.5665 540.3 74.0999C505.4 69.9999 470.8 62.7999 437.2 52.5999C392.3 39.0999 348.4 20.0998 300.3 14.6998C252.2 9.29984 202.3 26.0998 168.1 57.3998C150.6 73.3998 132.5 84.2999 119.9 101.1C111.3 112.5 104.1 125.7 99.8 140.4C97.8 147.2 96.4 154.3 95.8 161.9C93.3 191.9 104.3 224.7 115.7 255.4C116.833 258.4 117.967 261.433 119.1 264.5C136.7 311.8 147.5 360.3 140.6 407.4C135.7 440.2 119.9 473.9 90.2 491.2C48 515.8 -2.50004 507.5 -48.1 505.3C-51.7 505.166 -55.3 505.067 -58.9 505C-113.3 503.9 -168 513.5 -212.9 543.7C-260.8 575.8 -295.1 635.4 -284.7 695.4" stroke="#E3E3E3" stroke-width="2" stroke-miterlimit="10"/>
<path id="&#60;Path&#62;_7" d="M780 -167.3C769.7 -122.6 756.1 -78.7003 739.3 -36.1003C731.8 -17.1003 723.5 1.89971 710.3 17.4997C676.6 57.1997 620.4 64.6997 570.8 63.2997C559 62.9664 547.233 62.2664 535.5 61.1997C501.6 58.0997 468.1 51.9997 435.3 42.9997C391.6 30.9997 348.7 13.7997 301.9 9.19971C255 4.49971 206.9 21.3997 172.6 49.8997C153.3 65.8997 132.9 75.0997 118 91.3997C107.9 102.4 99 115.5 93.3 130.6C90.7 137.5 88.7 144.9 87.5 152.8C83 184.3 94 219.3 105.2 251.9C106.333 255.1 107.433 258.333 108.5 261.6C125.6 312.1 134.3 363.5 125.1 412.8C119.2 444.3 103.9 476.9 75.1 493.9C34.2 518.2 -14.6 511.5 -58.4 511C-61.8667 510.933 -65.3334 510.933 -68.8 511C-121 511.7 -172.9 522.9 -215 553.3C-259.8 585.7 -291.2 643.9 -280 701.9" stroke="#DEDEDE" stroke-width="2" stroke-miterlimit="10"/>
<path id="&#60;Path&#62;_8" d="M767.7 -177.8C757.8 -134.2 744.4 -91.5003 727.8 -50.1003C720.5 -31.6003 712.3 -13.2003 699.5 1.99971C666.8 40.7997 612.9 49.3997 564.9 49.2997C553.5 49.2997 542.1 48.933 530.7 48.1997C497.9 46.0997 465.4 41.0997 433.5 33.3997C390.9 22.9997 349 7.49972 303.4 3.59972C257.8 -0.300284 206.2 10.7997 177.1 42.4997C153.6 54.3997 133.3 65.9997 116.2 81.5997C104.5 92.2997 93.9 105.3 86.8 120.8C83.5 127.9 80.9 135.5 79.3 143.8C72.8 176.7 83.7 213.9 94.7 248.4C95.7667 251.8 96.8333 255.233 97.9 258.7C114.6 312.3 121.2 366.6 109.6 418.2C102.8 448.5 87.9 479.9 60.1 496.7C20.4 520.6 -26.7 515.6 -68.7 516.6C-72.0333 516.666 -75.3333 516.766 -78.6 516.9C-128.7 519.5 -177.8 532.2 -217 562.9C-258.8 595.6 -287.3 652.3 -275.3 708.3" stroke="#D8D8D8" stroke-width="2" stroke-miterlimit="10"/>
<path id="&#60;Path&#62;_9" d="M755.5 -188.3C745.9 -145.8 732.7 -104.3 716.4 -64.1003C709.1 -46.2003 701.1 -28.3003 688.6 -13.5003C657 24.2997 605.3 33.9997 559 35.2997C548 35.633 536.967 35.5997 525.9 35.1997C494.2 34.1997 462.6 30.2997 431.6 23.6997C390.2 14.9997 349.3 1.19972 305 -1.90028C260.6 -5.10028 210.6 5.49971 181.5 34.9997C156.1 46.2997 133.7 56.7997 114.3 71.8997C101 82.1997 88.8 95.0997 80.3 111C76.3 118.2 73.2 126.1 71 134.8C62.6 169 73.4 208.5 84.2 245C85.2666 248.6 86.3 252.2 87.3 255.8C103.5 312.5 108.2 369.8 94.0999 423.6C86.4999 452.6 72 483 45 499.5C6.59997 523 -38.7 519.6 -79 522.2C-82.2 522.4 -85.3667 522.633 -88.5 522.9C-136.5 527.3 -182.7 541.6 -219 572.6C-257.8 605.5 -283.4 660.7 -270.6 714.8" stroke="#D2D2D2" stroke-width="2" stroke-miterlimit="10"/>
<path id="&#60;Path&#62;_10" d="M743.2 -198.7C734 -157.4 721 -117.1 704.9 -78.1002C697.8 -60.7002 689.8 -43.4002 677.8 -28.9002C647.2 7.89981 597.8 18.5998 553.1 21.2998C542.433 21.9665 531.8 22.2998 521.2 22.2998C490.5 22.2998 459.9 19.4998 429.7 14.0998C389.5 6.89981 349.7 -5.1002 306.5 -7.5002C263.4 -9.9002 215 0.199808 186 27.5998C158.7 38.2998 134.2 47.5998 112.5 62.1998C97.6 72.0998 83.7 84.9998 73.7 101.2C69.1 108.6 65.4 116.7 62.8 125.7C52.4 161.4 63.1 203 73.6 241.5C74.6667 245.3 75.7 249.1 76.7 252.9C92.4 312.7 95.4 373 78.6 429C70.4 456.8 56 486 29.9 502.3C-7.19997 525.4 -50.8 523.7 -89.3 527.8C-92.3667 528.133 -95.4 528.5 -98.4 528.9C-144.2 535.1 -187.5 551 -221.1 582.2C-256.8 615.4 -279.5 669.2 -265.9 721.2" stroke="#CDCDCD" stroke-width="2" stroke-miterlimit="10"/>
<path id="&#60;Path&#62;_11" d="M731 -209.2C722 -169 709.4 -129.8 693.5 -92.1002C686.4 -75.3002 678.6 -58.5002 667 -44.4002C637.3 -8.50021 590.2 3.1998 547.2 7.2998C536.933 8.2998 526.667 8.96647 516.4 9.2998C486.8 10.2998 457.1 8.6998 427.9 4.4998C388.8 -1.1002 350 -11.3002 308.1 -13.0002C266.2 -14.7002 219.5 -5.10019 190.5 20.0998C161.3 30.1998 134.6 38.3998 110.6 52.3998C94.0999 61.9998 78.5 74.7998 67.2 91.2998C62 98.8998 57.6 107.4 54.5 116.7C42.2 153.7 52.7999 197.6 63.0999 238C64.0999 242 65.0999 246 66.0999 250C81.3999 312.9 82.7 376.2 63.2 434.4C54.3 460.9 40.1 489.1 14.9 505C-21.1 527.8 -62.9 527.7 -99.6 533.4C-102.533 533.867 -105.433 534.367 -108.3 534.9C-151.9 542.9 -192.4 560.3 -223.1 591.8C-255.8 625.3 -275.6 677.6 -261.2 727.7" stroke="#C7C7C7" stroke-width="2" stroke-miterlimit="10"/>
<path id="&#60;Path&#62;_12" d="M718.7 -219.6C710.1 -180.7 697.7 -142.6 682 -106.1C675.1 -89.8001 667.3 -73.6001 656.1 -59.9001C627.5 -24.9001 582.6 -12.2001 541.3 -6.70009C531.433 -5.36676 521.533 -4.33343 511.6 -3.6001C483.1 -1.6001 454.4 -2.20009 426 -5.20009C388.1 -9.20009 350.3 -17.6001 309.6 -18.5001C269 -19.5001 223.9 -10.4001 194.9 12.6999C163.9 22.0999 135 29.1999 108.7 42.6999C90.7 51.8999 73.4 64.5999 60.7 81.4999C54.8 89.2999 49.9 97.9999 46.2 107.6C31.9 146.1 42.5 192.2 52.6 234.5C53.6 238.7 54.5667 242.933 55.5 247.2C70.3 313.2 70.2 379.5 47.7 439.9C38.3 465.1 24.1 492.1 -0.199982 507.8C-34.9 530.2 -74.9 531.8 -109.9 539C-112.633 539.6 -115.4 540.233 -118.2 540.9C-159.6 550.7 -197.3 569.7 -225.1 601.4C-254.8 635.2 -271.7 686.1 -256.5 734.2" stroke="#C2C2C2" stroke-width="2" stroke-miterlimit="10"/>
<path id="&#60;Path&#62;_13" d="M706.5 -230.1C698.2 -192.3 686 -155.4 670.6 -120.1C663.7 -104.4 656.1 -88.7001 645.3 -75.4001C617.7 -41.3001 575.1 -27.5001 535.3 -20.6001C525.9 -19.0001 516.433 -17.6668 506.9 -16.6001C479.4 -13.6001 451.7 -13.0001 424.1 -14.8001C387.4 -17.2001 350.6 -23.9001 311.2 -24.1001C271.8 -24.3001 228.3 -15.7001 199.4 5.19991C166.5 13.9999 135.5 20.0999 106.9 32.9999C87.3 41.7999 68.3 54.3999 54.2 71.6999C47.6 79.5999 42.1 88.5999 38 98.5999C21.7 138.5 32.2 186.7 42.1 231.1C43.0333 235.5 43.9667 239.9 44.9 244.3C59.3 313.4 57.8 382.8 32.2 445.3C22.3 469.4 8.2 495.1 -15.3 510.6C-48.7 532.6 -87 535.9 -120.2 544.6C-122.8 545.333 -125.4 546.067 -128 546.8C-167.3 558.5 -202.2 579.1 -227.2 611C-253.8 645.1 -267.8 694.5 -251.8 740.6" stroke="#BCBCBC" stroke-width="2" stroke-miterlimit="10"/>
<path id="&#60;Path&#62;_14" d="M694.2 -240.6C686.2 -203.9 674.3 -168.2 659.1 -134.1C652.4 -118.9 644.8 -103.8 634.4 -90.8001C607.9 -57.7001 567.5 -42.9001 529.4 -34.6001C520.333 -32.6001 511.233 -30.9001 502.1 -29.5001C475.7 -25.5001 448.9 -23.8001 422.3 -24.4001C386.7 -25.3001 350.9 -30.2001 312.7 -29.6001C274.6 -29.1001 235.6 -15.7001 203.9 -2.20009C171 11.7999 135.9 10.8999 105 23.2999C83.8 31.6999 63.2 44.2999 47.6 61.8999C40.4 69.9999 34.3 79.1999 29.7 89.5999C11.5 130.8 22 181.3 31.5 227.6C32.5 232.2 33.4333 236.8 34.3 241.4C48.2 313.6 45.7 386.3 16.7 450.7C6.39998 473.6 -7.80002 498.2 -30.3 513.4C-62.5 535 -99.1 539.9 -130.5 550.3C-132.967 551.1 -135.433 551.933 -137.9 552.8C-175 566.3 -207.1 588.4 -229.2 620.7C-252.8 655 -263.9 702.9 -247.1 747.1" stroke="#B7B7B7" stroke-width="2" stroke-miterlimit="10"/>
<path id="&#60;Path&#62;_15" d="M682 -251C674.3 -215.5 662.6 -181 647.7 -148.1C641 -133.5 633.6 -119 623.6 -106.3C598.1 -74.1002 560 -58.3003 523.5 -48.6003C514.833 -46.2669 506.1 -44.2336 497.3 -42.5002C471.9 -37.4002 446.2 -34.7003 420.4 -34.1003C386 -33.3003 351.2 -36.5002 314.3 -35.2002C277.4 -33.9002 239.5 -21.5002 208.3 -9.70024C173.3 3.59976 136.3 1.69976 103.1 13.4998C80.4 21.5998 58.1 34.0998 41.1 52.0998C33.3 60.2998 26.6 69.7998 21.5 80.4998C1.29997 123.2 11.7 175.9 21 224.1C21.9333 228.9 22.8333 233.7 23.7 238.5C37.2 313.8 33.7 389.9 1.29996 456.1C-9.40004 477.9 -23.8 501.2 -45.4 516.1C-76.3 537.4 -111.1 544 -140.8 555.9C-143.133 556.833 -145.467 557.8 -147.8 558.8C-182.7 574.1 -211.9 597.8 -231.2 630.3C-251.8 664.9 -260 711.4 -242.4 753.5" stroke="#B1B1B1" stroke-width="2" stroke-miterlimit="10"/>
<path id="&#60;Path&#62;_16" d="M669.8 -261.5C662.4 -227.1 650.9 -193.8 636.2 -162.1C629.7 -148 622.4 -134.1 612.7 -121.8C588.2 -90.5002 552.4 -73.7003 517.6 -62.6003C509.333 -59.9336 500.967 -57.5669 492.5 -55.5002C468.2 -49.4002 443.4 -45.5002 418.5 -43.7002C385.2 -41.3002 351.5 -42.8002 315.8 -40.7002C280.2 -38.6002 243.5 -27.3003 212.8 -17.1003C175.6 -4.80025 136.8 -7.50026 101.3 3.79974C77 11.4997 53 23.8998 34.6 42.1998C26.1 50.6998 18.8 60.3998 13.2 71.4998C-8.89999 115.6 1.4 170.4 10.5 220.7C11.3667 225.633 12.2333 230.6 13.1 235.6C26.1 314.1 22 393.6 -14.2 461.5C-25.3 482.3 -39.7 504.3 -60.5 518.9C-90.1 539.8 -123.2 548 -151.1 561.5C-153.3 562.566 -155.5 563.666 -157.7 564.8C-190.4 582 -216.8 607.1 -233.3 639.9C-250.8 674.8 -256.1 719.8 -237.7 760" stroke="#ABABAB" stroke-width="2" stroke-miterlimit="10"/>
<path id="&#60;Path&#62;_17" d="M657.5 -271.9C650.4 -238.7 639.3 -206.6 624.8 -176.1C618.3 -162.5 611.1 -149.2 601.9 -137.3C578.4 -106.9 544.8 -89.1002 511.7 -76.6002C503.833 -73.6002 495.867 -70.8668 487.8 -68.4001C464.5 -61.3001 440.7 -56.3002 416.6 -53.3002C384.5 -49.4002 351.8 -49.0001 317.4 -46.2001C283 -43.4001 247.4 -33.2002 217.2 -24.5002C177.9 -13.3002 137.2 -16.6001 99.4 -5.90015C73.5 1.39985 47.9 13.6998 28.1 32.3998C18.9 40.9998 11 50.9998 5 62.3998C-19.2 107.9 -8.9 165 0 217.2C0.866667 222.333 1.7 227.5 2.5 232.7C15.1 314.3 10.4 397.5 -29.7 466.9C-41.1 486.6 -55.7 507.3 -75.6 521.7C-103.9 542.2 -135.3 552.1 -161.4 567.1C-163.467 568.3 -165.533 569.5 -167.6 570.7C-198.1 589.8 -221.7 616.5 -235.3 649.5C-249.8 684.7 -252.2 728.3 -233.1 766.5" stroke="#A6A6A6" stroke-width="2" stroke-miterlimit="10"/>
<path id="&#60;Path&#62;_18" d="M645.3 -282.4C638.5 -250.4 627.6 -219.4 613.3 -190.1C607 -177.1 599.9 -164.3 591 -152.7C568.6 -123.4 537.3 -104.5 505.8 -90.6002C498.267 -87.2668 490.667 -84.2001 483 -81.4001C460.8 -73.2001 438 -67.1002 414.8 -63.0002C383.8 -57.4002 352.1 -55.3002 318.9 -51.8002C285.8 -48.2002 251.5 -39.1002 221.7 -32.0002C180.2 -22.0002 137.6 -25.8002 97.5 -15.7002C70.1 -8.70016 42.7 3.59985 21.5 22.5999C11.8 31.3999 3.30003 41.5998 -3.29997 53.3998C-29.4 100.3 -19.2 159.6 -10.6 213.7C-9.73329 219.1 -8.89996 224.5 -8.09996 229.9C4.00004 314.5 -0.899967 401.6 -45.2 472.3C-56.9 491.1 -71.6 510.3 -90.6 524.4C-117.8 544.6 -147.3 556.1 -171.7 572.7C-173.633 574.033 -175.533 575.366 -177.4 576.7C-205.9 597.6 -226.6 625.9 -237.3 659.2C-248.8 694.6 -248.3 736.7 -228.4 772.9" stroke="#A0A0A0" stroke-width="2" stroke-miterlimit="10"/>
<path id="&#60;Path&#62;_19" d="M633 -292.8C626.6 -262 615.9 -232.2 601.8 -204.1C595.6 -191.6 588.6 -179.4 580.2 -168.2C558.8 -139.8 529.7 -119.8 499.9 -104.6C492.767 -100.934 485.533 -97.5003 478.2 -94.3003C457.1 -85.2003 435.2 -78.0003 412.9 -72.6003C383.1 -65.5003 352.5 -61.6003 320.5 -57.3003C288.6 -53.0003 255.5 -45.1003 226.2 -39.4003C182.5 -31.0003 138.1 -35.0003 95.7 -25.4003C66.7 -18.8003 37.6 -6.60032 15 12.7997C4.60003 21.6997 -4.49998 32.1997 -11.6 44.3997C-39.6 92.5997 -29.5 154.1 -21.1 210.3C-20.2333 215.833 -19.4333 221.4 -18.7 227C-7.09998 314.7 -12 406 -60.6 477.7C-72.7 495.5 -87.6 513.4 -105.7 527.2C-131.6 547 -159.4 560.2 -182 578.3C-183.8 579.766 -185.567 581.233 -187.3 582.7C-213.6 605.4 -231.5 635.2 -239.4 668.8C-247.8 704.5 -244.4 745.1 -223.7 779.4" stroke="#9B9B9B" stroke-width="2" stroke-miterlimit="10"/>
<path id="&#60;Path&#62;_20" d="M620.8 -303.3C614.6 -273.6 604.2 -245 590.4 -218.1C584.2 -206.2 577.4 -194.5 569.4 -183.7C549 -156.2 522.2 -135.2 494 -118.5C487.267 -114.567 480.433 -110.834 473.5 -107.3C453.4 -97.1003 432.5 -88.8003 411 -82.2003C382.4 -73.5003 352.8 -67.9003 322 -62.8003C291.4 -57.8003 259.7 -51.2003 230.6 -46.9003C184.9 -40.1003 138.5 -44.2003 93.8 -35.1003C63.2 -28.9003 32.5 -16.8003 8.50003 2.99969C-2.59997 12.0997 -12.2 22.7997 -19.8 35.2997C-49.8 84.9997 -39.8 148.7 -31.6 206.8C-30.8 212.533 -30.0333 218.3 -29.3 224.1C-18.1 314.9 -22.9 410.6 -76.1 483.1C-88.5 500 -103.5 516.4 -120.8 530C-145.4 549.4 -171.4 564.2 -192.3 583.9C-193.967 585.5 -195.6 587.1 -197.2 588.7C-221.3 613.2 -236.4 644.6 -241.4 678.4C-246.8 714.4 -240.5 753.6 -219 785.8" stroke="#959595" stroke-width="2" stroke-miterlimit="10"/>
<path id="&#60;Path&#62;_21" d="M608.5 -313.8C602.7 -285.2 592.5 -257.8 578.9 -232.1C572.9 -220.7 566.2 -209.6 558.5 -199.2C539.1 -172.6 514.6 -150.6 488.1 -132.5C481.767 -128.234 475.3 -124.134 468.7 -120.2C449.7 -109 429.7 -99.6003 409.2 -91.9003C381.7 -81.5003 353.1 -74.2003 323.6 -68.4003C294.2 -62.6003 264 -57.3003 235.1 -54.3003C187.3 -49.4003 138.9 -53.4003 91.9 -44.8003C59.8 -39.0003 27.4 -27.0003 2.00003 -6.80029C-9.79997 2.39971 -20 13.3997 -28.1 26.2997C-60 77.3997 -50.1 143.3 -42.1 203.3C-41.3666 209.233 -40.6333 215.2 -39.9 221.2C-29.2 315.2 -33.6 415.5 -91.6 488.5C-104.3 504.6 -119.5 519.4 -135.8 532.8C-159.2 551.8 -183.5 568.3 -202.6 589.5C-204.133 591.233 -205.633 592.966 -207.1 594.7C-229 621 -241.2 653.9 -243.5 688C-245.8 724.3 -236.6 762 -214.3 792.3" stroke="#909090" stroke-width="2" stroke-miterlimit="10"/>
<path id="&#60;Path&#62;_22" d="M596.3 -324.2C580.6 -246.3 529.6 -177.9 463.9 -133.2C398.2 -88.5002 318.9 -66.4002 239.6 -61.8002C189.7 -58.9002 139.4 -62.5002 90.1 -54.6002C40.8 -46.6002 -9.20002 -24.7002 -36.3 17.2998C-70.3 69.6998 -60.4 137.9 -52.7 199.9C-40 301.8 -40.1 416 -107.1 493.9C-140.4 532.8 -187.6 558.7 -217 600.6C-257.7 658.7 -254.5 743.8 -209.6 798.8" stroke="#8A8A8A" stroke-width="2" stroke-miterlimit="10"/>
</g>
<g id="&#60;Group&#62;_3" style="mix-blend-mode:multiply">
<path id="&#60;Path&#62;_23" d="M179.9 1011.5C211 968.5 244.7 927.3 280.7 888.3C296.7 871 313.6 853.7 334.8 843.4C389.1 817 454 842.6 505.1 874.7C552.2 904.2 595.7 939.4 634.5 979.2C672.9 1018.6 707.4 1063.1 754 1092.5C800.6 1121.9 864.5 1132.8 909.5 1101C936.3 1082.2 952.4 1050.8 958.5 1018.6C964.6 986.4 961.6 953.2 956.4 920.9C950.4 883.8 941.6 845.2 953.3 809.6C965.4 772.7 1000.5 744.4 1039.1 740.4C1094 734.6 1142.3 772.9 1188.6 803C1247.5 841.3 1315.8 869.8 1385.9 865.7C1456 861.7 1526.8 818.9 1547.8 751.9" stroke="white" stroke-width="2" stroke-miterlimit="10"/>
<path id="&#60;Path&#62;_24" d="M187.1 1025.9C217.7 983.6 250.9 943.2 286.5 905.1C302.4 888.2 319.1 871.4 340 861.2C381.9 840.8 430.1 851.2 473.4 871.3C485.1 876.8 496.6 883 507.4 889.4C553.9 917.3 597.1 950.8 635.7 988.9C674 1026.7 708.3 1069.8 754.4 1098.1C780.2 1113.9 810.9 1124.8 841 1126.8C867.3 1128.4 893.3 1123.2 915.1 1108.3C919.033 1105.63 922.733 1102.73 926.2 1099.6C947.6 1080.2 960.5 1052.3 966.2 1023.7C968 1014.5 969.2 1005.2 969.8 995.9C971.4 971.7 969.5 947.1 966.7 923.1C962.4 885.1 956.5 846.1 969.7 810.6C982.8 775.2 1016.3 747.8 1054 743.6C1107.7 737.7 1155 773.8 1200.3 801.8C1203.9 804 1207.5 806.167 1211.1 808.3C1266.1 840.5 1328.3 862.8 1391.5 857.7C1458.9 852.2 1526.4 809.6 1545.9 744.1" stroke="#F9F9F9" stroke-width="2" stroke-miterlimit="10"/>
<path id="&#60;Path&#62;_25" d="M194.4 1040.3C224.4 998.7 257.2 959.1 292.4 922C308.1 905.4 324.6 889.1 345.1 879.1C386.3 859 433.5 868.4 476.1 887.1C487.7 892.3 499 898.1 509.7 904.2C555.6 930.4 598.4 962.3 636.9 998.7C675 1034.8 709.2 1076.4 754.8 1103.6C781.6 1119.7 813.1 1131 844.1 1133.4C871.1 1135.5 898.2 1130.6 920.8 1115.6C924.8 1112.93 928.6 1109.97 932.2 1106.7C954.5 1087 967.8 1058.2 973.9 1028.7C975.9 1019.2 977.2 1009.7 978 1000.2C980 975.2 978.9 950 977.1 925.4C974.3 886.3 971.4 847.1 986.1 811.5C1000 777.8 1032.2 751.1 1069 746.9C1121.4 740.9 1167.7 774.7 1212 800.6C1215.47 802.667 1218.97 804.667 1222.5 806.6C1276.2 836.2 1336.4 856 1397.1 849.6C1461.8 842.7 1526.1 800.3 1544.1 736.4" stroke="#F4F4F4" stroke-width="2" stroke-miterlimit="10"/>
<path id="&#60;Path&#62;_26" d="M201.6 1054.7C231 1013.7 263.4 975 298.3 938.8C313.8 922.7 330.1 906.7 350.3 896.9C390.7 877.2 437 885.5 478.8 903C490.3 907.8 501.4 913.2 511.9 918.9C557.3 943.5 599.8 973.7 638.1 1008.5C676.1 1042.9 710.2 1082.9 755.2 1109.2C783.1 1125.4 815.3 1137.2 847.2 1140.1C875 1142.6 903 1138 926.4 1122.9C930.6 1120.17 934.567 1117.17 938.3 1113.9C961.5 1093.7 975.1 1064.1 981.7 1033.7C983.8 1024 985.2 1014.2 986.1 1004.4C988.6 978.8 988.2 952.9 987.4 927.7C986.3 887.6 986.2 848.1 1002.4 812.5C1017.1 780.4 1048.1 754.5 1084 750.2C1135 744 1180.4 775.6 1223.6 799.4C1227.07 801.267 1230.53 803.1 1234 804.9C1286.3 832 1344.5 849.3 1402.7 841.5C1464.6 833.2 1525.7 791 1542.3 728.6" stroke="#EEEEEE" stroke-width="2" stroke-miterlimit="10"/>
<path id="&#60;Path&#62;_27" d="M208.9 1069C237.7 1028.8 269.7 990.9 304.1 955.6C319.5 939.9 335.7 924.4 355.4 914.8C395.1 895.4 440.4 902.7 481.6 918.9C492.8 923.2 503.8 928.3 514.2 933.6C559.1 956.7 601.1 985.2 639.3 1018.3C677.1 1051 711.2 1089.5 755.6 1114.7C784.5 1131.1 817.5 1143.4 850.4 1146.8C878.8 1149.7 907.8 1145.4 932 1130.2C936.333 1127.47 940.467 1124.43 944.4 1121.1C968.5 1100.5 982.4 1070 989.4 1038.8C991.6 1028.8 993.2 1018.7 994.3 1008.6C997.2 982.4 997.6 955.7 997.8 930C998.2 888.9 1000.9 849.1 1018.8 813.5C1034.2 782.9 1064 757.8 1099 753.4C1148.7 747.1 1193.1 776.5 1235.3 798.2C1238.63 799.934 1242 801.6 1245.4 803.2C1296.5 827.8 1352.6 842.5 1408.3 833.4C1467.5 823.7 1525.4 781.7 1540.4 720.8" stroke="#E9E9E9" stroke-width="2" stroke-miterlimit="10"/>
<path id="&#60;Path&#62;_28" d="M216.2 1083.4C244.4 1043.9 275.9 1006.8 310 972.4C325.2 957.1 341.2 942.1 360.6 932.6C399.5 913.5 443.8 919.8 484.3 934.7C495.4 938.7 506.2 943.4 516.5 948.4C560.8 969.8 602.5 996.6 640.5 1028C678.1 1059.1 712.2 1096 756.1 1120.3C785.9 1136.8 819.6 1149.5 853.5 1153.4C882.7 1156.8 912.6 1152.8 937.6 1137.4C942.133 1134.67 946.433 1131.6 950.5 1128.2C975.4 1107.3 989.7 1076 997.1 1043.8C999.5 1033.5 1001.2 1023.2 1002.5 1012.9C1005.9 985.9 1006.9 958.6 1008.1 932.2C1010.1 890.1 1015.6 850.2 1035.2 814.5C1051.1 785.5 1079.9 761.2 1113.9 756.7C1162.4 750.2 1205.8 777.5 1247 797C1250.27 798.533 1253.53 800.033 1256.8 801.5C1306.6 823.6 1360.8 835.8 1413.8 825.3C1470.4 814.1 1525.1 772.4 1538.6 713" stroke="#E3E3E3" stroke-width="2" stroke-miterlimit="10"/>
<path id="&#60;Path&#62;_29" d="M223.4 1097.8C251.1 1059 282.2 1022.7 315.9 989.2C330.9 974.3 346.7 959.8 365.7 950.4C403.8 931.7 447.2 937 487.1 950.6C498 954.2 508.6 958.5 518.8 963.1C562.5 982.9 603.9 1008.1 641.7 1037.8C679.2 1067.2 713.2 1102.5 756.5 1125.8C787.3 1142.5 821.8 1155.7 856.6 1160.1C886.6 1163.8 917.4 1160.1 943.3 1144.7C947.967 1141.97 952.367 1138.87 956.5 1135.4C982.4 1114.1 997 1081.9 1004.8 1048.8C1007.3 1038.3 1009.2 1027.7 1010.7 1017.1C1014.5 989.5 1016.2 961.4 1018.5 934.5C1022 891.4 1030.2 851.3 1051.5 815.5C1068 788 1095.8 764.6 1128.9 759.9C1176 753.4 1218.5 778.4 1258.7 795.8C1261.83 797.2 1265 798.534 1268.2 799.8C1316.7 819.3 1368.9 829 1419.4 817.2C1473.3 804.6 1524.7 763.1 1536.8 705.3" stroke="#DEDEDE" stroke-width="2" stroke-miterlimit="10"/>
<path id="&#60;Path&#62;_30" d="M230.7 1112.2C257.8 1074 288.4 1038.5 321.7 1006C336.5 991.5 352.2 977.4 370.8 968.3C408.2 949.9 450.7 954.1 489.8 966.4C500.5 969.7 511 973.6 521.1 977.8C564.3 996 605.2 1019.5 642.9 1047.6C680.2 1075.3 714.2 1108.9 756.9 1131.4C788.8 1148.1 824 1161.9 859.7 1166.8C890.4 1170.9 922.3 1167.5 948.9 1152C953.7 1149.2 958.267 1146.03 962.6 1142.5C989.4 1120.9 1004.2 1087.8 1012.6 1053.9C1015.2 1043.1 1017.2 1032.1 1018.8 1021.3C1023.1 993.1 1025.6 964.3 1028.8 936.8C1034 892.6 1044.7 852.3 1067.9 816.5C1084.7 790.5 1111.7 767.9 1143.9 763.2C1189.7 756.5 1231.2 779.3 1270.3 794.6C1273.43 795.8 1276.53 796.967 1279.6 798.1C1326.8 815.1 1377 822.3 1425 809.1C1476.2 795.1 1524.4 753.8 1534.9 697.5" stroke="#D8D8D8" stroke-width="2" stroke-miterlimit="10"/>
<path id="&#60;Path&#62;_31" d="M237.9 1126.5C264.5 1089.1 294.7 1054.4 327.6 1022.8C342.2 1008.8 357.7 995.1 376 986.1C412.6 968.1 454.1 971.4 492.5 982.3C503.1 985.2 513.4 988.8 523.4 992.6C566 1009.1 606.6 1031 644.1 1057.3C681.3 1083.5 715.2 1115.4 757.3 1136.9C790.2 1153.8 826.2 1168.1 862.8 1173.4C894.3 1178 927.1 1174.9 954.5 1159.3C959.5 1156.43 964.233 1153.23 968.7 1149.7C996.3 1127.7 1011.5 1093.8 1020.3 1058.9C1023 1047.8 1025.2 1036.6 1027 1025.6C1031.7 996.6 1035 967.2 1039.2 939C1045.9 893.9 1059.1 853.4 1084.2 817.5C1101.4 792.9 1127.6 771.3 1158.9 766.5C1203.4 759.6 1243.9 780.2 1282 793.4C1285 794.467 1288.03 795.467 1291.1 796.4C1337 810.9 1385.1 815.5 1430.6 801C1479.1 785.6 1524.1 744.5 1533.1 689.7" stroke="#D2D2D2" stroke-width="2" stroke-miterlimit="10"/>
<path id="&#60;Path&#62;_32" d="M245.2 1140.9C271.2 1104.2 300.9 1070.3 333.5 1039.6C347.9 1026 363.2 1012.8 381.1 1003.9C417 986.2 457.5 988.5 495.3 998.1C505.6 1000.7 515.8 1003.9 525.7 1007.3C567.7 1022.2 608 1042.4 645.3 1067.1C682.3 1091.6 716.3 1121.8 757.7 1142.5C791.7 1159.4 828.4 1174.3 865.9 1180.1C898.1 1185.1 931.9 1182.3 960.2 1166.5C965.267 1163.7 970.133 1160.47 974.8 1156.8C1003.3 1134.4 1018.8 1099.7 1028 1063.9C1030.9 1052.6 1033.2 1041.1 1035.2 1029.8C1040.3 1000.2 1044.3 970 1049.5 941.3C1057.9 895.1 1073.5 854.4 1100.6 818.5C1118 795.4 1143.5 774.6 1173.8 769.7C1217 762.7 1256.6 781.1 1293.7 792.2C1296.63 793.067 1299.57 793.9 1302.5 794.7C1347.1 806.7 1393.2 808.8 1436.2 792.9C1482 776.1 1523.7 735.2 1531.3 682" stroke="#CDCDCD" stroke-width="2" stroke-miterlimit="10"/>
<path id="&#60;Path&#62;_33" d="M252.4 1155.3C277.9 1119.3 307.2 1086.2 339.4 1056.4C353.6 1043.2 368.7 1030.5 386.3 1021.8C421.4 1004.4 460.9 1005.7 498 1014C508.2 1016.2 518.2 1019 528 1022C569.4 1035.3 609.3 1053.9 646.5 1076.9C683.3 1099.7 717.3 1128.2 758.1 1148C793.1 1165.1 830.6 1180.5 869.1 1186.8C902 1192.2 936.7 1189.7 965.8 1173.8C971.067 1170.93 976.067 1167.67 980.8 1164C1010.3 1141.2 1026.1 1105.6 1035.7 1069C1038.8 1057.3 1041.2 1045.6 1043.3 1034C1049 1003.8 1053.7 972.9 1059.9 943.6C1069.8 896.3 1087.8 855.4 1117 819.5C1134.6 797.8 1159.4 778 1188.8 773C1230.7 765.8 1269.3 782.1 1305.3 791C1308.17 791.734 1311.03 792.4 1313.9 793C1357.2 802.4 1401.4 802 1441.8 784.8C1484.9 766.6 1523.4 726 1529.4 674.2" stroke="#C7C7C7" stroke-width="2" stroke-miterlimit="10"/>
<path id="&#60;Path&#62;_34" d="M259.7 1169.7C284.6 1134.4 313.4 1102.1 345.2 1073.2C359.3 1060.4 374.2 1048.1 391.4 1039.6C425.8 1022.6 464.4 1022.9 500.7 1029.8C510.8 1031.7 520.7 1034.1 530.2 1036.8C571.2 1048.4 610.7 1065.3 647.7 1086.7C684.4 1107.8 718.4 1134.5 758.5 1153.6C794.6 1170.7 832.8 1186.6 872.2 1193.5C905.8 1199.2 941.5 1197.1 971.4 1181.1C976.8 1178.23 981.967 1174.93 986.9 1171.2C1017.2 1148 1033.4 1111.5 1043.4 1074C1046.6 1062.1 1049.2 1050.1 1051.5 1038.3C1057.6 1007.3 1063 975.8 1070.2 945.9C1081.8 897.6 1102 856.4 1133.3 820.4C1151.1 800.1 1175.3 781.4 1203.8 776.3C1244.4 769 1282 783 1317 789.8C1319.8 790.334 1322.57 790.834 1325.3 791.3C1367.4 798.2 1409.5 795.3 1447.4 776.8C1487.8 757.1 1523.1 716.7 1527.6 666.4" stroke="#C2C2C2" stroke-width="2" stroke-miterlimit="10"/>
<path id="&#60;Path&#62;_35" d="M267 1184C291.2 1149.4 319.7 1118 351.1 1090C365 1077.6 379.7 1065.8 396.6 1057.4C430.2 1040.8 467.8 1040 503.5 1045.7C513.3 1047.2 523.1 1049.2 532.5 1051.5C572.9 1061.5 612.1 1076.8 648.9 1096.4C685.4 1115.9 719.5 1140.9 758.9 1159.1C796.1 1176.3 835 1192.8 875.3 1200.1C909.7 1206.3 946.4 1204.4 977 1188.4C982.6 1185.47 987.933 1182.1 993 1178.3C1024.2 1154.8 1040.7 1117.5 1051.2 1079C1054.5 1066.9 1057.2 1054.6 1059.7 1042.5C1066.2 1010.9 1072.5 978.6 1080.6 948.1C1093.8 898.9 1116.1 857.2 1149.7 821.4C1167.5 802.4 1191.2 784.7 1218.7 779.5C1258.1 772.1 1294.7 783.9 1328.7 788.6C1331.37 789 1334.07 789.333 1336.8 789.6C1377.5 794 1417.6 788.5 1453 768.7C1490.7 747.5 1522.7 707.4 1525.8 658.6" stroke="#BCBCBC" stroke-width="2" stroke-miterlimit="10"/>
<path id="&#60;Path&#62;_36" d="M274.2 1198.4C297.9 1164.5 325.9 1133.9 357 1106.9C370.7 1094.9 385.2 1083.5 401.7 1075.3C434.6 1058.9 471.2 1057.2 506.2 1061.5C515.9 1062.7 525.5 1064.3 534.8 1066.3C574.6 1074.6 613.4 1088.2 650.1 1106.2C686.5 1124 720.6 1147.2 759.4 1164.7C797.6 1181.9 837.2 1199 878.4 1206.8C913.5 1213.4 951.2 1211.8 982.7 1195.7C988.367 1192.77 993.833 1189.37 999.1 1185.5C1031.2 1161.6 1048 1123.4 1058.9 1084.1C1062.3 1071.6 1065.2 1059.1 1067.9 1046.7C1074.8 1014.4 1081.8 981.5 1090.9 950.4C1105.8 900.1 1130.2 858 1166.1 822.4C1184 804.7 1207 788.1 1233.7 782.8C1271.7 775.2 1307.4 784.8 1340.4 787.4C1343 787.6 1345.6 787.767 1348.2 787.9C1387.6 789.8 1425.7 781.8 1458.6 760.6C1493.6 738 1522.4 698.1 1523.9 650.9" stroke="#B7B7B7" stroke-width="2" stroke-miterlimit="10"/>
<path id="&#60;Path&#62;_37" d="M281.5 1212.8C304.6 1179.6 332.2 1149.7 362.8 1123.7C376.4 1112.1 390.7 1101.1 406.8 1093.1C439 1077.1 474.6 1074.3 509 1077.4C518.5 1078.2 527.9 1079.4 537.1 1081C576.3 1087.7 614.8 1099.7 651.3 1116C687.5 1132.1 721.7 1153.5 759.8 1170.2C799.1 1187.4 839.4 1205.2 881.5 1213.5C917.4 1220.5 956 1219.2 988.3 1202.9C994.167 1199.97 999.767 1196.53 1005.1 1192.6C1038.1 1168.4 1055.2 1129.3 1066.6 1089.1C1070.2 1076.4 1073.2 1063.5 1076 1050.9C1083.4 1018 1091.2 984.4 1101.3 952.7C1117.8 901.4 1144.2 858.6 1182.4 823.4C1200.3 806.9 1222.9 791.4 1248.7 786C1285.4 778.3 1320 785.7 1352 786.2C1354.53 786.267 1357.07 786.267 1359.6 786.2C1397.7 785.5 1433.8 775 1464.2 752.5C1496.5 728.5 1522 688.8 1522.1 643.1" stroke="#B1B1B1" stroke-width="2" stroke-miterlimit="10"/>
<path id="&#60;Path&#62;_38" d="M288.7 1227.2C311.3 1194.7 338.5 1165.6 368.7 1140.5C382.1 1129.3 396.3 1118.8 412 1111C443.4 1095.3 478.1 1091.5 511.7 1093.2C521 1093.7 530.3 1094.6 539.4 1095.7C578.1 1100.8 616.1 1111.1 652.6 1125.7C688.5 1140.2 722.8 1159.8 760.2 1175.8C800.6 1193 841.6 1211.4 884.6 1220.1C921.2 1227.5 960.8 1226.6 993.9 1210.2C999.967 1207.27 1005.73 1203.8 1011.2 1199.8C1045.1 1175.1 1062.5 1135.3 1074.3 1094.1C1078 1081.1 1081.2 1068 1084.2 1055.2C1092 1021.6 1100.5 987.2 1111.6 954.9C1129.7 902.6 1158 859.2 1198.8 824.4C1216.7 809.1 1238.8 794.8 1263.7 789.3C1299.1 781.5 1332.7 786.6 1363.7 785C1366.17 784.867 1368.6 784.7 1371 784.5C1407.9 781.3 1441.9 768.3 1469.8 744.4C1499.4 719 1521.7 679.5 1520.3 635.3" stroke="#ABABAB" stroke-width="2" stroke-miterlimit="10"/>
<path id="&#60;Path&#62;_39" d="M296 1241.5C318 1209.7 344.7 1181.5 374.6 1157.3C387.8 1146.5 401.8 1136.5 417.1 1128.8C447.8 1113.5 481.5 1108.6 514.4 1109.1C523.6 1109.2 532.7 1109.7 541.7 1110.5C579.8 1113.9 617.5 1122.6 653.8 1135.5C689.6 1148.3 723.9 1166.1 760.6 1181.3C802.1 1198.5 843.8 1217.6 887.7 1226.8C925.1 1234.6 965.6 1234 999.5 1217.5C1005.7 1214.5 1011.7 1211 1017.3 1206.9C1052.1 1181.9 1069.8 1141.2 1082 1099.2C1085.9 1085.9 1089.2 1072.5 1092.4 1059.4C1100.7 1025.1 1109.9 990.1 1122 957.2C1141.7 903.9 1171.9 859.6 1215.2 825.4C1233.1 811.2 1254.7 798.1 1278.6 792.6C1312.7 784.6 1345.4 787.6 1375.4 783.8C1377.73 783.533 1380.07 783.2 1382.4 782.8C1418 777.1 1450.1 761.5 1475.4 736.3C1502.3 709.5 1521.4 670.2 1518.4 627.6" stroke="#A6A6A6" stroke-width="2" stroke-miterlimit="10"/>
<path id="&#60;Path&#62;_40" d="M303.2 1255.9C324.7 1224.8 351 1197.4 380.4 1174.1C393.5 1163.8 407.3 1154.2 422.3 1146.6C452.2 1131.6 484.9 1125.8 517.2 1124.9C526.2 1124.7 535.1 1124.8 544 1125.2C581.5 1127 618.9 1134 655 1145.3C690.6 1156.4 725 1172.4 761 1186.9C803.6 1204 846 1223.7 890.9 1233.5C929 1241.7 970.5 1241.4 1005.2 1224.8C1011.5 1221.8 1017.6 1218.2 1023.4 1214.1C1059 1188.7 1077.1 1147.1 1089.8 1104.2C1093.8 1090.7 1097.2 1077 1100.6 1063.6C1109.3 1028.7 1119.2 993 1132.3 959.5C1153.6 905.1 1185.6 859.8 1231.5 826.4C1249.4 813.3 1270.6 801.5 1293.6 795.8C1326.4 787.7 1358.1 788.5 1387 782.6C1389.33 782.134 1391.63 781.634 1393.9 781.1C1428.1 772.9 1458.2 754.8 1481 728.2C1505.2 700 1521 660.9 1516.6 619.8" stroke="#A0A0A0" stroke-width="2" stroke-miterlimit="10"/>
<path id="&#60;Path&#62;_41" d="M310.5 1270.3C331.4 1239.9 357.2 1213.3 386.3 1190.9C399.2 1181 412.8 1171.8 427.4 1164.5C456.6 1149.8 488.4 1142.9 519.9 1140.8C528.7 1140.2 537.5 1139.9 546.3 1139.9C583.3 1140.1 620.2 1145.5 656.2 1155.1C691.7 1164.5 726.1 1178.7 761.4 1192.4C805.1 1209.4 848.2 1229.9 894 1240.1C932.8 1248.8 975.3 1248.7 1010.8 1232C1017.3 1229 1023.5 1225.4 1029.4 1221.2C1066 1195.5 1084.4 1153 1097.5 1109.2C1101.6 1095.4 1105.2 1081.5 1108.7 1067.9C1117.9 1032.3 1128.6 995.8 1142.6 961.8C1165.6 906.4 1199.3 859.9 1247.9 827.4C1265.8 815.4 1286.5 804.9 1308.6 799.1C1340.1 790.8 1370.8 789.4 1398.7 781.4C1400.9 780.8 1403.1 780.133 1405.3 779.4C1438.3 768.6 1466.3 748 1486.5 720.1C1508.1 690.5 1520.7 651.6 1514.8 612" stroke="#9B9B9B" stroke-width="2" stroke-miterlimit="10"/>
<path id="&#60;Path&#62;_42" d="M317.7 1284.7C338.1 1255 363.5 1229.2 392.2 1207.7C404.9 1198.2 418.3 1189.5 432.5 1182.3C461 1168 491.8 1160 522.7 1156.6C531.3 1155.6 539.9 1155 548.6 1154.7C585 1153.2 621.6 1156.9 657.4 1164.8C692.7 1172.6 727.2 1184.9 761.8 1198C806.7 1214.9 850.4 1236.1 897.1 1246.8C936.7 1255.9 980.1 1256.1 1016.4 1239.3C1023.1 1236.3 1029.4 1232.6 1035.5 1228.4C1073 1202.3 1091.7 1159 1105.2 1114.3C1109.5 1100.2 1113.2 1086 1116.9 1072.1C1126.5 1035.8 1138 998.7 1153 964C1177.5 907.6 1212.9 859.7 1264.3 828.3C1282.2 817.4 1302.4 808.2 1323.5 802.3C1353.7 794 1383.5 790.3 1410.4 780.2C1412.53 779.4 1414.63 778.567 1416.7 777.7C1448.4 764.4 1474.4 741.3 1492.1 712C1511 680.9 1520.4 642.3 1512.9 604.3" stroke="#959595" stroke-width="2" stroke-miterlimit="10"/>
<path id="&#60;Path&#62;_43" d="M325 1299C344.8 1270 369.7 1245.1 398 1224.5C410.6 1215.4 423.8 1207.2 437.7 1200.1C465.4 1186.1 495.2 1177.2 525.4 1172.5C533.867 1171.17 542.333 1170.13 550.8 1169.4C586.7 1166.3 623 1168.4 658.6 1174.6C693.7 1180.7 728.3 1191.1 762.2 1203.5C808.2 1220.3 852.6 1242.3 900.2 1253.5C940.5 1262.9 984.9 1263.5 1022.1 1246.6C1028.8 1243.5 1035.4 1239.9 1041.6 1235.6C1079.9 1209.1 1099 1164.9 1112.9 1119.3C1117.3 1104.9 1121.2 1090.5 1125.1 1076.3C1135.1 1039.4 1147.3 1001.6 1163.3 966.3C1189.5 908.9 1226.5 859.4 1280.6 829.3C1298.6 819.4 1318.3 811.6 1338.5 805.6C1367.4 797.1 1396.2 791.2 1422.1 779C1424.1 778.067 1426.1 777.067 1428.1 776C1458.5 760.2 1482.5 734.5 1497.7 703.9C1513.9 671.4 1520 633 1511.1 596.5" stroke="#909090" stroke-width="2" stroke-miterlimit="10"/>
<path id="&#60;Path&#62;_44" d="M332.3 1313.4C376.8 1247.7 450.3 1204.2 528.1 1188.3C606 1172.5 687.7 1182.7 762.7 1209.1C809.8 1225.6 854.8 1248.5 903.3 1260.1C951.9 1271.8 1006.5 1270.9 1047.7 1242.7C1099.2 1207.4 1116.4 1140.7 1133.2 1080.6C1160.9 981.6 1205.1 876.4 1297 830.3C1342.7 807.4 1396.3 801.6 1439.6 774.3C1499.6 736.4 1529.5 656.7 1509.3 588.7" stroke="#8A8A8A" stroke-width="2" stroke-miterlimit="10"/>
</g>
<g id="&#60;Group&#62;_4" style="mix-blend-mode:multiply">
<path id="&#60;Path&#62;_45" d="M-528.5 -122.3C-490.1 -159 -449.6 -193.5 -407.1 -225.3C-388.2 -239.5 -368.5 -253.4 -345.7 -259.8C-287.6 -275.9 -228.4 -239 -183.9 -198.3C-142.9 -160.7 -106.5 -118.3 -75.5 -72.2001C-44.8 -26.5001 -18.9 23.5999 21.6 60.8999C62.1 98.1999 123.1 120.4 173.1 97.2999C202.8 83.5999 224.3 55.5999 236.1 25.0999C247.9 -5.50009 251 -38.7001 251.7 -71.5001C252.5 -109 250.8 -148.5 268.7 -181.5C287.3 -215.6 326.8 -237.1 365.5 -234.1C420.6 -229.8 461.2 -183.5 501.4 -145.5C552.3 -97.3001 614.4 -56.9001 684.1 -48.2001C753.7 -39.5001 831.1 -68.9001 863.8 -131" stroke="#8A8A8A" stroke-width="2" stroke-miterlimit="10"/>
<path id="&#60;Path&#62;_46" d="M-523.9 -106.9C-486.3 -143 -446.3 -176.7 -404.4 -207.7C-385.7 -221.5 -366.2 -235 -343.9 -241.3C-299 -253.8 -253.4 -234.9 -214.5 -207.3C-203.9 -199.8 -193.8 -191.7 -184.3 -183.4C-143.6 -147.5 -107.2 -106.8 -76 -62.3001C-45.2 -18.3001 -19.2 30.2999 21 66.3999C43.6 86.6999 71.7 102.9 101.1 110.2C126.6 116.6 153.2 116.2 177.3 105.5C181.567 103.567 185.7 101.367 189.7 98.8999C214.2 83.5999 232 58.4999 242.8 31.3999C246.2 22.6999 249 13.7999 251.3 4.79988C257.3 -18.8001 259.8 -43.3001 261.4 -67.4001C264 -105.6 265.3 -145 284.6 -177.6C303.9 -210 341.9 -230.9 379.7 -228.2C433.5 -224.3 473.6 -180.3 513.1 -144.6C516.167 -141.8 519.3 -139 522.5 -136.2C570.8 -94.7001 627.9 -61.5001 691 -55.2001C758.3 -48.4001 832.4 -78.1001 863.4 -139" stroke="#909090" stroke-width="2" stroke-miterlimit="10"/>
<path id="&#60;Path&#62;_47" d="M-519.4 -91.4001C-482.4 -127 -443 -160 -401.6 -190.1C-383.2 -203.6 -364 -216.7 -342 -222.8C-297.9 -235.1 -253.1 -217.4 -214.7 -191.3C-204.2 -184.1 -194.1 -176.4 -184.7 -168.5C-144.3 -134.3 -107.9 -95.3001 -76.6 -52.5001C-45.6 -10.1001 -19.5 36.8999 20.4 71.8999C43.9 92.5999 72.8 109.4 102.9 117.4C129.1 124.3 156.6 124.3 181.5 113.6C185.967 111.733 190.267 109.533 194.4 107C219.9 91.5999 238.1 65.6999 249.5 37.7999C253.1 28.7999 256.1 19.6999 258.6 10.3999C265.1 -13.7001 268.5 -38.8001 271.2 -63.3001C275.5 -102.2 279.7 -141.3 300.6 -173.6C320.4 -204.3 356.9 -224.7 393.8 -222.3C446.4 -218.8 485.9 -177.1 524.7 -143.7C527.767 -141.033 530.9 -138.433 534.1 -135.9C581.5 -97.0001 637.1 -66.7001 698 -62.1001C762.8 -57.2001 833.8 -87.3001 863 -147" stroke="#959595" stroke-width="2" stroke-miterlimit="10"/>
<path id="&#60;Path&#62;_48" d="M-514.8 -76C-478.5 -110.9 -439.7 -143.2 -398.9 -172.6C-380.7 -185.6 -361.8 -198.3 -340.2 -204.3C-296.9 -216.5 -252.9 -199.9 -214.8 -175.2C-204.4 -168.4 -194.5 -161.1 -185.1 -153.6C-144.9 -121.1 -108.6 -83.8 -77.2001 -42.7C-46.1001 -2.00003 -19.7001 43.6 19.7999 77.5C44.2999 98.4 73.7999 115.8 104.8 124.5C131.6 132 160 132.5 185.7 121.8C190.3 119.933 194.767 117.7 199.1 115.1C225.5 99.5 244.2 72.8 256.2 44.1C260 34.9 263.2 25.5 265.9 16.1C272.9 -8.70002 277.2 -34.3 281 -59.2C287.1 -98.8 294.1 -137.7 316.5 -169.7C336.7 -198.7 371.9 -218.6 408 -216.4C459.3 -213.2 498.2 -173.9 536.4 -142.7C539.467 -140.233 542.533 -137.833 545.6 -135.5C592.2 -99.4 646.3 -71.9 704.9 -69.1C767.4 -66.1 835.1 -96.5 862.6 -154.9" stroke="#9B9B9B" stroke-width="2" stroke-miterlimit="10"/>
<path id="&#60;Path&#62;_49" d="M-510.3 -60.5C-474.7 -94.9 -436.4 -126.4 -396.1 -155C-378.2 -167.6 -359.5 -179.9 -338.4 -185.9C-295.9 -197.8 -252.6 -182.4 -215 -159.1C-204.7 -152.7 -194.9 -145.8 -185.5 -138.6C-145.6 -107.9 -109.3 -72.3 -77.8 -32.9C-46.5 6.20002 -19.9001 50.2 19.2999 83C44.5999 104.3 74.8999 122.3 106.6 131.6C134.1 139.6 163.4 140.6 189.9 130C194.7 128.067 199.333 125.833 203.8 123.3C231.1 107.4 250.3 80 262.9 50.5C266.9 41 270.2 31.4 273.1 21.7C280.8 -3.59997 285.9 -29.8 290.7 -55.1C298.6 -95.4 308.4 -134 332.4 -165.8C353 -193.1 386.9 -212.4 422.1 -210.5C472.2 -207.7 510.5 -170.7 548.1 -141.8C551.1 -139.533 554.1 -137.3 557.1 -135.1C602.9 -101.7 655.5 -77.1 711.9 -76C772 -74.9 836.5 -105.7 862.2 -162.9" stroke="#A0A0A0" stroke-width="2" stroke-miterlimit="10"/>
<path id="&#60;Path&#62;_50" d="M-505.7 -45.0999C-470.8 -78.8999 -433.1 -109.7 -393.4 -137.4C-375.8 -149.7 -357.3 -161.5 -336.5 -167.4C-294.8 -179.1 -252.3 -164.9 -215.2 -143C-205 -137 -195.2 -130.5 -186 -123.7C-146.3 -94.6999 -110.1 -60.7999 -78.3999 -22.9999C-46.9999 14.3001 -20.0999 56.7001 18.7001 88.5001C45.0001 110.2 75.9001 128.8 108.5 138.7C136.6 147.3 166.8 148.7 194.2 138.2C199.133 136.267 203.9 134 208.5 131.4C236.8 115.4 256.4 87.1001 269.5 56.8001C273.7 47.1001 277.3 37.2001 280.4 27.3001C288.6 1.50008 294.5 -25.2999 300.5 -50.9999C310 -91.9999 322.6 -130.3 348.3 -161.9C369.2 -187.6 402 -206.2 436.2 -204.6C485 -202.2 522.8 -167.5 559.8 -140.9C562.733 -138.767 565.7 -136.7 568.7 -134.7C613.7 -104 664.8 -82.1999 718.9 -82.9999C776.5 -83.6999 837.8 -114.9 861.8 -170.9" stroke="#A6A6A6" stroke-width="2" stroke-miterlimit="10"/>
<path id="&#60;Path&#62;_51" d="M-501.2 -29.5999C-467 -62.7999 -429.9 -92.8999 -390.7 -119.8C-373.3 -131.7 -355.1 -143.2 -334.7 -148.9C-293.8 -160.5 -252 -147.4 -215.3 -126.9C-205.3 -121.3 -195.6 -115.2 -186.4 -108.8C-146.9 -81.4999 -110.8 -49.2999 -78.8999 -13.1999C-47.3999 22.5001 -20.3 63.3001 18.1 94.1001C45.4 116 77.0001 135.3 110.4 145.9C139.2 154.9 170.2 156.9 198.4 146.3C203.467 144.433 208.367 142.167 213.1 139.5C242.4 123.3 262.5 94.2001 276.2 63.1001C280.6 53.2001 284.3 43.1001 287.7 33.0001C296.4 6.50006 303.2 -20.7999 310.3 -46.8999C321.6 -88.6999 336.8 -126.6 364.2 -158C385.4 -182.1 417 -200.1 450.4 -198.6C497.9 -196.6 535.2 -164.3 571.5 -140C574.367 -138.067 577.267 -136.167 580.2 -134.3C624.4 -106.3 674 -87.3999 725.8 -89.8999C781.1 -92.5999 839.1 -124.1 861.4 -178.9" stroke="#ABABAB" stroke-width="2" stroke-miterlimit="10"/>
<path id="&#60;Path&#62;_52" d="M-496.7 -14.2C-463.1 -46.7999 -426.6 -76.2 -387.9 -102.2C-370.8 -113.7 -352.8 -124.8 -332.8 -130.4C-292.7 -141.8 -251.8 -129.9 -215.5 -110.8C-205.5 -105.6 -195.9 -99.9 -186.8 -93.9C-147.6 -68.3 -111.5 -37.7999 -79.4999 -3.39995C-47.7999 30.7001 -20.4999 69.8 17.5001 99.6C45.8001 121.8 78.0001 141.7 112.2 153C141.7 162.6 173.6 165 202.6 154.5C207.867 152.633 212.933 150.367 217.8 147.7C248 131.2 268.6 101.4 282.9 69.5C287.5 59.3 291.4 48.9 295 38.6C304.3 11.6 311.9 -16.3 320 -42.8C333.1 -85.3 350.9 -122.9 380.2 -154C401.4 -176.6 432 -193.9 464.5 -192.7C510.8 -191.1 547.5 -161.2 583.2 -139C586.067 -137.267 588.933 -135.567 591.8 -133.9C635.1 -108.7 683.2 -92.6 732.8 -96.9C785.7 -101.4 840.5 -133.3 861 -186.8" stroke="#B1B1B1" stroke-width="2" stroke-miterlimit="10"/>
<path id="&#60;Path&#62;_53" d="M-492.1 1.29996C-459.2 -30.8 -423.3 -59.4 -385.2 -84.6C-368.3 -95.8 -350.6 -106.4 -331 -112C-291.7 -123.1 -251.5 -112.4 -215.7 -94.7C-205.8 -89.9 -196.3 -84.6 -187.2 -79C-148.3 -55.1 -112.2 -26.2001 -80.1 6.39995C-48.3 38.7999 -20.6 76.2999 16.9 105.1C46.2 127.7 79.1 148.2 114.1 160.1C144.2 170.2 177 173.1 206.8 162.7C212.2 160.833 217.433 158.533 222.5 155.8C253.7 139.1 274.7 108.5 289.6 75.8C294.3 65.4 298.5 54.8 302.2 44.2C312.1 16.6 320.6 -11.8 329.8 -38.7C344.6 -81.9 364.9 -119.3 396.1 -150.1C417.4 -171.1 447 -187.7 478.7 -186.8C523.7 -185.5 559.8 -158 594.9 -138.1C597.7 -136.567 600.5 -135.033 603.3 -133.5C645.8 -111 692.4 -97.8 739.7 -103.8C790.2 -110.2 841.8 -142.5 860.6 -194.8" stroke="#B7B7B7" stroke-width="2" stroke-miterlimit="10"/>
<path id="&#60;Path&#62;_54" d="M-487.6 16.7C-455.4 -14.7 -420 -42.7 -382.4 -67C-365.8 -77.8 -348.4 -88 -329.1 -93.5C-290.6 -104.4 -251.2 -94.9 -215.8 -78.7C-206.1 -74.2 -196.6 -69.3 -187.6 -64.1C-148.9 -41.9 -113 -14.7 -80.7 16.3C-48.7 47 -20.7 82.8 16.3 110.7C46.6 133.5 80.1 154.7 115.9 167.2C146.7 177.9 180.4 181.3 211.1 170.9C216.633 169.033 222 166.733 227.2 164C259.3 147.1 280.8 115.7 296.3 82.2C301.2 71.5 305.5 60.7 309.5 49.9C319.9 21.7 329.3 -7.30004 339.6 -34.6C356.1 -78.5 378.8 -115.7 412 -146.2C433.3 -165.8 462.1 -181.6 492.8 -180.9C536.6 -180 572.1 -154.8 606.6 -137.2C609.333 -135.8 612.067 -134.433 614.8 -133.1C656.6 -113.3 701.6 -102.9 746.7 -110.8C794.8 -119.1 843.2 -151.7 860.2 -202.8" stroke="#BCBCBC" stroke-width="2" stroke-miterlimit="10"/>
<path id="&#60;Path&#62;_55" d="M-483 32.2C-451.5 1.29995 -416.7 -25.9001 -379.7 -49.4001C-363.3 -59.8001 -346.1 -69.7 -327.3 -75C-289.6 -85.8 -251 -77.4 -216 -62.6C-206.4 -58.5 -197 -54 -188 -49.2C-149.6 -28.7 -113.7 -3.20004 -81.2 26.1C-49.2 55.2 -20.9 89.3 15.7 116.2C47 139.3 81.2 161.2 117.8 174.3C149.2 185.6 183.8 189.4 215.3 179C220.967 177.133 226.5 174.833 231.9 172.1C264.9 155 286.9 122.8 303 88.4999C308.1 77.5999 312.6 66.4999 316.8 55.4999C327.8 26.7999 338 -2.70005 349.3 -30.5C367.7 -75.1 392.7 -112.1 427.9 -142.3C449.1 -160.4 477.1 -175.4 506.9 -175C549.5 -174.5 584.5 -151.6 618.3 -136.3C620.967 -135.033 623.667 -133.833 626.4 -132.7C667.3 -115.7 710.8 -108.1 753.7 -117.7C799.4 -127.9 844.5 -160.9 859.8 -210.8" stroke="#C2C2C2" stroke-width="2" stroke-miterlimit="10"/>
<path id="&#60;Path&#62;_56" d="M-478.5 47.6C-447.7 17.4 -413.4 -9.19996 -377 -31.8C-360.8 -41.9 -343.9 -51.2999 -325.5 -56.5999C-288.6 -67.0999 -250.7 -59.9 -216.2 -46.5C-206.6 -42.8 -197.3 -38.7 -188.4 -34.3C-150.2 -15.5 -114.4 8.30005 -81.8 35.9001C-49.6 63.3001 -20.9 95.8 15.1 121.7C47.5 145.1 82.2 167.7 119.7 181.5C151.7 193.2 187.3 197.5 219.5 187.2C225.367 185.333 231.067 183 236.6 180.2C270.5 162.9 293 130 309.7 94.8C314.9 83.7 319.7 72.4 324.1 61.2C335.6 31.8 346.7 1.80005 359.1 -26.3999C379.2 -71.6999 406.5 -108.7 443.8 -138.3C464.9 -155.1 492.1 -169.2 521.1 -169.1C562.3 -168.9 596.8 -148.4 630 -135.3C632.6 -134.3 635.233 -133.333 637.9 -132.4C678 -118 720 -113.3 760.6 -124.7C803.9 -136.7 845.9 -170.1 859.4 -218.7" stroke="#C7C7C7" stroke-width="2" stroke-miterlimit="10"/>
<path id="&#60;Path&#62;_57" d="M-473.9 63.1C-443.8 33.4 -410.1 7.60005 -374.2 -14.2C-358.3 -23.9 -341.7 -32.8999 -323.6 -38.0999C-287.5 -48.3999 -250.4 -42.3999 -216.3 -30.3999C-206.9 -27.0999 -197.7 -23.3999 -188.8 -19.3999C-150.9 -2.29995 -115.1 19.8 -82.4 45.8C-50 71.5 -21 102.2 14.5 127.3C47.9 150.9 83.2 174.1 121.5 188.6C154.2 200.9 190.7 205.6 223.7 195.4C229.7 193.533 235.533 191.2 241.2 188.4C276.2 170.9 299.1 137.1 316.4 101.2C321.8 89.8 326.7 78.2 331.3 66.8C343.4 36.9 355.4 6.30004 368.9 -22.3C390.8 -68.3 420.3 -105.3 459.7 -134.4C480.7 -149.9 507.1 -163.1 535.2 -163.2C575.2 -163.4 609.1 -145.2 641.7 -134.4C644.3 -133.533 646.9 -132.733 649.5 -132C688.7 -120.3 729.2 -118.5 767.6 -131.6C808.5 -145.6 847.2 -179.3 859 -226.7" stroke="#CDCDCD" stroke-width="2" stroke-miterlimit="10"/>
<path id="&#60;Path&#62;_58" d="M-469.4 78.5001C-439.9 49.4001 -406.9 24.3 -371.5 3.40004C-355.8 -5.89996 -339.4 -14.5 -321.8 -19.6C-286.5 -29.8 -250.1 -24.9 -216.5 -14.3C-207.2 -11.4 -198.1 -8.09995 -189.2 -4.49995C-151.6 10.9 -115.9 31.3 -83 55.6C-50.5 79.6 -21.1 108.6 13.9 132.8C48.4 156.6 84.3 180.6 123.4 195.7C156.8 208.5 194.1 213.8 228 203.6C234.133 201.733 240.1 199.367 245.9 196.5C281.8 178.8 305.2 144.3 323 107.5C328.7 95.9001 333.8 84.1001 338.6 72.4001C351.3 41.9001 364.1 10.8 378.7 -18.2C402.4 -64.9 434 -102 475.7 -130.5C496.4 -144.7 522.2 -156.9 549.3 -157.3C588.1 -157.9 621.4 -142 653.4 -133.5C655.933 -132.833 658.467 -132.2 661 -131.6C699.5 -122.7 738.4 -123.6 774.5 -138.6C813.1 -154.4 848.6 -188.5 858.6 -234.7" stroke="#D2D2D2" stroke-width="2" stroke-miterlimit="10"/>
<path id="&#60;Path&#62;_59" d="M-464.8 93.8999C-436.1 65.4999 -403.6 41.0999 -368.7 20.9999C-353.3 11.9999 -337.2 3.7999 -319.9 -1.1001C-285.4 -11.1001 -249.9 -7.40009 -216.6 1.79991C-207.4 4.29991 -198.4 7.1999 -189.6 10.3999C-152.2 24.0999 -116.6 42.7999 -83.6 65.3999C-50.9 87.7999 -21.2 115 13.3 138.3C48.8 162.3 85.3 187.1 125.3 202.8C159.3 216.2 197.5 221.9 232.2 211.7C238.467 209.9 244.6 207.533 250.6 204.6C287.4 186.7 311.3 151.4 329.7 113.9C335.5 102 340.8 89.8999 345.9 78.0999C359.1 46.9999 372.8 15.2999 388.4 -14.1001C413.9 -61.5001 447.6 -98.8001 491.6 -126.6C512.2 -139.6 537.2 -150.7 563.5 -151.4C601 -152.3 633.7 -138.8 665.1 -132.6C667.567 -132.067 670.033 -131.6 672.5 -131.2C710.2 -125 747.6 -128.8 781.5 -145.5C817.6 -163.3 849.9 -197.7 858.2 -242.6" stroke="#D8D8D8" stroke-width="2" stroke-miterlimit="10"/>
<path id="&#60;Path&#62;_60" d="M-460.3 109.4C-432.2 81.4999 -400.3 57.7999 -366 38.4999C-350.8 29.9999 -335 22.1999 -318.1 17.2999C-284.4 7.5999 -249.6 10.0999 -216.8 17.8999C-207.7 19.9999 -198.8 22.4999 -190 25.2999C-152.9 37.2999 -117.3 54.2999 -84.1 75.1999C-51.3 95.9999 -21.2 121.4 12.7 143.9C49.3 168.1 86.4 193.6 127.1 209.9C161.8 223.8 200.9 230 236.4 219.9C242.867 218.1 249.167 215.733 255.3 212.8C293.1 194.6 317.4 158.5 336.4 120.2C342.4 108.1 347.9 95.7999 353.2 83.6999C366.9 51.9999 381.5 19.7999 398.2 -10.0001C425.4 -58.1001 461.1 -95.8001 507.5 -122.6C527.9 -134.4 552.2 -144.5 577.6 -145.5C613.9 -146.8 646.1 -135.6 676.8 -131.6C679.2 -131.333 681.633 -131.067 684.1 -130.8C720.9 -127.3 756.8 -134 788.5 -152.5C822.2 -172.1 851.3 -206.9 857.8 -250.6" stroke="#DEDEDE" stroke-width="2" stroke-miterlimit="10"/>
<path id="&#60;Path&#62;_61" d="M-455.7 124.8C-428.4 97.4999 -397 74.5999 -363.3 56.0999C-348.3 47.9999 -332.8 40.5999 -316.3 35.7999C-283.3 26.1999 -249.3 27.5999 -217 33.8999C-208 35.6999 -199.1 37.7999 -190.4 40.1999C-153.6 50.4999 -118 65.7999 -84.7 85.0999C-51.8 104.1 -21.3 127.8 12.1 149.4C49.8 173.8 87.4 200.1 129 217.1C164.3 231.5 204.3 238.2 240.6 228.1C247.2 226.2 253.7 223.9 260 220.9C298.7 202.6 323.5 165.7 343.1 126.6C349.3 114.2 355 101.7 360.4 89.2999C374.8 57.0999 390.2 24.2999 408 -5.90009C437 -54.8001 474.7 -92.9001 523.4 -118.7C543.6 -129.4 567.2 -138.4 591.8 -139.6C626.7 -141.2 658.4 -132.4 688.5 -130.7C690.9 -130.567 693.267 -130.467 695.6 -130.4C731.6 -129.6 766 -139.2 795.4 -159.4C826.8 -180.9 852.6 -216.1 857.4 -258.6" stroke="#E3E3E3" stroke-width="2" stroke-miterlimit="10"/>
<path id="&#60;Path&#62;_62" d="M-451.2 140.3C-424.5 113.6 -393.7 91.2999 -360.5 73.6999C-345.8 65.8999 -330.5 58.9999 -314.4 54.2999C-282.3 44.8999 -249 45.0999 -217.1 49.9999C-208.3 51.3999 -199.5 53.0999 -190.8 55.0999C-154.2 63.6999 -118.8 77.2999 -85.3 94.8999C-52.2 112.3 -21.3 134.2 11.5 154.9C50.3 179.4 88.5 206.5 130.8 224.2C166.8 239.2 207.7 246.3 244.8 236.3C251.6 234.4 258.2 232 264.7 229C304.3 210.5 329.6 172.8 349.8 132.9C356.2 120.3 362 107.5 367.7 94.9999C382.6 62.1999 398.8 28.7999 417.7 -1.80008C448.5 -51.4001 488.1 -90.2001 539.3 -114.8C559.3 -124.4 582.3 -132.2 605.9 -133.6C639.6 -135.7 670.7 -129.2 700.2 -129.8C702.533 -129.8 704.867 -129.867 707.2 -130C742.4 -132 775.2 -144.3 802.4 -166.4C831.3 -189.8 853.9 -225.3 857 -266.6" stroke="#E9E9E9" stroke-width="2" stroke-miterlimit="10"/>
<path id="&#60;Path&#62;_63" d="M-446.7 155.7C-420.6 129.6 -390.4 108.1 -357.8 91.3C-343.3 83.9 -328.3 77.3 -312.6 72.7C-281.2 63.6 -248.7 62.5 -217.3 66.1C-208.5 67.1 -199.8 68.4 -191.2 70C-154.9 76.9 -119.5 88.8 -85.9 104.7C-52.7 120.4 -21.4 140.6 10.9 160.5C50.8 185.1 89.5 213 132.7 231.3C169.3 246.8 211.1 254.4 249.1 244.4C256 242.6 262.8 240.2 269.4 237.2C310 218.4 335.7 180 356.5 139.2C363 126.4 369.1 113.4 375 100.6C390.4 67.2 407.5 33.3 427.5 2.29999C460 -48 501.6 -87.7 555.3 -110.9C575 -119.4 597.3 -126 620 -127.7C652.5 -130.2 683 -126 711.9 -128.9C714.167 -129.1 716.433 -129.333 718.7 -129.6C753.1 -134.3 784.4 -149.5 809.3 -173.3C835.9 -198.6 855.3 -234.5 856.6 -274.5" stroke="#EEEEEE" stroke-width="2" stroke-miterlimit="10"/>
<path id="&#60;Path&#62;_64" d="M-442.1 171.2C-416.8 145.6 -387.1 124.9 -355 108.9C-340.8 101.9 -326.1 95.7 -310.7 91.2C-280.2 82.2 -248.5 80 -217.5 82.2C-208.8 82.8 -200.2 83.7 -191.6 84.9C-155.6 90.1 -120.2 100.3 -86.4 114.6C-53.1 128.6 -21.4 146.9 10.3 166C51.4 190.7 90.6 219.5 134.6 238.4C171.8 254.5 214.5 262.6 253.3 252.6C260.4 250.8 267.3 248.4 274 245.3C315.6 226.4 341.8 187.1 363.2 145.6C369.9 132.5 376.1 119.2 382.3 106.2C398.3 72.3 416.2 37.8 437.3 6.39999C471.6 -44.6 515 -85.3 571.2 -106.9C590.8 -114.5 612.3 -119.9 634.2 -121.8C665.4 -124.6 695.3 -122.8 723.6 -127.9C725.8 -128.3 728.033 -128.767 730.3 -129.3C763.8 -136.6 793.6 -154.7 816.3 -180.3C840.5 -207.4 856.6 -243.7 856.2 -282.5" stroke="#F4F4F4" stroke-width="2" stroke-miterlimit="10"/>
<path id="&#60;Path&#62;_65" d="M-437.6 186.6C-412.9 161.7 -383.8 141.6 -352.3 126.5C-338.3 119.8 -323.8 114.1 -308.9 109.7C-279.2 100.9 -248.2 97.5 -217.6 98.3C-209.067 98.5 -200.567 99 -192.1 99.8C-156.2 103.3 -120.9 111.9 -87 124.4C-53.5 136.8 -21.4 153.2 9.70004 171.5C51.9 196.3 91.6 226 136.4 245.6C174.4 262.1 217.9 270.7 257.5 260.8C264.7 259 271.8 256.5 278.7 253.4C321.2 234.3 347.9 194.3 369.9 151.9C376.8 138.6 383.2 125.1 389.5 111.9C406.1 77.3 424.9 42.3 447 10.5C483.1 -41.2 528.4 -83.2 587.1 -103C606.5 -109.6 627.3 -113.7 648.3 -115.9C678.3 -119.1 707.7 -119.7 735.3 -127C737.5 -127.6 739.667 -128.233 741.8 -128.9C774.5 -139 802.8 -159.9 823.3 -187.2C845 -216.3 858 -252.9 855.8 -290.5" stroke="#F9F9F9" stroke-width="2" stroke-miterlimit="10"/>
<path id="&#60;Path&#62;_66" d="M-433 202.1C-377.3 145.4 -297.2 115.9 -217.8 114.4C-138.4 112.8 -59.8 137.6 9.10001 177.1C52.5 201.9 92.6 232.4 138.3 252.7C183.9 272.9 237.8 281.9 283.4 261.6C340.5 236.1 369.4 173.7 396.8 117.5C441.9 25.2 504.4 -70.3 603 -99.1C652.1 -113.4 705.8 -109.4 753.3 -128.5C819.2 -154.9 863 -227.9 855.4 -298.5" stroke="white" stroke-width="2" stroke-miterlimit="10"/>
</g>
<g id="&#60;Group&#62;_5" style="mix-blend-mode:multiply">
<path id="&#60;Path&#62;_67" d="M-84.7 1022.1C-93.1 954.1 -26 896.6 41.7 886C109.4 875.5 177.3 897.3 244.4 911.2C311.5 925.2 387 929.8 443 890.4C514.7 840 531.2 733.9 604.9 686.5C662.4 649.6 737.2 660.7 796 688.1C829.3 703.7 857.6 729.8 889.4 748C1033.6 830.5 1043.4 999.1 1165.9 1024.2C1298.6 1051.5 1370.6 986.8 1395.6 941.9C1427.7 884.4 1481.2 735.3 1350.2 631.7C1296.9 589.6 1244.3 544.7 1205.2 489.2C1146.5 406.3 1146.9 279.4 1221.9 210.8C1273.3 163.8 1352.3 146.6 1387.2 86.2999C1410.6 45.7999 1407.4 -6.40015 1387.3 -48.7001C1367.1 -90.9002 1331.9 -124.3 1293.8 -151.4" stroke="#8A8A8A" stroke-width="2" stroke-miterlimit="10"/>
<path id="&#60;Path&#62;_68" d="M-81.7 1025.5C-87.5 955.5 -20.7 895.1 49 883C117.1 871.3 186.1 892.9 253.2 908.3C319.5 923.6 393.1 930.5 449 894.7C520.3 848.8 540.4 748.1 614 701.4C672.6 664.3 746.2 671.2 806.5 695.2C841.1 709 871.8 733.6 905.1 752.1C1046.3 830.3 1057.9 993.5 1177.8 1018.3C1306.7 1044.9 1378.4 983.7 1404.4 939.5C1437.4 883.6 1488.4 739.9 1364.5 637.4C1313.5 595.2 1262.9 549.4 1224.3 494.3C1167.4 413.3 1166.9 290.9 1237.7 222.9C1286.6 175.9 1362.7 156.7 1397.5 97.3C1421.4 56.6 1419.9 5.09995 1402.3 -37.4C1384.5 -80.4 1352 -115.7 1315.4 -144.8" stroke="#909090" stroke-width="2" stroke-miterlimit="10"/>
<path id="&#60;Path&#62;_69" d="M-78.6 1028.8C-81.8 956.9 -15.4 893.5 56.3 880C124.7 867.1 194.9 888.6 262 905.5C327.5 922 399.2 931.2 454.9 898.9C526 857.6 549.4 762.1 623.1 716.2C682.8 678.9 755.4 681.7 816.9 702.3C852.9 714.4 885.9 737.5 920.8 756.2C1058.8 830.4 1072.5 987.8 1189.7 1012.3C1314.9 1038.3 1386.1 980.5 1413.1 937.1C1447 882.7 1495.6 744.3 1378.9 643.2C1330 600.7 1281.4 554.2 1243.5 499.4C1188.3 420.4 1186.8 302.5 1253.4 235.1C1300 188 1373.2 166.9 1407.8 108.2C1432.1 67.3998 1432.4 16.5998 1417.3 -26.2002C1401.9 -69.9002 1372.1 -107.1 1336.9 -138.2" stroke="#959595" stroke-width="2" stroke-miterlimit="10"/>
<path id="&#60;Path&#62;_70" d="M-75.6 1032.2C-76.2 958.4 -10.2 892 63.6 877C132.4 863 203.6 884.2 270.8 902.6C335.5 920.3 405.4 931.9 460.9 903.2C531.6 866.4 558.5 776.3 632.1 731C693 693.6 764.6 692.2 827.4 709.4C864.8 719.7 900.1 741.4 936.5 760.3C1071.2 830.6 1087 982.2 1201.6 1006.3C1323 1031.7 1393.8 977.4 1421.8 934.7C1456.5 881.8 1502.8 748.7 1393.3 648.9C1346.6 606.3 1300 558.8 1262.6 504.5C1209.4 427.3 1206.8 314 1269.1 247.3C1313.3 200.1 1383.6 177 1418.2 119.1C1442.7 78.0999 1444.9 27.9999 1432.3 -15.0001C1419.3 -59.5001 1392.2 -98.5001 1358.5 -131.6" stroke="#9B9B9B" stroke-width="2" stroke-miterlimit="10"/>
<path id="&#60;Path&#62;_71" d="M-72.6 1035.6C-70.5 959.8 -4.89998 890.6 70.9 874C140 859 212.4 879.8 279.5 899.7C343.5 918.6 411.5 932.5 466.8 907.5C537.3 875.2 567.7 790.4 641.2 745.8C703.2 708.2 773.8 702.5 837.9 716.5C876.8 724.9 914.3 745.2 952.2 764.4C1083.6 830.9 1101.6 976.5 1213.5 1000.3C1331.2 1025.1 1401.5 974.3 1430.5 932.3C1466.1 880.9 1510 752.9 1407.7 654.6C1363.1 611.8 1318.6 563.5 1281.7 509.6C1230.3 434.3 1226.7 325.4 1284.9 259.5C1326.6 212.2 1394 187.1 1428.5 130.1C1453.4 88.7998 1457.4 39.4998 1447.3 -3.80025C1436.7 -49.1002 1412.3 -89.9002 1380.1 -125" stroke="#A0A0A0" stroke-width="2" stroke-miterlimit="10"/>
<path id="&#60;Path&#62;_72" d="M-69.5 1039C-64.9 961.3 0.399994 889.1 78.2 871C147.7 854.9 221.2 875.4 288.3 896.8C351.5 916.9 417.7 933.3 472.8 911.7C543 884.2 576.8 804.6 650.2 760.7C713.5 722.9 783.1 712.9 848.4 723.6C888.7 730.2 928.4 749.1 967.9 768.5C1095.8 831.4 1116.1 970.9 1225.3 994.3C1339.3 1018.5 1409.2 971.2 1439.3 929.9C1475.6 880 1517.2 757.1 1422.1 660.4C1379.6 617.2 1337.1 568.3 1300.9 514.7C1251.2 441.3 1246.6 336.8 1300.6 271.6C1340 224.2 1404.5 197.3 1438.8 141C1464.1 99.5998 1470 50.8999 1462.3 7.39986C1454.2 -38.8001 1432.4 -81.3001 1401.7 -118.4" stroke="#A6A6A6" stroke-width="2" stroke-miterlimit="10"/>
<path id="&#60;Path&#62;_73" d="M-66.5 1042.4C-59.3 962.7 5.7 887.7 85.5 868C155.3 850.8 229.9 871 297.1 893.9C359.5 915.2 423.8 934 478.7 916C548.7 893 585.9 818.7 659.3 775.5C723.7 737.5 792.4 723.1 858.8 730.7C900.7 735.4 942.5 753 983.6 772.7C1107.9 832.1 1130.7 965.3 1237.2 988.3C1347.5 1011.9 1416.9 968 1448 927.5C1485.2 879.1 1524.5 761 1436.5 666.1C1396.1 622.7 1355.7 573 1320 519.8C1272.1 448.3 1266.5 348.1 1316.4 283.8C1353.3 236.2 1414.9 207.4 1449.2 151.9C1474.8 110.4 1482.6 62.2 1477.3 18.6C1471.7 -28.5 1452.5 -72.7001 1423.3 -111.8" stroke="#ABABAB" stroke-width="2" stroke-miterlimit="10"/>
<path id="&#60;Path&#62;_74" d="M-63.4 1045.8C-53.6 964.2 11 886.3 92.8 865C163 846.8 238.7 866.5 305.9 891C367.5 913.5 429.9 934.7 484.7 920.3C554.3 901.9 595 832.9 668.4 790.3C733.9 752.2 801.8 733.3 869.3 737.8C912.6 740.6 956.6 757 999.2 776.8C1120 832.8 1145.2 959.6 1249.1 982.3C1355.6 1005.3 1424.5 964.9 1456.7 925.1C1494.7 878.2 1531.9 764.9 1450.9 671.9C1412.7 628 1374.2 577.7 1339.2 524.9C1293 455.4 1286.4 359.4 1332.1 296C1366.6 248.1 1425.4 217.5 1459.5 162.9C1485.6 121.1 1495.2 73.5998 1492.3 29.7998C1489.2 -18.1002 1472.6 -64.1002 1444.8 -105.2" stroke="#B1B1B1" stroke-width="2" stroke-miterlimit="10"/>
<path id="&#60;Path&#62;_75" d="M-60.4 1049.2C-48 965.6 16.2 884.9 100.1 862C170.7 842.8 247.5 862.1 314.7 888.1C375.5 911.7 436 935.4 490.6 924.5C560 910.7 604.2 847.1 677.4 805.1C744.2 766.9 811.1 743.5 879.8 744.8C924.6 745.7 970.7 760.9 1014.9 780.9C1132 833.7 1159.8 954 1261 976.4C1363.7 998.8 1432.2 961.7 1465.5 922.7C1504.1 877.2 1539.4 768.6 1465.3 677.6C1429.2 633.3 1392.8 582.4 1358.3 530C1313.9 462.4 1306.3 370.6 1347.9 308.1C1379.9 260 1435.8 227.7 1469.8 173.8C1496.3 131.9 1507.9 84.8999 1507.4 40.9999C1506.8 -7.80009 1492.7 -55.5001 1466.4 -98.6001" stroke="#B7B7B7" stroke-width="2" stroke-miterlimit="10"/>
<path id="&#60;Path&#62;_76" d="M-57.4 1052.6C-42.3 967 21.5 883.5 107.4 859C178.4 838.8 256.3 857.6 323.4 885.3C383.5 910 442.1 936.1 496.6 928.8C565.6 919.5 613.3 861.3 686.5 820C754.4 781.6 820.5 753.5 890.2 751.9C936.6 750.9 984.8 764.9 1030.6 785C1144 834.7 1174.3 948.3 1272.9 970.4C1371.9 992.2 1439.8 958.6 1474.2 920.3C1513.6 876.3 1546.9 772.1 1479.7 683.4C1445.7 638.6 1411.3 587.2 1377.4 535C1334.8 469.5 1326.1 381.7 1363.6 320.3C1393.2 271.8 1446.3 237.8 1480.2 184.7C1507 142.6 1520.6 96.1998 1522.4 52.1998C1524.4 2.49975 1512.7 -46.9002 1488 -92.0002" stroke="#BCBCBC" stroke-width="2" stroke-miterlimit="10"/>
<path id="&#60;Path&#62;_77" d="M-54.3 1056C-36.7 968.5 26.8 882.1 114.7 856C186 834.9 265.1 853.1 332.2 882.4C391.5 908.2 448.3 936.8 502.5 933.1C571.3 928.4 622.5 875.5 695.5 834.8C764.7 796.3 829.8 763.6 900.7 759C948.5 755.9 998.8 768.9 1046.3 789.1C1155.9 835.7 1188.9 942.7 1284.8 964.4C1380 985.6 1447.4 955.4 1482.9 917.9C1523.1 875.4 1554.5 775.5 1494 689.1C1462.2 643.7 1429.8 591.9 1396.6 540.1C1355.7 476.5 1345.8 392.8 1379.3 332.5C1406.5 283.7 1456.8 248 1490.5 195.7C1517.7 153.4 1533.3 107.6 1537.4 63.3999C1542.1 12.7999 1532.8 -38.4001 1509.6 -85.4001" stroke="#C2C2C2" stroke-width="2" stroke-miterlimit="10"/>
<path id="&#60;Path&#62;_78" d="M-51.3 1059.4C-31 969.9 32.1 880.8 122 853C193.7 830.9 273.8 848.6 341 879.5C399.5 906.4 454.4 937.5 508.5 937.4C576.9 937.2 631.7 889.7 704.6 849.6C774.9 811 839.1 773.6 911.2 766.1C960.5 761 1012.9 772.9 1062 793.2C1167.8 836.9 1203.4 937.1 1296.7 958.4C1388.2 979 1455 952.3 1491.6 915.5C1532.5 874.4 1562.3 778.7 1508.4 694.9C1478.8 648.8 1448.4 596.7 1415.7 545.2C1376.6 483.6 1365.5 403.9 1395.1 344.6C1419.7 295.4 1467.3 258.1 1500.8 206.6C1528.4 164.2 1546.1 118.9 1552.4 74.5999C1559.8 23.0999 1552.9 -29.8 1531.2 -78.8" stroke="#C7C7C7" stroke-width="2" stroke-miterlimit="10"/>
<path id="&#60;Path&#62;_79" d="M-48.2 1062.8C-25.4 971.4 37.5 879.5 129.3 850C201.4 826.9 282.7 844 349.8 876.6C407.6 904.6 460.5 938.2 514.4 941.6C582.6 946 640.8 903.9 713.7 864.4C785.2 825.7 848.5 783.5 921.7 773.2C972.5 766 1026.9 777 1077.7 797.3C1179.6 838.1 1217.9 931.6 1308.5 952.4C1396.3 972.6 1462.6 949.1 1500.4 913.1C1541.9 873.4 1570.3 781.8 1522.8 700.6C1495.5 653.9 1466.9 601.4 1434.9 550.3C1397.5 490.6 1385.1 414.8 1410.8 356.8C1432.9 307.2 1477.8 268.3 1511.1 217.6C1539.2 175 1558.9 130.3 1567.4 85.7999C1577.5 33.3999 1573 -21.2001 1552.7 -72.1001" stroke="#CDCDCD" stroke-width="2" stroke-miterlimit="10"/>
<path id="&#60;Path&#62;_80" d="M-45.2 1066.2C-19.7 972.8 42.8 878.2 136.6 847C209.1 823 291.5 839.5 358.6 873.7C415.6 902.8 466.6 938.8 520.4 945.9C588.2 954.8 650 918.1 722.7 879.3C795.5 840.4 857.8 793.5 932.1 780.3C984.4 771 1040.9 781.1 1093.4 801.4C1191.4 839.4 1232.5 926 1320.4 946.4C1404.4 966 1470.2 945.9 1509.1 910.7C1551.3 872.4 1578.4 784.7 1537.2 706.4C1512.2 658.8 1485.4 606.2 1454 555.4C1418.3 497.7 1404.6 425.8 1426.6 369C1446 318.8 1488.3 278.5 1521.5 228.5C1549.9 185.7 1571.7 141.6 1582.4 96.9998C1595.2 43.6998 1593.1 -12.6002 1574.3 -65.5002" stroke="#D2D2D2" stroke-width="2" stroke-miterlimit="10"/>
<path id="&#60;Path&#62;_81" d="M-42.1 1069.6C-14.1 974.2 48.1 876.9 143.9 844C216.8 819.1 300.3 834.9 367.4 870.8C423.7 900.9 472.7 939.5 526.3 950.2C593.9 963.6 659.1 932.4 731.8 894.1C805.7 855.1 867.1 803.4 942.6 787.4C996.4 776 1054.9 785.3 1109.1 805.6C1203.2 840.8 1247 920.3 1332.3 940.5C1412.6 959.4 1477.8 942.6 1517.8 908.2C1560.7 871.4 1586.7 787.5 1551.6 712.1C1529 663.7 1503.9 610.9 1473.1 560.5C1439.2 504.8 1424 436.6 1442.3 381.2C1459 330.5 1498.8 288.6 1531.8 239.4C1560.6 196.5 1584.5 153 1597.4 108.2C1613 54.0999 1613.2 -4.00014 1595.9 -58.9001" stroke="#D8D8D8" stroke-width="2" stroke-miterlimit="10"/>
<path id="&#60;Path&#62;_82" d="M-39.1 1073C-8.39997 975.7 53.4 875.6 151.2 841C224.5 815.2 309.1 830.4 376.1 867.9C431.7 899.1 478.9 940.2 532.3 954.4C599.5 972.4 668.3 946.6 740.8 908.9C816 869.8 876.3 813.3 953.1 794.5C1008.3 780.9 1068.9 789.5 1124.8 809.7C1215 842.2 1261.6 914.7 1344.2 934.5C1420.7 952.8 1485.3 939.4 1526.5 905.8C1570.1 870.4 1595.3 790.2 1566 717.9C1546 668.5 1522.4 615.7 1492.3 565.6C1460 511.8 1443.4 447.5 1458.1 393.3C1471.9 342.1 1509.3 298.8 1542.1 250.4C1571.4 207.3 1597.4 164.4 1612.5 119.4C1630.8 64.3999 1633.3 4.59995 1617.5 -52.3" stroke="#DEDEDE" stroke-width="2" stroke-miterlimit="10"/>
<path id="&#60;Path&#62;_83" d="M-36.1 1076.4C-2.79998 977.1 58.8 874.4 158.5 838.1C232.2 811.2 318 825.8 384.9 865C439.8 897.2 485 940.8 538.2 958.7C605.2 981.2 677.5 960.8 749.9 923.7C826.3 884.6 885.6 823.1 963.5 801.6C1020.2 785.9 1082.9 793.8 1140.5 813.8C1226.8 843.7 1276.1 909 1356.1 928.5C1428.8 946.2 1492.9 936.1 1535.3 903.4C1579.5 869.3 1604 792.8 1580.4 723.6C1563.2 673.3 1540.9 620.4 1511.4 570.7C1480.8 518.9 1462.6 458.4 1473.8 405.5C1484.7 353.8 1519.8 309 1552.5 261.3C1582.1 218.1 1610.3 175.8 1627.5 130.6C1648.7 74.7998 1653.4 13.1998 1639.1 -45.7002" stroke="#E3E3E3" stroke-width="2" stroke-miterlimit="10"/>
<path id="&#60;Path&#62;_84" d="M-33 1079.8C2.9 978.6 64.1 873.1 165.8 835.1C239.9 807.3 326.8 821.2 393.7 862.2C447.8 895.4 491.1 941.4 544.2 963C610.9 989.8 686.7 975.1 759 938.6C836.6 899.3 894.8 833 974 808.6C1032.1 790.8 1096.8 798.1 1156.2 817.9C1238.5 845.3 1290.7 903.2 1368 922.5C1437 939.4 1500.4 932.9 1544 901C1588.8 868.3 1613 795.4 1594.8 729.4C1580.6 678.1 1559.3 625.2 1530.6 575.7C1501.7 526 1481.7 469.3 1489.5 417.7C1497.4 365.4 1530.3 319.2 1562.8 272.2C1592.9 228.9 1623.2 187.3 1642.5 141.8C1666.5 85.2999 1673.5 21.7999 1660.6 -39.1001" stroke="#E9E9E9" stroke-width="2" stroke-miterlimit="10"/>
<path id="&#60;Path&#62;_85" d="M-30 1083.2C8.5 980 69.5 871.9 173.1 832.1C247.6 803.4 335.7 816.5 402.5 859.3C455.9 893.5 497.3 942.1 550.1 967.2C616.6 998.7 695.9 989.3 768 953.4C846.8 914.1 904 842.8 984.5 815.7C1043.9 795.7 1110.7 802.6 1171.9 822C1250.3 846.9 1305.3 897.6 1379.9 916.5C1445.2 932.9 1507.9 929.6 1552.7 898.6C1598.2 867.2 1622.3 798.1 1609.2 735.1C1598.2 682.8 1577.8 630 1549.7 580.8C1522.5 533.1 1500.8 480.2 1505.3 429.8C1510 377.1 1540.8 329.3 1573.1 283.2C1603.6 239.7 1636.1 198.7 1657.5 153C1684.4 95.6998 1693.5 30.3998 1682.2 -32.5002" stroke="#EEEEEE" stroke-width="2" stroke-miterlimit="10"/>
<path id="&#60;Path&#62;_86" d="M-26.9 1086.6C14.1 981.5 74.8 870.6 180.4 829.1C255.3 799.6 344.6 811.9 411.3 856.4C464 891.6 503.4 942.8 556.1 971.5C622.2 1007.5 705.1 1003.7 777.1 968.2C857.2 929 913.2 852.6 994.9 822.8C1055.8 800.6 1124.6 807.1 1187.6 826.1C1262 848.6 1319.8 892 1391.8 910.5C1453.3 926.3 1515.4 926.3 1561.4 896.2C1607.5 866.1 1631.8 800.9 1623.6 740.9C1616.2 687.6 1596.2 634.8 1568.9 585.9C1543.2 540.2 1519.7 491.1 1521 442C1522.4 388.8 1551.4 339.6 1583.5 294.1C1614.5 250.5 1649 210.2 1672.5 164.2C1702.2 106.2 1713.6 38.9999 1703.8 -25.9001" stroke="#F4F4F4" stroke-width="2" stroke-miterlimit="10"/>
<path id="&#60;Path&#62;_87" d="M-23.9 1089.9C19.8 982.9 80.2 869.6 187.7 826.1C263.1 795.8 353.5 807.2 420 853.5C472.1 889.7 509.5 943.4 562 975.8C627.9 1016.3 714.3 1017.9 786.1 983C867.5 943.7 922.4 862.4 1005.4 829.9C1067.7 805.5 1138.5 811.8 1203.3 830.2C1273.8 850.3 1334.4 886.3 1403.6 904.5C1461.5 919.7 1523 922.9 1570.2 893.8C1616.9 865 1641.5 803.9 1637.9 746.6C1634.5 692.5 1614.7 639.6 1588 591C1564 547.3 1538.6 502.2 1536.8 454.2C1534.7 400.5 1561.9 349.7 1593.8 305C1625.2 261.3 1661.9 221.7 1687.5 175.4C1720.1 116.7 1733.7 47.6 1725.4 -19.3" stroke="#F9F9F9" stroke-width="2" stroke-miterlimit="10"/>
<path id="&#60;Path&#62;_88" d="M-20.9 1093.3C25.4 984.3 85.6 868.2 195 823.1C270.8 791.8 362.4 802.6 428.8 850.6C480.3 887.8 515.7 944.1 568 980.1C633.5 1025.1 723.4 1032.2 795.2 997.9C877.7 958.4 931.5 872.3 1015.9 837C1079.5 810.4 1152.3 816.6 1219 834.3C1285.6 852.1 1348.9 880.7 1415.5 898.6C1469.6 913.1 1530.5 919.6 1578.9 891.4C1626.3 863.9 1651.5 807.2 1652.3 752.4C1653.2 697.5 1633 644.4 1607.1 596.1C1584.8 554.4 1557.4 513.4 1552.5 466.4C1546.9 412.4 1572.3 359.9 1604.1 316C1635.9 272.1 1674.8 233.2 1702.5 186.6C1738 127.2 1753.8 56.1998 1747 -12.7002" stroke="white" stroke-width="2" stroke-miterlimit="10"/>
</g>
<g id="&#60;Group&#62;_6" style="mix-blend-mode:multiply">
<path id="&#60;Path&#62;_89" d="M772.1 1499.3C713.8 1463.3 711.1 1374.9 745.2 1315.5C779.4 1256.1 839 1216.9 891.9 1173.3C944.8 1129.8 995.7 1073.9 1000.1 1005.5C1005.7 918.1 933.4 838.7 942.6 751.6C949.8 683.7 1005.3 632.3 1063.6 603.6C1096.5 587.4 1134.6 581.7 1168.7 568.3C1323.4 507.6 1460.9 605.7 1557.3 525.9C1661.6 439.5 1656.3 342.9 1637 295.3C1612.3 234.2 1529.6 99.0999 1366.7 136.3C1300.6 151.5 1232.6 164.3 1164.9 160.1C1063.5 153.8 964.8 73.9999 958.3 -27.4001C953.9 -96.9001 990 -169.2 964.9 -234.2C948 -277.8 905.3 -308 859.7 -318.8C814.2 -329.5 766.1 -323.1 721.1 -310.3" stroke="white" stroke-width="2" stroke-miterlimit="10"/>
<path id="&#60;Path&#62;_90" d="M776.6 1499.1C718.5 1459.8 713.2 1369.8 747.5 1308C781 1247.6 841.1 1207.3 895.1 1164.7C948.6 1122.6 1000.1 1069.5 1007.1 1003.5C1016.1 919.2 950.2 840.4 959.9 753.8C967.7 684.9 1019.2 631.8 1075.7 599.9C1108.1 581.6 1146.5 573.1 1181.8 558.7C1331.2 497.6 1465.6 590.8 1560.1 512.9C1661.6 429.1 1658.7 334.9 1640.6 286.9C1617.7 226.2 1537.7 96.3998 1380.2 128.7C1315.3 142.1 1247.9 152.9 1180.9 148.4C1082 142 986.3 65.6998 977.7 -32.0002C971.7 -99.7002 1004.4 -171 979.9 -235.4C963.1 -279.4 922.1 -310.5 877.9 -323.5C833.2 -336.5 785.4 -333.3 739.7 -323" stroke="#FBFBFB" stroke-width="2" stroke-miterlimit="10"/>
<path id="&#60;Path&#62;_91" d="M781.2 1498.8C723.1 1456.3 715.3 1364.8 749.7 1300.4C782.5 1239 843.2 1197.7 898.4 1156C952.3 1115.3 1004.4 1065.2 1014.2 1001.6C1026.5 920.3 966.8 842.2 977.1 756C985.5 686.1 1033.1 631.3 1087.7 596.2C1119.7 575.7 1158.4 564.5 1194.8 549C1339.1 487.9 1470.4 575.9 1562.9 499.9C1661.6 418.6 1661.2 326.9 1644.2 278.6C1623 218.2 1545.6 93.5998 1393.7 121.1C1330 132.6 1263.2 141.4 1196.8 136.7C1100.6 130.1 1007.8 57.3998 997 -36.7002C989.5 -102.5 1018.9 -172.8 994.9 -236.6C978.2 -281.1 938.8 -313.1 896 -328.2C852.3 -343.5 804.7 -343.6 758.4 -335.7" stroke="#F6F6F6" stroke-width="2" stroke-miterlimit="10"/>
<path id="&#60;Path&#62;_92" d="M785.7 1498.6C727.8 1452.8 717.4 1359.7 752 1292.8C784.1 1230.5 845.3 1188.2 901.6 1147.4C956 1108 1008.8 1060.8 1021.2 999.6C1036.9 921.4 983.5 843.9 994.3 758.2C1003.3 687.3 1047 630.7 1099.8 592.5C1131.3 569.7 1170.3 555.8 1207.8 539.4C1347 478.3 1475.1 561 1565.6 486.9C1661.5 408.1 1663.6 318.9 1647.8 270.3C1628.3 210.1 1553.6 90.7 1407.2 113.5C1344.7 123.2 1278.6 129.8 1212.8 124.9C1119.2 118 1029.3 49 1016.4 -41.3C1007.3 -105.3 1033.3 -174.6 1009.9 -237.8C993.2 -282.6 955.6 -315.7 914.1 -332.8C871.3 -350.6 824 -353.9 777.1 -348.3" stroke="#F2F2F2" stroke-width="2" stroke-miterlimit="10"/>
<path id="&#60;Path&#62;_93" d="M790.3 1498.3C732.4 1449.3 719.6 1354.7 754.2 1285.3C785.7 1221.9 847.3 1178.6 904.9 1138.7C959.7 1100.8 1013.2 1056.5 1028.3 997.6C1047.3 922.5 1000.2 845.7 1011.5 760.5C1021.1 688.5 1060.9 630 1111.9 588.8C1142.9 563.8 1182.2 547.3 1220.9 529.7C1355 469 1479.8 546.2 1568.4 473.8C1661.5 397.6 1666 311 1651.4 262C1633.6 202.1 1561.4 87.7997 1420.7 105.9C1359.4 113.8 1293.9 118.3 1228.7 113.2C1137.8 106.1 1050.7 40.6998 1035.7 -46.0002C1025 -108.1 1047.7 -176.3 1024.9 -239C1008.3 -284.2 972.4 -318.3 932.3 -337.5C890.3 -357.7 843.2 -364.2 795.7 -361" stroke="#EEEEEE" stroke-width="2" stroke-miterlimit="10"/>
<path id="&#60;Path&#62;_94" d="M794.8 1498.1C737.1 1445.8 721.8 1349.7 756.4 1277.7C787.4 1213.4 849.4 1169 908.1 1130.1C963.4 1093.5 1017.7 1052.2 1035.3 995.7C1057.9 923.7 1017 847.5 1028.8 762.7C1038.9 689.7 1074.8 629.2 1124 585C1154.4 557.8 1194.1 538.7 1233.9 520.1C1363.1 459.8 1484.5 531.3 1571.2 460.8C1661.5 387.2 1668.3 303 1655 253.7C1638.9 194.1 1569.1 84.6997 1434.2 98.2997C1374 104.3 1309.2 106.8 1244.7 101.5C1156.4 94.1998 1072 32.2998 1055.1 -50.6003C1042.7 -111 1062.2 -178.1 1039.8 -240.2C1023.4 -285.8 989.1 -320.9 950.4 -342.2C909.4 -364.8 862.5 -374.4 814.4 -373.7" stroke="#E9E9E9" stroke-width="2" stroke-miterlimit="10"/>
<path id="&#60;Path&#62;_95" d="M799.4 1497.8C741.8 1442.3 724 1344.7 758.7 1270.1C789 1204.9 851.4 1159.4 911.4 1121.4C967.1 1086.2 1022 1047.8 1042.4 993.7C1068.3 924.8 1033.7 849.2 1046 764.9C1056.8 690.9 1088.6 628.3 1136.1 581.3C1166 551.7 1205.9 530.1 1246.9 510.4C1371.2 450.7 1489.2 516.4 1574 447.8C1661.4 376.7 1670.7 295.1 1658.6 245.4C1644.2 186.1 1576.8 81.4998 1447.7 90.6998C1388.5 94.8998 1324.5 95.2998 1260.6 89.6998C1175 82.2998 1093.3 23.8999 1074.4 -55.3001C1060.4 -113.9 1076.6 -179.9 1054.8 -241.4C1038.5 -287.4 1005.8 -323.6 968.6 -346.9C928.4 -372 881.8 -384.7 833.1 -386.4" stroke="#E5E5E5" stroke-width="2" stroke-miterlimit="10"/>
<path id="&#60;Path&#62;_96" d="M803.9 1497.6C746.4 1438.8 726.2 1339.7 760.9 1262.6C790.7 1196.4 853.5 1149.8 914.7 1112.8C970.8 1078.8 1026.4 1043.5 1049.5 991.7C1078.8 925.9 1050.5 851 1063.2 767.1C1074.6 692.2 1102.4 627.5 1148.2 577.6C1177.5 545.6 1217.8 521.6 1260 500.8C1379.3 441.7 1494 501.5 1576.8 434.8C1661.4 366.2 1673.1 287.1 1662.2 237.1C1649.4 178.2 1582.7 61.6999 1461.2 82.9999C1403.9 93.0999 1339.8 83.7999 1276.6 77.9999C1193.5 70.3999 1114.6 15.3999 1093.8 -59.9001C1078.1 -116.8 1091.1 -181.7 1069.8 -242.6C1053.6 -289 1022.6 -326.3 986.7 -351.6C947.4 -379.2 901.1 -395 851.7 -399.1" stroke="#E1E1E1" stroke-width="2" stroke-miterlimit="10"/>
<path id="&#60;Path&#62;_97" d="M808.5 1497.4C751.1 1435.3 728.4 1334.7 763.1 1255C792.4 1187.9 855.5 1140.1 917.9 1104.1C974.4 1071.5 1030.8 1039.1 1056.5 989.8C1089.2 927 1067.3 852.7 1080.5 769.4C1092.5 693.4 1116.2 626.5 1160.3 573.9C1189 539.5 1229.7 513.1 1273 491.1C1387.5 432.9 1498.7 486.7 1579.5 421.8C1661.4 355.7 1675.4 279.2 1665.8 228.8C1654.6 170.2 1590.5 56.7999 1474.7 75.3999C1418.2 84.4999 1355.1 72.2999 1292.6 66.2999C1212.1 58.4999 1135.7 6.99993 1113.1 -64.6001C1095.7 -119.7 1105.5 -183.5 1084.8 -243.8C1068.7 -290.7 1039.4 -329.1 1004.8 -356.2C966.4 -386.4 920.4 -405.3 870.4 -411.8" stroke="#DCDCDC" stroke-width="2" stroke-miterlimit="10"/>
<path id="&#60;Path&#62;_98" d="M813 1497.1C755.8 1431.8 730.7 1329.7 765.4 1247.4C794.1 1179.5 857.5 1130.5 921.2 1095.5C978.1 1064.1 1035.2 1034.8 1063.6 987.8C1099.6 928.2 1084.1 854.5 1097.7 771.6C1110.3 694.6 1129.9 625.6 1172.3 570.2C1200.5 533.4 1241.7 504.6 1286.1 481.4C1395.8 424.2 1503.4 471.8 1582.3 408.8C1661.3 345.3 1677.7 271.3 1669.4 220.5C1659.8 162.2 1598.4 52.0999 1488.2 67.7999C1432.5 75.6999 1370.4 60.7998 1308.5 54.4998C1230.7 46.6998 1156.8 -1.40013 1132.5 -69.2001C1113.3 -122.6 1120 -185.3 1099.8 -245C1083.8 -292.3 1056.2 -331.9 1023 -360.9C985.5 -393.7 939.7 -415.5 889.1 -424.4" stroke="#D8D8D8" stroke-width="2" stroke-miterlimit="10"/>
<path id="&#60;Path&#62;_99" d="M817.6 1496.9C760.4 1428.3 732.9 1324.7 767.6 1239.8C795.8 1171 859.5 1120.8 924.4 1086.8C981.7 1056.8 1039.5 1030.5 1070.6 985.9C1110 929.3 1100.9 856.3 1114.9 773.8C1128.2 695.8 1143.6 624.6 1184.4 566.4C1212 527.2 1253.6 496.2 1299.1 471.8C1404.1 415.6 1508.1 456.9 1585.1 395.8C1661.3 334.8 1680 263.4 1673 212.2C1665 154.3 1606.4 47.5999 1501.7 60.1999C1446.6 66.7999 1385.7 49.2999 1324.5 42.7999C1249.3 34.7999 1177.9 -9.90011 1151.8 -73.8001C1130.8 -125.6 1134.5 -187.1 1114.8 -246.2C1098.9 -293.9 1073 -334.7 1041.1 -365.6C1004.6 -401 958.9 -425.8 907.7 -437.1" stroke="#D4D4D4" stroke-width="2" stroke-miterlimit="10"/>
<path id="&#60;Path&#62;_100" d="M822.1 1496.6C765.1 1424.8 735.2 1319.7 769.9 1232.3C797.5 1162.5 861.5 1111.1 927.7 1078.2C985.3 1049.4 1043.9 1026.1 1077.7 983.9C1120.4 930.4 1117.7 858 1132.2 776C1146.1 697 1157.2 623.5 1196.5 562.7C1223.4 521.1 1265.5 487.7 1312.1 462.1C1412.4 407.1 1512.8 442 1587.9 382.7C1661.3 324.3 1682.3 255.5 1676.6 203.9C1670.2 146.3 1614.3 63.0999 1515.2 52.5999C1460.7 46.7999 1401 37.8999 1340.4 31.0999C1267.9 22.8999 1198.8 -18.3001 1171.2 -78.5001C1148.2 -128.5 1149 -188.9 1129.8 -247.4C1114.1 -295.5 1089.8 -337.6 1059.2 -370.3C1023.7 -408.3 978.2 -436.1 926.4 -449.8" stroke="#CFCFCF" stroke-width="2" stroke-miterlimit="10"/>
<path id="&#60;Path&#62;_101" d="M826.7 1496.4C769.7 1421.3 737.5 1314.8 772.1 1224.7C799.2 1154 863.5 1101.4 930.9 1069.5C988.9 1042 1048.3 1021.8 1084.7 981.9C1130.8 931.5 1134.5 859.8 1149.4 778.3C1164 698.2 1170.8 622.5 1208.6 559C1234.8 514.9 1277.5 479.3 1325.2 452.5C1420.8 398.6 1517.7 427.3 1590.7 369.7C1661.3 314 1684.6 247.5 1680.2 195.6C1675.3 138.4 1621.6 58.8 1528.7 45C1475.1 37 1416.3 26.4 1356.4 19.3C1286.4 11.1 1219.6 -26.7 1190.5 -83.1C1165.6 -131.4 1163.5 -190.8 1144.8 -248.6C1129.2 -297.1 1106.7 -340.4 1077.4 -375C1042.8 -415.7 997.5 -446.3 945.1 -462.5" stroke="#CBCBCB" stroke-width="2" stroke-miterlimit="10"/>
<path id="&#60;Path&#62;_102" d="M831.2 1496.1C774.4 1417.8 739.8 1309.8 774.3 1217.1C801 1145.6 865.5 1091.7 934.2 1060.8C992.5 1034.6 1052.6 1017.4 1091.8 980C1141.2 932.7 1151.3 861.5 1166.6 780.5C1181.9 699.5 1184.4 621.5 1220.7 555.3C1246.2 508.7 1289.5 471 1338.2 442.8C1429.2 390.2 1522.4 412.4 1593.5 356.7C1661.3 303.5 1686.8 239.6 1683.7 187.3C1680.4 130.4 1629 54.2998 1542.2 37.2998C1489.4 27.0998 1431.6 14.9998 1372.3 7.59982C1305 -0.700177 1240.4 -35.1002 1209.9 -87.8002C1182.9 -134.3 1178 -192.6 1159.8 -249.8C1144.3 -298.7 1123.6 -343.3 1095.5 -379.7C1062 -423 1016.8 -456.6 963.7 -475.2" stroke="#C7C7C7" stroke-width="2" stroke-miterlimit="10"/>
<path id="&#60;Path&#62;_103" d="M835.8 1495.9C779.1 1414.3 742.1 1304.8 776.6 1209.6C802.8 1137.1 867.4 1082 937.4 1052.2C996.2 1027.2 1057 1013.1 1098.8 978C1151.6 933.8 1168.2 863.3 1183.9 782.7C1199.8 700.7 1197.9 620.5 1232.8 551.6C1257.6 502.5 1301.5 462.7 1351.2 433.2C1437.7 381.9 1527.1 397.6 1596.2 343.7C1661.3 293 1689.1 231.7 1687.3 179C1685.5 122.4 1636.4 49.5998 1555.6 29.6998C1503.8 16.9998 1446.9 3.49984 1388.3 -4.10016C1323.6 -12.5002 1261 -43.4001 1229.2 -92.4001C1200.2 -137.2 1192.5 -194.4 1174.8 -251C1159.4 -300.3 1140.5 -346.2 1113.7 -384.3C1081.2 -430.4 1036.1 -466.9 982.4 -487.9" stroke="#C2C2C2" stroke-width="2" stroke-miterlimit="10"/>
<path id="&#60;Path&#62;_104" d="M840.3 1495.6C783.7 1410.8 744.5 1299.9 778.8 1202C804.5 1128.7 869.4 1072.2 940.7 1043.5C999.8 1019.7 1061.3 1008.7 1105.9 976C1162 934.9 1185 865.1 1201.1 785C1217.7 701.9 1211.4 619.4 1244.8 547.8C1268.9 496.3 1313.5 454.4 1364.3 423.5C1446.2 373.6 1531.8 382.7 1599 330.7C1661.2 282.5 1691.3 223.8 1690.9 170.6C1690.6 114.5 1643.8 44.6 1569.1 22.1C1518.2 6.79998 1462.2 -7.89999 1404.3 -15.8C1342.2 -24.3 1281.6 -51.7 1248.6 -97.1C1217.3 -139.9 1207 -196.2 1189.8 -252.2C1174.6 -301.9 1157.5 -349.1 1131.8 -389C1100.5 -437.8 1055.4 -477.2 1001.1 -500.5" stroke="#BEBEBE" stroke-width="2" stroke-miterlimit="10"/>
<path id="&#60;Path&#62;_105" d="M844.9 1495.4C788.4 1407.3 746.8 1294.9 781 1194.4C806.3 1120.2 871.4 1062.5 943.9 1034.9C1003.4 1012.3 1065.7 1004.4 1113 974.1C1172.4 936 1201.9 866.9 1218.3 787.2C1235.7 703.1 1224.9 618.4 1256.9 544.1C1280.2 490.2 1325.6 446.2 1377.3 413.9C1454.7 365.4 1536.5 367.8 1601.8 317.7C1661.2 272.1 1693.5 215.9 1694.5 162.3C1695.6 106.5 1651.4 39.3998 1582.6 14.4998C1532.7 -3.60018 1477.5 -19.3002 1420.2 -27.6002C1360.7 -36.1002 1302.1 -59.9002 1267.9 -101.7C1234.4 -142.7 1221.5 -198 1204.8 -253.4C1189.7 -303.6 1174.4 -352 1149.9 -393.7C1119.7 -445.2 1074.7 -487.4 1019.7 -513.2" stroke="#BABABA" stroke-width="2" stroke-miterlimit="10"/>
<path id="&#60;Path&#62;_106" d="M849.4 1495.2C793 1403.8 749.2 1290 783.3 1186.9C808.1 1111.8 873.3 1052.7 947.2 1026.2C1007 1004.8 1070 999.9 1120 972.1C1182.8 936.9 1218.7 868.6 1235.5 789.4C1253.6 704.4 1238.4 617.4 1269 540.4C1291.5 484 1337.8 438.1 1390.4 404.2C1463.3 357.2 1541.2 352.8 1604.6 304.7C1661 261.5 1695.6 208 1698.1 154C1700.7 98.5999 1659.1 33.9999 1596.1 6.8999C1547.3 -14.2001 1492.8 -30.7001 1436.2 -39.3001C1379.3 -47.9001 1322.6 -68.0001 1287.3 -106.4C1251.5 -145.3 1236 -199.8 1219.8 -254.6C1204.8 -305.2 1191.4 -354.9 1168.1 -398.4C1139 -452.5 1093.9 -497.7 1038.4 -525.9" stroke="#B5B5B5" stroke-width="2" stroke-miterlimit="10"/>
<path id="&#60;Path&#62;_107" d="M854 1494.9C797.7 1400.3 751.6 1285 785.5 1179.3C809.9 1103.3 875.3 1042.9 950.4 1017.6C1010.6 997.3 1074.3 995.6 1127.1 970.2C1193.2 938.1 1235.6 870.4 1252.8 791.6C1271.5 705.6 1251.8 616.4 1281.1 536.7C1302.8 477.8 1349.9 430 1403.4 394.5C1471.9 349 1545.9 337.9 1607.4 291.6C1661 251 1697.8 200 1701.7 145.7C1705.7 90.5999 1667 28.4999 1609.6 -0.700134C1562 -25.0001 1508.1 -42.1001 1452.1 -51.0001C1397.9 -59.7001 1343 -76.0001 1306.6 -111C1268.4 -147.8 1250.5 -201.6 1234.8 -255.8C1220 -306.8 1208.4 -357.7 1186.2 -403.1C1158.4 -459.9 1113.2 -508 1057.1 -538.6" stroke="#B1B1B1" stroke-width="2" stroke-miterlimit="10"/>
<path id="&#60;Path&#62;_108" d="M858.5 1494.7C802.4 1396.8 754 1280.1 787.8 1171.7C811.7 1094.9 877.2 1033 953.7 1008.9C1014.2 989.9 1078.7 991.2 1134.1 968.2C1203.6 939.2 1252.6 872.2 1270 793.9C1289.7 706.9 1265.2 615.4 1293.2 533C1314 471.6 1362.2 422.1 1416.4 384.9C1480.6 340.9 1550.6 323 1610.1 278.6C1661 240.5 1699.9 192.1 1705.3 137.4C1710.7 82.5999 1675.1 22.8 1623.1 -8.30005C1577 -36 1523.3 -53.5 1468.1 -62.8C1416.4 -71.4 1363.4 -83.8001 1326 -115.7C1285.3 -150.1 1265.1 -203.5 1249.8 -257C1235.2 -308.5 1225.4 -360.6 1204.3 -407.8C1177.7 -467.3 1132.5 -518.3 1075.8 -551.3" stroke="#ADADAD" stroke-width="2" stroke-miterlimit="10"/>
<path id="&#60;Path&#62;_109" d="M863.1 1494.4C807 1393.3 756.6 1275.2 790 1164.2C813.6 1086.4 879.2 1023.2 956.9 1000.3C1017.8 982.3 1083.1 986.9 1141.2 966.2C1214 940.3 1269.4 874 1287.2 796.1C1307.6 708.1 1278.6 614.4 1305.3 529.2C1325.3 465.4 1374.5 414.2 1429.5 375.2C1489.3 332.8 1555.3 308.2 1612.9 265.6C1660.9 230 1702 184.1 1708.9 129.1C1715.7 74.6 1683.5 17.1 1636.6 -16C1592.3 -47.2 1538.6 -64.8 1484.1 -74.5C1435 -83.2 1383.9 -91.6 1345.3 -120.3C1302.2 -152.3 1279.6 -205.3 1264.8 -258.2C1250.4 -310.1 1242.5 -363.5 1222.5 -412.4C1197.1 -474.7 1151.8 -528.5 1094.4 -564" stroke="#A8A8A8" stroke-width="2" stroke-miterlimit="10"/>
<path id="&#60;Path&#62;_110" d="M867.6 1494.2C811.7 1389.8 758.9 1270.2 792.2 1156.6C815.3 1077.9 881.1 1013.3 960.2 991.6C1021.4 974.8 1087.5 982.5 1148.2 964.3C1224.4 941.4 1286.2 875.8 1304.5 798.3C1325.4 709.3 1292 613.4 1317.4 525.5C1336.5 459.3 1387 406.4 1442.5 365.6C1498.1 324.8 1560 293.3 1615.7 252.6C1660.9 219.6 1704.1 176.2 1712.5 120.8C1720.7 66.5999 1692.3 11.4999 1650.1 -23.6001C1607.9 -58.6001 1553.9 -76.2001 1500 -86.2001C1453.5 -94.9001 1404.3 -99.3001 1364.7 -124.9C1319.1 -154.4 1294.1 -207.1 1279.8 -259.4C1265.5 -311.7 1259.5 -366.3 1240.6 -417.1C1216.5 -482 1171.1 -538.8 1113.1 -576.6" stroke="#A4A4A4" stroke-width="2" stroke-miterlimit="10"/>
</g>
</g>
</g>
</g>
</g>
</g>
</g>
<defs>
<clipPath id="clip0_30_2">
<rect width="1500" height="1000" fill="white"/>
</clipPath>
</defs>
</svg>
