<svg width="915" height="626" viewBox="0 0 915 626" fill="none" xmlns="http://www.w3.org/2000/svg">
<path fill-rule="evenodd" clip-rule="evenodd" d="M489.8 126C489.867 130.2 489.567 134.333 488.9 138.4L502.7 148.6L484.7 183.6L468.6 178.4C465.6 181.467 462.333 184.267 458.8 186.8L461.3 203.4L423.8 215.4L416.2 200.4C411.867 200.4 407.567 200.033 403.3 199.3L393.3 212.9L358.3 194.9L363.6 178.5C360.733 175.567 358.1 172.367 355.7 168.9L338.5 171.5L326.5 134L342.4 125.9C342.467 121.967 342.833 118.067 343.5 114.2L329.1 103.5L347.1 68.5L364.5 74.1C367.167 71.5 370.067 69.0667 373.2 66.8L370.5 48.7L407.9 36.7L416.3 53C420.1 53 423.867 53.3 427.6 53.9L438.5 39.3L473.4 57.3L467.9 74.3C470.7 77.1 473.267 80.1 475.6 83.3L493.2 80.6L505.2 118.1L489.8 126ZM456.9 113.7C449.7 91.1 425.6 78.7 403 85.9C380.5 93.2 368.1 117.3 375.3 139.8C382.5 162.4 406.6 174.8 429.2 167.6C451.7 160.4 464.2 136.2 456.9 113.7Z" fill="#98AAC9"/>
<path fill-rule="evenodd" clip-rule="evenodd" d="M463.4 126C463.467 128.733 463.267 131.4 462.8 134L471.7 140.6L460.1 163.1L449.8 159.7C447.867 161.7 445.767 163.5 443.5 165.1L445.1 175.8L421 183.5L416.1 173.9C413.3 173.9 410.533 173.667 407.8 173.2L401.4 181.9L378.9 170.3L382.3 159.8C380.433 157.867 378.733 155.8 377.2 153.6L366.1 155.3L358.4 131.2L368.6 126C368.667 123.4 368.9 120.867 369.3 118.4L360.1 111.5L371.6 89L382.8 92.7C384.533 90.9667 386.4 89.4 388.4 88L386.7 76.3L410.8 68.6L416.1 79.1C418.567 79.1 421 79.3 423.4 79.7L430.4 70.2L452.9 81.8L449.3 92.8C451.1 94.5333 452.767 96.4333 454.3 98.5L465.6 96.9L473.3 121L463.4 126ZM442.3 118C437.6 103.5 422.1 95.5 407.6 100.2C393.1 104.8 385.1 120.3 389.8 134.8C394.4 149.3 409.9 157.3 424.4 152.7C438.9 148 446.9 132.5 442.3 118Z" fill="#E8E6FC"/>
<path fill-rule="evenodd" clip-rule="evenodd" d="M319.1 182.8C317 189.4 314.4 195.8 311.3 201.9L328 225.1L281.8 271.3L259 255C252.8 258.3 246.2 261.1 239.3 263.2L234.8 290.8H169.5L165 263.2C158.1 261.1 151.5 258.3 145.2 255L122.5 271.3L76.3 225.1L93 201.9C89.9 195.8 87.3 189.4 85.2 182.8L56.9 178.1V112.8L86 108C88.1 101.8 90.7 95.8 93.7 90L76.3 65.8L122.5 19.6L147.1 37.3C152.7 34.5 158.533 32.1333 164.6 30.2L169.5 0.200012H234.8L239.7 30.2C245.767 32.1333 251.567 34.5 257.1 37.3L281.8 19.6L328 65.8L310.6 90C313.6 95.8 316.2 101.8 318.3 108L347.4 112.8V178.1L319.1 182.8ZM273.4 146.7C273.4 107.4 241.5 75.5 202.2 75.5C162.9 75.5 131 107.4 131 146.7C131 186 162.9 217.9 202.2 217.9C241.5 217.9 273.4 186 273.4 146.7Z" fill="#98AAC9"/>
<path fill-rule="evenodd" clip-rule="evenodd" d="M202.1 237.5C151.4 237.5 110.1 196.2 110.1 145.5C110.1 94.7 151.4 53.5 202.1 53.5C252.9 53.5 294.2 94.7 294.2 145.5C294.2 196.2 252.9 237.5 202.1 237.5ZM202.1 83.5C168 83.5 140.2 111.3 140.2 145.5C140.2 179.7 168 207.5 202.1 207.5C236.3 207.5 264.1 179.7 264.1 145.5C264.1 111.3 236.3 83.5 202.1 83.5Z" fill="#D7D2FF"/>
<path fill-rule="evenodd" clip-rule="evenodd" d="M794.6 195.1C793 200.1 791.033 204.9 788.7 209.5L801.3 227L766.4 261.9L749.3 249.5C744.567 252.033 739.6 254.133 734.4 255.8L731 276.5H681.7L678.3 255.8C673.167 254.133 668.233 252.033 663.5 249.5L646.3 261.9L611.5 227L624 209.5C621.667 204.9 619.733 200.1 618.2 195.1L596.8 191.6V142.3L618.8 138.7C620.333 133.967 622.267 129.433 624.6 125.1L611.5 106.9L646.3 72L664.9 85.4C669.1 83.2667 673.467 81.4667 678 80L681.7 57.4H731L734.7 80C739.233 81.4667 743.633 83.2667 747.9 85.4L766.4 72L801.3 106.9L788.2 125.1C790.467 129.433 792.4 133.967 794 138.7L816 142.3V191.6L794.6 195.1ZM760 167.8C760 138.2 736 114.1 706.4 114.1C676.7 114.1 652.7 138.2 652.7 167.8C652.7 197.5 676.7 221.5 706.4 221.5C736 221.5 760 197.5 760 167.8Z" fill="#98AAC9"/>
<path fill-rule="evenodd" clip-rule="evenodd" d="M706.4 236.3C668.1 236.3 637 205.2 637 166.9C637 128.7 668.1 97.5 706.4 97.5C744.6 97.5 775.8 128.7 775.8 166.9C775.8 205.2 744.6 236.3 706.4 236.3ZM706.4 120.2C680.6 120.2 659.6 141.2 659.6 166.9C659.6 192.7 680.6 213.7 706.4 213.7C732.2 213.7 753.1 192.7 753.1 166.9C753.1 141.2 732.2 120.2 706.4 120.2Z" fill="#C3B7FC"/>
<path d="M145.5 509.7C147.033 512.633 148.833 515.433 150.9 518.1C166.7 538.7 197.2 546.4 220.8 536C222.333 535.4 223.833 534.667 225.3 533.8C227.633 532.467 229.833 531 231.9 529.4C251.6 514.2 257 487.5 253.9 461.5V461.4C253.5 457.733 252.9 454.1 252.1 450.5C248.7 434.6 242.4 419.6 234.5 408.4C233.633 407.2 232.767 406 231.9 404.8C230 402.5 228.1 400.1 226.1 397.9C219.7 390.6 212.8 383.8 206.7 376.4C205.1 374.467 203.567 372.5 202.1 370.5C198.5 365.6 195.5 360.4 193.3 354.6C189.7 345.1 188.8 334.9 188 324.7C187.6 320.7 187.3 316.8 186.9 312.8C186.4 308.7 185.7 304.5 184.7 300.5C182.5 291.5 178.6 283.1 173.7 275.3C172.167 272.767 170.5 270.3 168.7 267.9C166.767 265.233 164.767 262.633 162.7 260.1C152.8 248.1 141.4 237.3 128.7 228.1C126.633 226.567 124.533 225.067 122.4 223.6C115.8 219.3 109 215.3 102 211.8C99.5333 210.533 97 209.333 94.4 208.2C85.3 204.1 75.9 200.8 66.3 198.2C63.1 197.4 59.5 196.7 56.1 196.8C55.9666 196.8 55.8 196.8 55.6 196.8C52.7 197 50.6 199 50.1 201.5C49.6 203.3 50 205.3 51.6 206.9C58.6 214.1 64.4 222.6 68.7 231.7C69.9666 234.233 71.1 236.833 72.1 239.5C74.4 245.8 76.1 252.4 77 259.1C77.4 261.767 77.6333 264.433 77.7 267.1C77.7666 267.233 77.8 267.367 77.8 267.5C78.3 280.9 76.1 294.6 74.8 308.1C74.5333 311.167 74.3333 314.233 74.2 317.3C73.6 329.3 74.6 340.9 79.9 351.8C81.7 355.4 83.9 358.8 86.3 362C88.8 365.2 91.5 368.2 94.3 371.1C102 379.2 110.6 386.8 116.8 396.1C121.4 403 124.5 410.6 126.7 418.6C127.567 421.533 128.3 424.533 128.9 427.6C130.8 437.1 131.8 447 132.9 456.8C133.167 459.667 133.467 462.5 133.8 465.3C135.3 477.9 137.2 490.2 141.6 501.4C142.733 504.267 144.033 507.033 145.5 509.7Z" fill="#FF4646"/>
<path d="M145.5 509.7C153.967 509.967 162.433 510.2 170.9 510.4L197.7 511.2C203.4 511.4 209.7 512.3 215.6 512C218.2 519.8 220 527.8 220.8 536C222.333 535.4 223.833 534.667 225.3 533.8C227.633 532.467 229.833 531 231.9 529.4C230.8 522.3 228.9 515.2 226.5 508.3C229.9 505.1 231.9 500.2 234.2 496.2C238.533 488.667 242.833 481.133 247.1 473.6C249.367 469.533 251.633 465.5 253.9 461.5V461.4C253.5 457.733 252.9 454.1 252.1 450.5C248.8 456.1 245.5 461.7 242.2 467.3C238.067 474.433 233.9 481.6 229.7 488.8C227.8 492.2 225.8 495.6 223.8 499C223.667 499.267 223.5 499.567 223.3 499.9C219.6 490.9 215.1 482.2 210.3 474C208.433 470.867 206.533 467.8 204.6 464.8C207.1 461.3 208.4 456.4 210 453.1C213.3 445.8 216.7 438.4 220.1 431.1C223.6 423.4 227 415.6 230.5 407.9C230.967 406.9 231.433 405.867 231.9 404.8C230 402.5 228.1 400.1 226.1 397.9C221.6 406.4 218.2 415.7 214.3 424C211.2 430.6 208.2 437.3 205.2 443.9C203.6 447.433 202 450.933 200.4 454.4C200 455.3 199.6 456.1 199.3 456.8C192.9 447.4 186.2 438.1 179.6 428.7C182.3 425.4 184 421 185.9 417.7C189.5 411.1 193 404.5 196.4 397.8C199.9 390.7 203.4 383.6 206.7 376.4C205.1 374.467 203.567 372.5 202.1 370.5C201.967 370.7 201.867 370.9 201.8 371.1C198.1 378.1 194.4 385.2 190.6 392.2C187 398.8 183.4 405.4 179.8 412C178.1 414.9 176.6 418.5 174.6 421.2C167.8 411.1 161.5 400.7 156.3 389.6C153.9 384.467 151.9 379.267 150.3 374C154 370.2 157.2 364.9 160.2 361.2C165.1 355 170 348.8 174.8 342.5C179.2 336.6 183.7 330.7 188 324.7C187.6 320.7 187.3 316.8 186.9 312.8C180.8 320.4 175.1 328.2 169.3 335.8C164.9 341.5 160.5 347.2 156.1 352.8C153.767 355.733 151.4 358.667 149 361.6C148.5 362.2 148 363 147.5 363.8C145.8 356.9 144.7 349.8 144 342.5C143.6 338.967 143.233 335.433 142.9 331.9C144.8 330.2 146 327.7 147.3 325.6C149.5 321.933 151.667 318.233 153.8 314.5C157.5 308 161.1 301.4 164.5 294.6C167.7 288.3 170.8 281.8 173.7 275.3C172.167 272.767 170.5 270.3 168.7 267.9C168.567 268.167 168.433 268.433 168.3 268.7C165 275.5 161.7 282.2 158.2 288.9C154.9 295.2 151.5 301.5 148 307.8C146.2 310.867 144.4 313.933 142.6 317C142.2 317.7 141.8 318.4 141.4 319.2C140.4 311.7 139.1 304.3 137.1 297C133.6 284.7 128.7 272.8 122.4 261.6C122.667 260.867 122.9 260.067 123.1 259.2C124.3 253.2 125.3 247 126.3 240.9C126.9 236.8 127.9 232.5 128.7 228.1C126.633 226.567 124.533 225.067 122.4 223.6C121.7 227 121.2 230.3 120.5 233.4C119.4 238.7 118.2 244 117.1 249.3C117 249.9 116.9 251 116.8 252.2C111.9 244.6 106.3 237.4 100.2 230.7C101.6 226 101.4 219.8 101.7 216.1C101.767 214.7 101.867 213.267 102 211.8C99.5333 210.533 97 209.333 94.4 208.2C94.4 209.933 94.3333 211.633 94.2 213.3C94 216.767 93.6666 220.2 93.2 223.6C85.3 215.9 76.7 209.1 67.4 203.3C63.8 201.2 60.1 198.9 56.1 196.8C55.9666 196.8 55.8 196.8 55.6 196.8C52.7 197 50.6 199 50.1 201.5C50.3666 201.633 50.6666 201.8 51 202C57.2 205.5 63.1 209.4 68.8 213.7C75.4 218.8 81.7 224.3 87.6 230.3C81.3 230.9 75 231.3 68.7 231.7C69.9666 234.233 71.1 236.833 72.1 239.5C76.3666 239.1 80.6333 238.7 84.9 238.3C87.8 238 91.3 238.2 94.2 237.3C96.1333 239.5 98 241.733 99.8 244C103.533 248.867 107 253.9 110.2 259.1C110.067 259.1 109.933 259.1 109.8 259.1C99 258.3 87.9 258.2 77 259.1C77.4 261.767 77.6333 264.433 77.7 267.1C77.7666 267.233 77.8 267.367 77.8 267.5C80.7333 267.233 83.6666 267.033 86.6 266.9C92.6666 266.633 98.7 266.6 104.7 266.8C107.8 266.9 111.6 267.7 115 267.5C122.8 282.4 128.3 298.6 130.7 315.3C131.1 318.4 131.5 321.5 131.8 324.6C129.6 324 127.4 323 125.8 322.6C122.067 321.533 118.333 320.5 114.6 319.5C107.533 317.5 100.433 315.5 93.3 313.5C87.2 311.8 81 309.9 74.8 308.1C74.5333 311.167 74.3333 314.233 74.2 317.3C82.2 319.4 90.3 321.4 98.2 323.6C106.467 325.933 114.7 328.233 122.9 330.5C125.6 331.3 129.1 332.7 132.6 333.5C133.3 342.8 134 352 135.6 361.2C136.133 364.067 136.767 366.867 137.5 369.6C135.3 369.2 133 368.5 131.5 368.2C127.967 367.533 124.4 366.9 120.8 366.3C114 365.233 107.167 364.3 100.3 363.5C95.7 362.9 91.0333 362.4 86.3 362C88.8 365.2 91.5 368.2 94.3 371.1C98.1666 371.5 102.067 371.967 106 372.5C113.533 373.5 121.033 374.7 128.5 376.1C131.9 376.8 136.2 378.3 140.1 378.5C143.2 388.1 147.4 397.3 152.2 406.2C155.3 411.8 158.8 417.5 162.5 423.2C150.7 420.6 138.7 419.1 126.7 418.6C127.567 421.533 128.3 424.533 128.9 427.6C130.233 427.667 131.533 427.733 132.8 427.8C140.4 428.4 147.933 429.333 155.4 430.6C159.6 431.4 164.6 433 169.2 433.2C175.3 442.2 181.7 451.2 187.9 460.4C182.2 460.1 176.4 459.4 170.8 459.1C163.4 458.7 156 458.3 148.6 457.9C143.4 457.6 138.1 457.2 132.9 456.8C133.167 459.667 133.467 462.5 133.8 465.3C140.4 465.6 147.1 465.9 153.7 466.3C162.233 466.767 170.767 467.233 179.3 467.7C183.233 467.967 187.133 468.2 191 468.4C191.8 468.467 192.6 468.533 193.4 468.6C200.8 480.1 207.6 491.8 212.6 504C212.533 504 212.5 504 212.5 504C196.567 503.533 180.6 503.033 164.6 502.5C157.1 502.3 149.3 501.8 141.6 501.4C142.733 504.267 144.033 507.033 145.5 509.7Z" fill="#FEC1B8"/>
<path d="M209.9 491.2C209.1 504.5 204.7 519.2 197.2 531.6C196.067 533.467 194.867 535.267 193.6 537C186.9 546.3 178.3 553.9 167.9 558C139.5 569.2 107.4 569.6 79.9 555.7C73.6 552.5 67.1 547.2 64.3 541.1C63.3 538.9 62.7 536.5 62.9 534.1C62.9666 532.833 63.2333 531.6 63.7 530.4C64.8 527.4 67 525 69.5 523C74.9 518.5 81.6 515.6 88.6 515C64.9 512.4 39.7 505.8 24.5 487.4C22.1 484.5 19.9 480.9 19 477.3C18.5 475.3 18.5 473.2 19 471.2C19.0666 470.933 19.1333 470.633 19.2 470.3C20.9 465.3 25.8 461.8 30.9 460.5C36.4 459.1 42.1 459.8 47.7 460.4C24.3 450.2 6.49998 428.1 1.59998 403.1C0.19998 396.2 0.299981 388.2 3.29998 382.2C4.29998 380.3 5.49998 378.5 7.19998 377.1C7.93332 376.5 8.69998 375.933 9.49998 375.4C16.2 371.6 24.7 373.5 32 376.2C49.9 382.9 66.5 393.4 80.1 406.9C77.8 400.3 77.1 393 79.5 386.5C81.9 379.9 87.7 374.4 94.6 373.5C94.7333 373.5 94.9 373.467 95.1 373.4C97.8 373.1 100.5 373.5 103 374.4C109.1 376.5 114.5 381.3 119 386.1C133.2 401.2 145.3 418.3 154.6 436.8C156.3 432 158.1 427.2 161.5 423.4C163.2 421.4 165.5 419.8 167.9 418.8C170.1 418 172.4 417.8 174.6 418.3C174.733 418.3 174.867 418.333 175 418.4C177.8 419.1 180.1 421 182.2 423C200.9 440.1 211.3 465.9 209.9 491.2Z" fill="#264375"/>
<path d="M170.1 517.8C179 522.8 188 527.4 197.2 531.6C204.267 534.867 211.433 537.833 218.7 540.5C222.5 541.9 220.7 548.1 216.8 546.6C209 543.733 201.267 540.533 193.6 537C183.4 532.3 173.4 527.1 163.6 521.4C156.9 526.6 149.7 531 142 534.6C117.8 545.6 89.9 548.1 64.3 541.1C63.3 538.9 62.7 536.5 62.9 534.1C94.8 543.7 130.8 537.8 157.7 517.9C139.4 506.9 122 494.4 105.3 481C77.4 491 45.9 489.4 19 477.3C18.5 475.3 18.5 473.2 19 471.2C19.0667 470.933 19.1333 470.633 19.2 470.3C44.1 482.3 73.1 484.4 99.5 476.2C91.3667 469.4 83.3667 462.4 75.5 455.2C50.2 432.1 26.6 407.3 3.29999 382.2C4.29999 380.3 5.49999 378.5 7.19999 377.1C19 389.7 30.9 402.3 43 414.7C65.3 437.5 88.5 459.6 113.5 479.4C117.6 460.8 114.4 441.1 111.7 422.5C109.2 405 103.9 388.4 95.1 373.4C97.8 373.1 100.5 373.5 103 374.4C104.667 377.467 106.2 380.567 107.6 383.7C115.1 400.4 117.7 418 120 436.1C121.9 451.9 123.1 468.1 119.1 483.7C121.633 485.7 124.2 487.667 126.8 489.6C139 498.5 151.6 507 164.6 514.6C168.3 507.1 171.1 499.3 173 491.2C178.9 467.3 177 441.7 167.9 418.8C170.1 418 172.4 417.8 174.6 418.3C175.133 419.767 175.667 421.267 176.2 422.8C186.7 453.7 184.5 488.5 170.1 517.8Z" fill="#F7E5BD"/>
<path d="M772.3 517C770.567 519.933 768.567 522.767 766.3 525.5C749.2 546 717.4 552.8 693.5 541.1C691.9 540.367 690.367 539.567 688.9 538.7C686.5 537.233 684.3 535.633 682.3 533.9C662.5 517.3 658 489.5 662.3 462.8C662.9 459 663.667 455.233 664.6 451.5C668.7 435.2 675.9 420 684.5 408.8C685.433 407.6 686.4 406.4 687.4 405.2C689.4 402.8 691.5 400.5 693.6 398.3C700.5 391.1 707.9 384.3 714.5 376.9C716.233 374.967 717.9 373 719.5 371C723.3 366 726.7 360.8 729.2 355C733.3 345.3 734.6 334.8 735.9 324.2C736.4 320.2 736.9 316.1 737.5 312.1C738.2 307.8 739 303.6 740.2 299.4C742.9 290.2 747.3 281.7 752.6 273.8C754.333 271.267 756.167 268.8 758.1 266.4C760.167 263.733 762.333 261.133 764.6 258.6C775.3 246.6 787.6 235.9 801 226.9C803.2 225.433 805.433 224 807.7 222.6C814.6 218.3 821.8 214.5 829.2 211.1C831.867 209.967 834.533 208.833 837.2 207.7C846.7 203.9 856.6 200.8 866.6 198.6C870 197.9 873.7 197.3 877.2 197.6C877.333 197.6 877.5 197.6 877.7 197.6C880.7 197.8 882.8 200.1 883.3 202.6C883.6 204.6 883.1 206.6 881.5 208.2C874 215.4 867.6 223.8 862.8 233C861.4 235.6 860.133 238.233 859 240.9C856.3 247.4 854.3 254.2 853.1 261.1C852.633 263.833 852.267 266.567 852 269.3C852 269.433 852 269.567 852 269.7C850.9 283.4 852.6 297.8 853.4 311.7C853.6 314.9 853.7 318.067 853.7 321.2C853.8 333.6 852.3 345.6 846.4 356.6C844.4 360.3 842 363.7 839.4 366.9C836.7 370.1 833.8 373 830.8 376C822.4 384 813.3 391.5 806.5 400.8C801.5 407.8 797.9 415.5 795.3 423.7C794.367 426.7 793.5 429.767 792.7 432.9C790.4 442.6 788.9 452.8 787.5 462.9C787.033 465.833 786.6 468.767 786.2 471.7C784.1 484.6 781.6 497.2 776.6 508.6C775.333 511.467 773.9 514.267 772.3 517Z" fill="#264375"/>
<path d="M772.3 517C763.567 516.933 754.833 516.833 746.1 516.7L718.3 516.4C712.5 516.4 705.9 517 699.9 516.5C696.8 524.5 694.6 532.7 693.5 541.1C691.9 540.367 690.367 539.567 688.9 538.7C686.5 537.233 684.3 535.633 682.3 533.9C683.8 526.5 686 519.3 688.7 512.3C685.4 508.8 683.5 503.6 681.3 499.5C677.1 491.5 672.967 483.533 668.9 475.6C666.7 471.333 664.5 467.067 662.3 462.8C662.9 459 663.667 455.233 664.6 451.5C667.8 457.4 671 463.4 674.1 469.3C678.167 476.833 682.167 484.4 686.1 492C688.1 495.6 689.9 499.2 691.8 502.8C692 503.067 692.167 503.367 692.3 503.7C696.5 494.6 701.5 485.8 706.9 477.5C708.9 474.367 710.967 471.267 713.1 468.2C710.7 464.6 709.4 459.4 708 455.9C704.9 448.2 701.6 440.5 698.5 432.8C695.2 424.7 691.9 416.6 688.7 408.5C688.233 407.433 687.8 406.333 687.4 405.2C689.4 402.8 691.5 400.5 693.6 398.3C697.8 407.2 701 417 704.7 425.8C707.6 432.7 710.5 439.7 713.3 446.7C714.833 450.367 716.367 454.033 717.9 457.7C718.2 458.7 718.6 459.5 718.9 460.2C725.9 450.7 733.2 441.4 740.3 432C737.7 428.5 736.1 423.8 734.3 420.3C730.9 413.4 727.5 406.5 724.3 399.4C720.9 392 717.6 384.5 714.5 376.9C716.233 374.967 717.9 373 719.5 371C719.567 371.2 719.667 371.4 719.8 371.6C723.3 379 726.8 386.5 730.4 393.9C733.9 400.8 737.3 407.8 740.9 414.7C742.4 417.8 743.8 421.6 745.8 424.5C753.2 414.3 760.2 403.8 766 392.6C768.667 387.333 770.933 382.033 772.8 376.7C769.1 372.6 766.1 367 763.1 363C758.3 356.5 753.5 349.8 748.8 343.2C744.4 336.9 740 330.7 735.9 324.2C736.4 320.2 736.9 316.1 737.5 312.1C743.5 320.1 749 328.4 754.8 336.5C759 342.5 763.3 348.6 767.7 354.6C769.967 357.733 772.267 360.833 774.6 363.9C775.1 364.6 775.6 365.4 776.2 366.3C778.1 359.2 779.5 351.9 780.6 344.4C781.133 340.8 781.667 337.167 782.2 333.5C780.3 331.7 779.1 329.1 777.9 326.8C775.767 322.933 773.667 319.033 771.6 315.1C768 308.2 764.5 301.3 761.3 294.2C758.3 287.5 755.3 280.7 752.6 273.8C754.333 271.267 756.167 268.8 758.1 266.4C758.233 266.667 758.367 266.967 758.5 267.3C761.6 274.4 764.7 281.5 768.1 288.5C771.3 295.2 774.5 301.8 777.9 308.4C779.567 311.667 781.3 314.933 783.1 318.2C783.4 318.8 783.8 319.6 784.2 320.5C785.5 312.8 787.1 305.2 789.6 297.7C793.6 285.1 799.2 273.1 806.1 261.8C805.9 261 805.733 260.167 805.6 259.3C804.5 253 803.8 246.6 803 240.3C802.5 236 801.7 231.5 801 226.9C803.2 225.433 805.433 224 807.7 222.6C808.2 226.1 808.7 229.5 809.3 232.7C810.2 238.3 811.2 243.8 812.1 249.3C812.2 249.9 812.2 251.1 812.3 252.3C817.7 244.7 823.8 237.5 830.4 230.8C829.1 225.9 829.5 219.5 829.4 215.7C829.333 214.233 829.267 212.7 829.2 211.1C831.867 209.967 834.533 208.833 837.2 207.7C837.133 209.5 837.133 211.3 837.2 213.1C837.333 216.633 837.533 220.167 837.8 223.7C846.3 216.1 855.4 209.4 865.3 203.9C869.1 201.8 873 199.6 877.2 197.6C877.333 197.6 877.5 197.6 877.7 197.6C880.7 197.8 882.8 200.1 883.3 202.6C882.967 202.8 882.633 202.967 882.3 203.1C875.8 206.5 869.5 210.3 863.5 214.5C856.4 219.5 849.6 224.9 843.3 230.8C849.8 231.7 856.3 232.4 862.8 233C861.4 235.6 860.133 238.233 859 240.9C854.6 240.367 850.2 239.8 845.8 239.2C842.9 238.8 839.3 238.9 836.3 237.8C834.233 240 832.2 242.233 830.2 244.5C826.133 249.367 822.333 254.433 818.8 259.7C819 259.7 819.167 259.7 819.3 259.7C830.5 259.3 841.9 259.7 853.1 261.1C852.633 263.833 852.267 266.567 852 269.3C852 269.433 852 269.567 852 269.7C849 269.233 845.967 268.9 842.9 268.7C836.7 268.167 830.467 267.867 824.2 267.8C821 267.8 817.1 268.6 813.6 268.1C804.9 283.2 798.6 299.7 795.4 316.9C794.8 320.1 794.4 323.2 793.9 326.4C796.2 325.9 798.5 325 800.2 324.6C804.067 323.667 807.967 322.733 811.9 321.8C819.3 320.067 826.7 318.333 834.1 316.6C840.5 315.1 846.9 313.4 853.4 311.7C853.6 314.9 853.7 318.067 853.7 321.2C845.3 323.1 836.8 324.8 828.6 326.8C820 328.8 811.433 330.833 802.9 332.9C800 333.6 796.4 334.9 792.7 335.6C791.6 345.1 790.5 354.7 788.5 364.1C787.833 366.967 787.067 369.833 786.2 372.7C788.5 372.4 790.9 371.7 792.4 371.5C796.133 370.9 799.867 370.4 803.6 370C810.667 369.067 817.733 368.333 824.8 367.8C829.667 367.4 834.533 367.1 839.4 366.9C836.7 370.1 833.8 373 830.8 376C826.733 376.2 822.7 376.5 818.7 376.9C810.833 377.7 803 378.667 795.2 379.8C791.7 380.3 787.2 381.7 783.2 381.8C779.5 391.5 774.9 400.9 769.5 409.8C766.1 415.6 762.3 421.3 758.3 427C770.5 424.8 782.9 423.7 795.3 423.7C794.367 426.7 793.5 429.767 792.7 432.9C791.367 432.9 790.033 432.933 788.7 433C780.833 433.267 773 433.933 765.2 435C760.9 435.5 755.7 437.1 750.9 437.1C744.3 446.1 737.2 455.1 730.5 464.4C736.4 464.3 742.4 463.8 748.2 463.8C755.867 463.6 763.5 463.433 771.1 463.3C776.6 463.2 782 463.1 787.5 462.9C787.033 465.833 786.6 468.767 786.2 471.7C779.3 471.7 772.4 471.7 765.6 471.8C756.733 472 747.867 472.167 739 472.3C735 472.367 731 472.433 727 472.5C726.2 472.567 725.367 472.6 724.5 472.6C716.4 484.2 708.9 496 703.3 508.4C719.833 508.533 736.333 508.667 752.8 508.8C760.6 508.9 768.6 508.6 776.6 508.6C775.333 511.467 773.9 514.267 772.3 517Z" fill="#689FFF"/>
<path d="M690 487.3C689.9 501.3 693.5 516.8 700.5 530.3C701.567 532.3 702.7 534.267 703.9 536.2C710.2 546.4 718.8 554.9 729.3 559.8C758.2 573.4 791.7 575.9 821.3 563.2C828.1 560.3 835.2 555.3 838.5 549.1C839.8 546.8 840.5 544.3 840.4 541.8C840.4 540.533 840.2 539.233 839.8 537.9C838.9 534.7 836.7 532 834.3 529.8C829 524.7 822.1 521.3 814.9 520.2C839.8 519.1 866.5 513.9 883.6 495.7C886.3 492.8 888.9 489.2 890 485.4C890.6 483.4 890.8 481.3 890.5 479.2C890.433 478.867 890.333 478.533 890.2 478.2C888.9 472.9 884 468.9 878.7 467.2C873.1 465.4 867 465.7 861.2 466C886.2 456.9 906.3 435 913.1 409.2C915 402.2 915.4 393.8 912.7 387.4C911.8 385.3 910.6 383.3 909 381.7C908.267 381.033 907.467 380.4 906.6 379.8C899.9 375.4 890.9 376.8 883.2 379.2C864 384.9 846.1 394.8 831 408C833.8 401.3 834.9 393.7 832.9 386.7C830.8 379.7 825.2 373.6 818 372.2C817.867 372.2 817.7 372.167 817.5 372.1C814.7 371.6 811.9 371.9 809.2 372.6C802.7 374.4 796.8 379.1 791.7 383.8C775.9 398.5 762.2 415.6 751.3 434.2C749.8 429.2 748.2 424 745 419.8C743.3 417.6 741 415.8 738.5 414.6C736.3 413.6 734 413.2 731.6 413.6C731.467 413.6 731.333 413.633 731.2 413.7C728.2 414.3 725.7 416.1 723.3 418C702.7 434.6 690.1 460.8 690 487.3Z" fill="#FF4646"/>
<path d="M729.7 517.7C720.1 522.3 710.4 526.6 700.5 530.3C692.967 533.233 685.3 535.867 677.5 538.2C673.4 539.4 674.9 545.9 679 544.7C687.4 542.167 695.7 539.333 703.9 536.2C714.9 531.9 725.7 527.2 736.3 521.9C742.9 527.8 750.1 532.9 757.9 537.1C782.4 550.2 811.3 554.6 838.5 549.1C839.8 546.8 840.5 544.3 840.4 541.8C806.6 549.7 769.3 541.2 742.7 518.7C762.5 508.4 781.5 496.5 799.7 483.6C828.1 495.9 861.1 496.3 890 485.4C890.6 483.4 890.8 481.3 890.5 479.2C890.433 478.867 890.333 478.533 890.2 478.2C863.5 489 833.1 489.3 806.1 479C815.033 472.467 823.833 465.7 832.5 458.7C860.4 436.3 886.7 411.9 912.7 387.4C911.8 385.3 910.6 383.3 909 381.7C895.8 394.1 882.6 406.5 869.1 418.6C844.3 440.9 818.7 462.4 791.2 481.4C788.2 461.7 792.9 441.4 796.9 422.2C800.7 404.1 807.3 387.2 817.5 372.1C814.7 371.6 811.9 371.9 809.2 372.6C807.267 375.667 805.433 378.8 803.7 382C794.9 398.9 790.9 417.1 787.4 435.8C784.3 452.2 782.1 468.9 785.2 485.5C782.4 487.433 779.567 489.3 776.7 491.1C763.4 499.7 749.7 507.6 735.6 514.7C732.3 506.7 729.9 498.4 728.4 489.8C723.9 464.4 727.6 437.8 738.5 414.6C736.3 413.6 734 413.2 731.6 413.6C730.933 415.133 730.267 416.667 729.6 418.2C716.7 449.7 716.6 486.2 729.7 517.7Z" fill="white"/>
<path d="M713.9 564H207.8C197.6 564 189.4 555.7 189.4 545.5V211.5C189.4 201.3 197.6 193.1 207.8 193.1H713.9C724.1 193.1 732.3 201.3 732.3 211.5V545.5C732.3 555.7 724.1 564 713.9 564Z" fill="#E9E9FF"/>
<path d="M702.3 551.6H219.4V222.1H702.3V551.6Z" fill="#003083"/>
<path d="M801.7 546.4V565.1C801.7 573.6 794.2 580.6 784.9 580.6H136.8C127.5 580.6 119.9 573.6 119.9 565.1V546.4C119.9 537.8 127.5 530.9 136.8 530.9H784.9C794.2 530.9 801.7 537.8 801.7 546.4Z" fill="#98AAC9"/>
<path d="M516.8 530.9V532.6C516.8 540.8 510.1 547.4 501.9 547.4H419.7C411.5 547.4 404.9 540.8 404.9 532.6V530.9H516.8Z" fill="#F1F1F1"/>
<path d="M773.5 478.1L753.8 488.4L736.1 454.4L755.8 444.1L773.5 478.1Z" fill="#514E92"/>
<g opacity="0.3">
<path d="M674.2 295.8L699.9 454.4C691.6 453.7 683.5 451.9 675.7 448.9L653 308.6C657.5 304.9 662.4 301.6 667.8 298.8C669.867 297.733 672 296.733 674.2 295.8Z" fill="white"/>
<path d="M738.9 296.4L761.1 433.4C756 437.9 750.3 441.9 744 445.2C737.7 448.5 731.2 450.9 724.7 452.4L698.4 289.8C712.3 288.5 726.3 290.9 738.9 296.4Z" fill="white"/>
</g>
<path fill-rule="evenodd" clip-rule="evenodd" d="M752.7 461.2C752.633 461.267 752.533 461.333 752.4 461.4C703 487.1 642.2 467.9 616.5 418.5C590.8 369.2 610 308.3 659.3 282.6C659.433 282.6 659.567 282.567 659.7 282.5C709 257 769.6 276.3 795.2 325.5C820.9 374.8 801.8 435.4 752.7 461.2ZM779.1 333.9C770 316.5 755.6 303.7 738.9 296.4C726.3 290.9 712.3 288.5 698.4 289.8C690.2 290.6 682.1 292.5 674.2 295.8C672 296.733 669.867 297.733 667.8 298.8C662.4 301.6 657.5 304.9 653 308.6C623.8 332.9 614.4 375 632.6 410.1C642.2 428.6 657.8 441.9 675.7 448.9C683.5 451.9 691.6 453.7 699.9 454.4C708.1 455 716.5 454.3 724.7 452.4C731.2 450.9 737.7 448.5 744 445.2C750.3 441.9 756 437.9 761.1 433.4C788.4 408.8 796.8 368 779.1 333.9Z" fill="#0B5FEF"/>
<path opacity="0.1" d="M741.5 439.7C741.367 439.767 741.267 439.8 741.2 439.8C703.7 459.3 657.5 444.8 638 407.3C618.5 369.9 633.1 323.7 670.6 304.2C670.667 304.133 670.767 304.067 670.9 304C708.3 284.8 754.3 299.4 773.7 336.7C793.1 374.1 778.7 420.1 741.5 439.7Z" fill="white"/>
<path d="M781.3 471.2L834.8 573.9C840.2 584.2 836.4 597.1 826.2 602.7C826.133 602.7 826.1 602.7 826.1 602.7C815.7 608.3 802.6 604.3 797.1 593.8L743.5 490.9C741 486.1 742.9 480.2 747.7 477.7L768.1 467C772.9 464.5 778.8 466.4 781.3 471.2Z" fill="#0B5FEF"/>
<path d="M638 407.3C657.5 444.8 703.7 459.3 741.2 439.9C741.267 439.833 741.367 439.767 741.5 439.7L752.7 461.2C752.633 461.267 752.533 461.333 752.4 461.4C703 487.1 642.2 467.9 616.5 418.5C590.8 369.2 610 308.3 659.3 282.6C659.433 282.6 659.567 282.567 659.7 282.5L670.9 304C670.767 304.067 670.667 304.133 670.6 304.2C633.1 323.7 618.5 369.9 638 407.3Z" fill="#689FFF"/>
<path d="M747.7 477.7L758.3 472.2L826.2 602.7C826.133 602.7 826.1 602.7 826.1 602.7C815.7 608.3 802.6 604.3 797.1 593.8L743.5 490.9C741 486.1 742.9 480.2 747.7 477.7Z" fill="#689FFF"/>
<path fill-rule="evenodd" clip-rule="evenodd" d="M761.1 433.4C756 437.9 750.3 441.9 744 445.2C737.7 448.5 731.2 450.9 724.7 452.4C716.5 454.3 708.1 455 699.9 454.4C691.6 453.7 683.5 451.9 675.7 448.9C657.8 441.9 642.2 428.6 632.6 410.1C614.4 375 623.8 332.9 653 308.6C657.5 304.9 662.4 301.6 667.8 298.8C669.867 297.733 672 296.733 674.2 295.8C682.1 292.5 690.2 290.6 698.4 289.8C712.3 288.5 726.3 290.9 738.9 296.4C755.6 303.7 770 316.5 779.1 333.9C796.8 368 788.4 408.8 761.1 433.4ZM773.7 336.7C754.3 299.4 708.3 284.8 670.9 304C670.767 304.067 670.667 304.133 670.6 304.2C633.1 323.7 618.5 369.9 638 407.3C657.5 444.8 703.7 459.3 741.2 439.8C741.267 439.8 741.367 439.767 741.5 439.7C778.7 420.1 793.1 374.1 773.7 336.7Z" fill="#E9E9FF"/>
<path d="M252.1 366.3C248.6 360.2 244 354.3 242.8 347.9C239 328.2 250.3 300.4 227.8 288C217.1 282 202.9 282.9 192.5 289C184.2 293.8 178.5 302 177.5 311.6C176.8 318.2 176.9 334.8 177.5 341.5C178.5 352.9 176 353 170.1 362.8C166 369.5 161.6 377.6 164.8 385.6C166.6 389.9 170.6 393.1 175.2 393.9C179.3 394.6 184 393.6 187.3 396C190.4 398.3 191.3 402.5 194.4 404.8C198.7 408 206.6 408.8 211.8 408.7C217.7 408.6 223.8 406.5 227.9 402.1C234.3 395 235.5 395.5 244.8 393.9C249.4 393.1 253.4 389.9 255.2 385.6C258 378.6 255.6 372.4 252.1 366.3Z" fill="#4D4D96"/>
<path d="M200.5 568.4L199.6 599.7C199.6 600.167 199.6 600.633 199.6 601.1C199.5 603.2 199.3 605.6 198.5 608C197.2 611.9 191.9 619 188.9 621.7C186.3 624.1 181.7 626.1 178.1 624.7C177.367 624.433 176.733 624.033 176.2 623.5C171.1 619 177.2 611.9 180.9 606.7C181.9 605.3 182.7 604.1 183.1 603C184.1 600.2 184.4 567.9 184.6 567.9L200.5 568.4Z" fill="#F0C9A1"/>
<path d="M199.6 601.1C199.5 603.2 199.3 605.6 198.5 608C197.2 611.9 191.9 619 188.9 621.7C186.3 624.1 181.7 626.1 178.1 624.7C177.367 624.433 176.733 624.033 176.2 623.5C171.1 619 177.2 611.9 180.9 606.7C180.7 608.2 180.4 609.9 180.8 610.9C181.8 613.4 185.1 614.4 187.6 613.6C190.2 612.7 192 610.6 193.6 608.4C195.1 606.2 196.4 603.7 198.4 601.9C198.7 601.6 199.1 601.3 199.6 601.1Z" fill="#003083"/>
<path d="M226 568.4L226.9 599.7C226.9 600.167 226.9 600.633 226.9 601.1C227 603.2 227.2 605.6 228 608C229.3 611.9 234.7 619 237.6 621.7C240.3 624.1 244.8 626.1 248.5 624.7C249.167 624.433 249.8 624.033 250.4 623.5C255.4 619 249.3 611.9 245.7 606.7C244.6 605.3 243.8 604.1 243.4 603C242.4 600.2 242.1 567.9 242 567.9L226 568.4Z" fill="#F0C9A1"/>
<path d="M226.9 601.1C227 603.2 227.2 605.6 228 608C229.3 611.9 234.7 619 237.6 621.7C240.3 624.1 244.8 626.1 248.5 624.7C249.167 624.433 249.8 624.033 250.4 623.5C255.4 619 249.3 611.9 245.7 606.7C245.9 608.2 246.1 609.9 245.7 610.9C244.8 613.4 241.5 614.4 238.9 613.6C236.4 612.7 234.5 610.6 233 608.4C231.5 606.2 230.1 603.7 228.2 601.9C227.8 601.6 227.4 601.3 226.9 601.1Z" fill="#003083"/>
<path d="M244.5 437.7C227.1 438.4 196.9 439.4 193.1 439.5C187.2 439.5 182.5 439.4 178.9 439.6C178.7 442.133 178.533 444.667 178.4 447.2C177.8 455.3 167.4 588.7 169.4 591.2C171.1 593.4 191.7 594.1 204.9 593.8C205.2 587.1 208 491.9 208.9 461.9H214.2C216.6 499.7 217.9 555 220.3 592.4C233.4 591.5 254.4 590.5 254.4 589.1C255.4 569 246.2 483.6 244.5 437.7Z" fill="#8E0D0D"/>
<path d="M244.5 437.7C227.1 438.4 196.9 439.4 193.1 439.5C187.2 439.5 182.5 439.4 178.9 439.6C180.1 421.7 181.7 395.5 184.2 377.7C184.6 374.8 185.2 372 186 369.2C187.8 363.6 190.7 358.6 195.8 355C202.7 350.3 212 348.6 220 351.3C227.5 353.7 233.2 360 236.5 367C239.8 374.1 241 381.8 242.1 389.5C243.1 397.2 243.9 420 244.5 437.7Z" fill="white"/>
<path d="M239.7 415.6C220.7 418.3 201.5 418.7 182.5 417C180.2 416.8 178.3 419.1 178.4 421.1C178.4 423.6 180.3 425 182.5 425.2C201.6 427 220.8 426.5 239.8 423.9C242 423.6 243.9 422.2 243.9 419.7C243.9 417.7 242 415.3 239.7 415.6Z" fill="#DFDBFC"/>
<path d="M234.2 394.7C217 395.9 199.7 396.2 182.5 395.4C177.1 395.2 177.2 403.5 182.5 403.7C199.8 404.4 217 404.2 234.3 402.9C239.5 402.6 239.5 394.3 234.2 394.7Z" fill="#DFDBFC"/>
<path d="M231.5 374.4C225 376.5 218 375.7 211.3 375.5C204.033 375.3 196.8 375.1 189.6 374.9C184.3 374.7 184.4 383 189.7 383.1C197.233 383.3 204.8 383.533 212.4 383.8C219.5 384 226.9 384.6 233.7 382.4C238.8 380.7 236.6 372.7 231.5 374.4Z" fill="#DFDBFC"/>
<path d="M322.7 371.9C324.3 371.3 326 370.3 326.1 368.6C326.2 367.6 325.6 366.6 324.7 366C323.8 365.4 322.8 365.1 321.7 364.9C317.8 364.2 313.7 364.2 309.8 365C309.9 363.7 310 362.4 309.4 361.3C308.9 360.2 307.5 359.4 306.4 359.9C305.2 360.4 305 362 304.5 363.2C303.7 365 302.1 366.4 300.6 367.7C299.1 369.1 297.7 370.8 297.7 372.9C297.7 374.6 298.8 376.1 300.1 377.2C304 380.6 306.3 377.9 310.4 376.3C314.4 374.6 318.6 373.5 322.7 371.9Z" fill="#F0C9A1"/>
<path d="M310.1 376.7C308.4 374.5 306.2 372.6 304 371.1C302 369.8 300 368.6 298 367.6C290.5 376.9 281.8 385.5 272.2 393C269.7 394.9 266.5 397.1 264.2 397C261.1 396.9 257.7 392.4 255 388.5C249.4 380 244.3 369.7 237.8 361.6C236.5 360.1 221.6 347.4 221 353.2C220.5 357.9 222.8 388.3 223.7 402.2C225.5 429.867 227.3 457.533 229.1 485.2C229.4 489.1 231.2 531.1 232.1 531.1C240.9 531.6 249.7 531.4 258.4 530.7C251.6 488.2 248.6 445.2 246.1 402.3C250 406.8 255.6 411.4 263.5 411.8C263.767 411.8 264.067 411.8 264.4 411.8C271.6 411.8 277.4 408 282.2 404.3C292.6 396.2 302.1 387 310.2 376.8C310.2 376.8 310.167 376.767 310.1 376.7Z" fill="#8690F1"/>
<path d="M99.5 372.5C97.9 371.9 96.1 370.9 96 369.2C95.9 368.1 96.6 367.1 97.5 366.5C98.3 365.9 99.4 365.7 100.4 365.5C104.4 364.8 108.4 364.8 112.3 365.5C112.3 364.3 112.2 363 112.7 361.9C113.3 360.7 114.6 359.9 115.8 360.4C117 361 117.2 362.5 117.7 363.7C118.4 365.6 120.1 366.9 121.5 368.3C123 369.7 124.4 371.4 124.4 373.4C124.4 375.1 123.4 376.7 122.1 377.8C118.2 381.1 115.8 378.5 111.8 376.8C107.7 375.2 103.5 374.1 99.5 372.5Z" fill="#F0C9A1"/>
<path d="M201.1 353.7C200.7 349.3 192.2 356.1 191 357.1C186.1 361 183.4 364.6 180.1 369.6L167.1 389C164.5 393 161.1 397.5 158 397.6C155.7 397.7 152.5 395.5 150 393.5C140.4 386 131.7 377.5 124.2 368.1C122.1 369.2 120.1 370.3 118.2 371.6C115.9 373.2 113.8 375 112.1 377.2C112.033 377.267 111.967 377.333 111.9 377.4C120.1 387.5 129.5 396.8 139.9 404.9C144.7 408.6 150.6 412.4 157.8 412.4C158.067 412.4 158.367 412.367 158.7 412.3C166.6 412 172.2 407.4 176 402.9C173.6 445.8 170.5 488.7 163.7 531.3C172.5 532 181.3 532.1 190 531.7C190.9 531.6 192.8 489.7 193 485.7C194.8 458.033 196.6 430.367 198.4 402.7C199.3 388.9 201.6 358.4 201.1 353.7Z" fill="#8690F1"/>
<path d="M219.4 330.9V354.9C219.4 359.6 215.5 363.4 210.8 363.4C206.1 363.4 202.3 359.6 202.3 354.9V330.9H219.4Z" fill="#F0C9A1"/>
<path d="M219.4 335.5V352C215.7 353.1 212 353.9 208.2 353.8C206.3 353.8 204.2 353.5 202.3 352.9V338.2C203.3 337.7 204.3 337.4 205.3 337C209.8 335.7 214.6 335.1 219.4 335.5Z" fill="#E9B588"/>
<path d="M187.8 322.9C187.8 338.3 196 350.7 208.7 350.7C221.5 350.7 231.9 338.3 231.9 322.9C231.9 307.6 221.5 295.1 208.7 295.1C196 295.1 187.8 307.6 187.8 322.9Z" fill="#F0C9A1"/>
<path d="M226 325.5C224.9 330 226.9 334.3 230.5 335.1C234 336 237.8 333 238.8 328.6C239.9 324.2 237.9 319.9 234.3 319C230.8 318.2 227 321.1 226 325.5Z" fill="#F0C9A1"/>
<path d="M180.3 328.6C179.2 324.2 181.3 319.9 184.8 319C188.4 318.2 192.1 321.1 193.2 325.5C194.2 330 192.2 334.3 188.6 335.1C185.1 336 181.4 333 180.3 328.6Z" fill="#F0C9A1"/>
<path d="M192 294.6C187.4 297.9 183.4 302.7 181.8 308.6C181.3 310.3 181.1 312.3 181.7 313.9C182.6 316.2 185.1 317.3 187.3 317.2C189.5 317 191.6 315.9 193.5 314.7C197.6 312.2 201.4 309.2 205 305.9C203.8 308.3 202.6 311.3 203.9 313.7C205.6 316.5 209.6 315.7 212.4 314.2C215.2 312.6 217.9 310.7 220.4 308.4C219.9 311.1 222.5 313.3 225 313.7C228.2 314.3 231.6 313 233.7 310.3C235.9 307.6 236.6 303.6 235.3 300.2C234.4 297.7 232.4 295.7 230.4 294.1C218 284.4 204.4 285.9 192 294.6Z" fill="#4D4D96"/>
<path fill-rule="evenodd" clip-rule="evenodd" d="M227.3 325.4C227.3 330 223.5 333.8 218.8 333.8C214.4 333.8 210.9 330.5 210.4 326.2H207.2C206.7 330.5 203.2 333.8 198.8 333.8C194.1 333.8 190.4 330 190.4 325.4C190.4 320.7 194.1 316.9 198.8 316.9C203.2 316.9 206.7 320.3 207.2 324.5H210.4C210.9 320.3 214.4 316.9 218.8 316.9C223.5 316.9 227.3 320.7 227.3 325.4ZM205.6 325.4C205.6 321.6 202.5 318.6 198.8 318.6C195.1 318.6 192 321.6 192 325.4C192 329.1 195.1 332.1 198.8 332.1C202.5 332.1 205.6 329.1 205.6 325.4ZM225.6 325.4C225.6 321.6 222.5 318.6 218.8 318.6C215.1 318.6 212 321.6 212 325.4C212 329.1 215.1 332.1 218.8 332.1C222.5 332.1 225.6 329.1 225.6 325.4Z" fill="white"/>
<g filter="url(#filter0_dd_17_5)">
<path d="M356.584 309.681C361.131 309.681 365.104 310.603 368.504 312.446C371.945 314.249 374.587 316.788 376.431 320.066C378.274 323.343 379.196 327.091 379.196 331.31C379.196 335.488 378.254 339.216 376.369 342.493C374.526 345.77 371.884 348.351 368.443 350.235C365.043 352.078 361.09 353 356.584 353H339.441V309.681H356.584ZM355.662 342.37C359.185 342.37 361.95 341.407 363.957 339.482C365.965 337.557 366.968 334.833 366.968 331.31C366.968 327.746 365.965 325.002 363.957 323.076C361.95 321.11 359.185 320.127 355.662 320.127H351.484V342.37H355.662Z" fill="white"/>
<path d="M403.55 353.43C399.494 353.43 395.767 352.488 392.367 350.604C388.967 348.678 386.263 346.036 384.256 342.677C382.29 339.277 381.307 335.447 381.307 331.187C381.307 326.927 382.29 323.117 384.256 319.758C386.263 316.358 388.967 313.716 392.367 311.832C395.767 309.948 399.494 309.005 403.55 309.005C407.646 309.005 411.374 309.948 414.733 311.832C418.132 313.716 420.816 316.358 422.782 319.758C424.748 323.117 425.731 326.927 425.731 331.187C425.731 335.447 424.748 339.277 422.782 342.677C420.816 346.036 418.132 348.678 414.733 350.604C411.333 352.488 407.605 353.43 403.55 353.43ZM403.55 342.247C406.622 342.247 409.039 341.244 410.8 339.236C412.602 337.229 413.504 334.546 413.504 331.187C413.504 327.746 412.602 325.043 410.8 323.076C409.039 321.069 406.622 320.066 403.55 320.066C400.436 320.066 397.999 321.069 396.238 323.076C394.476 325.043 393.595 327.746 393.595 331.187C393.595 334.587 394.476 337.291 396.238 339.298C397.999 341.264 400.436 342.247 403.55 342.247Z" fill="white"/>
<path d="M427.827 331.248C427.827 326.988 428.708 323.199 430.469 319.881C432.272 316.522 434.811 313.921 438.088 312.078C441.365 310.193 445.134 309.251 449.394 309.251C454.801 309.251 459.348 310.705 463.035 313.614C466.722 316.481 469.098 320.393 470.163 325.35H457.198C456.419 323.711 455.334 322.462 453.941 321.602C452.589 320.741 451.012 320.311 449.21 320.311C446.424 320.311 444.192 321.315 442.512 323.322C440.874 325.288 440.055 327.93 440.055 331.248C440.055 334.607 440.874 337.291 442.512 339.298C444.192 341.264 446.424 342.247 449.21 342.247C451.012 342.247 452.589 341.817 453.941 340.957C455.334 340.097 456.419 338.847 457.198 337.209H470.163C469.098 342.165 466.722 346.098 463.035 349.006C459.348 351.873 454.801 353.307 449.394 353.307C445.134 353.307 441.365 352.386 438.088 350.542C434.811 348.658 432.272 346.057 430.469 342.739C428.708 339.38 427.827 335.55 427.827 331.248Z" fill="white"/>
<path d="M506.649 309.681V319.267H495.098V353H483.054V319.267H471.626V309.681H506.649Z" fill="white"/>
<path d="M530.03 353.43C525.975 353.43 522.247 352.488 518.847 350.604C515.447 348.678 512.744 346.036 510.736 342.677C508.77 339.277 507.787 335.447 507.787 331.187C507.787 326.927 508.77 323.117 510.736 319.758C512.744 316.358 515.447 313.716 518.847 311.832C522.247 309.948 525.975 309.005 530.03 309.005C534.126 309.005 537.854 309.948 541.213 311.832C544.613 313.716 547.296 316.358 549.262 319.758C551.229 323.117 552.212 326.927 552.212 331.187C552.212 335.447 551.229 339.277 549.262 342.677C547.296 346.036 544.613 348.678 541.213 350.604C537.813 352.488 534.085 353.43 530.03 353.43ZM530.03 342.247C533.102 342.247 535.519 341.244 537.281 339.236C539.083 337.229 539.984 334.546 539.984 331.187C539.984 327.746 539.083 325.043 537.281 323.076C535.519 321.069 533.102 320.066 530.03 320.066C526.917 320.066 524.48 321.069 522.718 323.076C520.957 325.043 520.076 327.746 520.076 331.187C520.076 334.587 520.957 337.291 522.718 339.298C524.48 341.264 526.917 342.247 530.03 342.247Z" fill="white"/>
<path d="M577.718 353L569.116 337.024H567.825V353H555.782V309.681H574.769C578.251 309.681 581.2 310.296 583.617 311.525C586.034 312.713 587.856 314.372 589.085 316.502C590.314 318.591 590.929 320.946 590.929 323.568C590.929 326.517 590.109 329.118 588.471 331.371C586.873 333.583 584.518 335.16 581.405 336.103L591.174 353H577.718ZM567.825 328.791H573.786C575.424 328.791 576.653 328.402 577.472 327.623C578.292 326.845 578.701 325.718 578.701 324.244C578.701 322.851 578.271 321.765 577.411 320.987C576.592 320.168 575.383 319.758 573.786 319.758H567.825V328.791Z" fill="white"/>
</g>
<g filter="url(#filter1_dddd_17_5)">
<path d="M400.226 395H398.976L387.529 377.552V395H386.278V375.524H387.529L398.976 392.916V375.524H400.226V395Z" fill="white"/>
<path d="M413.506 395.222C411.71 395.222 410.089 394.806 408.644 393.972C407.199 393.12 406.069 391.935 405.254 390.416C404.439 388.897 404.032 387.183 404.032 385.276C404.032 383.349 404.439 381.636 405.254 380.136C406.069 378.617 407.199 377.441 408.644 376.607C410.089 375.755 411.71 375.329 413.506 375.329C415.303 375.329 416.924 375.755 418.368 376.607C419.813 377.441 420.943 378.617 421.758 380.136C422.573 381.636 422.98 383.349 422.98 385.276C422.98 387.183 422.573 388.897 421.758 390.416C420.943 391.935 419.813 393.12 418.368 393.972C416.924 394.806 415.303 395.222 413.506 395.222ZM413.506 394.111C415.044 394.111 416.433 393.75 417.674 393.027C418.915 392.305 419.887 391.277 420.591 389.943C421.313 388.61 421.675 387.054 421.675 385.276C421.675 383.479 421.313 381.914 420.591 380.58C419.887 379.247 418.915 378.219 417.674 377.496C416.433 376.774 415.044 376.413 413.506 376.413C411.969 376.413 410.58 376.774 409.339 377.496C408.098 378.219 407.116 379.247 406.394 380.58C405.671 381.914 405.31 383.479 405.31 385.276C405.31 387.054 405.671 388.61 406.394 389.943C407.116 391.277 408.098 392.305 409.339 393.027C410.58 393.75 411.969 394.111 413.506 394.111Z" fill="white"/>
<path d="M437.54 375.496V376.552H431.984V395H430.733V376.552H425.176V375.496H437.54Z" fill="white"/>
<path d="M458.415 375.496V376.552H449.608V384.692H457.304V385.748H449.608V395H448.358V375.496H458.415Z" fill="white"/>
<path d="M470.43 395.222C468.634 395.222 467.013 394.806 465.568 393.972C464.123 393.12 462.994 391.935 462.179 390.416C461.364 388.897 460.956 387.183 460.956 385.276C460.956 383.349 461.364 381.636 462.179 380.136C462.994 378.617 464.123 377.441 465.568 376.607C467.013 375.755 468.634 375.329 470.43 375.329C472.227 375.329 473.848 375.755 475.293 376.607C476.737 377.441 477.867 378.617 478.682 380.136C479.497 381.636 479.905 383.349 479.905 385.276C479.905 387.183 479.497 388.897 478.682 390.416C477.867 391.935 476.737 393.12 475.293 393.972C473.848 394.806 472.227 395.222 470.43 395.222ZM470.43 394.111C471.968 394.111 473.357 393.75 474.598 393.027C475.839 392.305 476.811 391.277 477.515 389.943C478.238 388.61 478.599 387.054 478.599 385.276C478.599 383.479 478.238 381.914 477.515 380.58C476.811 379.247 475.839 378.219 474.598 377.496C473.357 376.774 471.968 376.413 470.43 376.413C468.893 376.413 467.504 376.774 466.263 377.496C465.022 378.219 464.04 379.247 463.318 380.58C462.595 381.914 462.234 383.479 462.234 385.276C462.234 387.054 462.595 388.61 463.318 389.943C464.04 391.277 465.022 392.305 466.263 393.027C467.504 393.75 468.893 394.111 470.43 394.111Z" fill="white"/>
<path d="M484.823 375.496V387.693C484.823 389.897 485.324 391.518 486.324 392.555C487.324 393.574 488.685 394.083 490.408 394.083C492.112 394.083 493.455 393.574 494.437 392.555C495.418 391.536 495.909 389.916 495.909 387.693V375.496H497.159V387.665C497.159 390.203 496.548 392.092 495.326 393.333C494.103 394.574 492.464 395.194 490.408 395.194C488.352 395.194 486.694 394.574 485.435 393.333C484.194 392.073 483.573 390.184 483.573 387.665V375.496H484.823Z" fill="white"/>
<path d="M515.539 395H514.289L502.842 377.552V395H501.592V375.524H502.842L514.289 392.916V375.524H515.539V395Z" fill="white"/>
<path d="M525.597 375.496C528.894 375.496 531.431 376.357 533.21 378.08C535.006 379.802 535.905 382.201 535.905 385.276C535.905 388.35 535.006 390.74 533.21 392.444C531.431 394.148 528.894 395 525.597 395H520.123V375.496H525.597ZM525.597 393.944C528.542 393.944 530.783 393.185 532.321 391.666C533.858 390.129 534.627 387.998 534.627 385.276C534.627 382.534 533.858 380.395 532.321 378.858C530.783 377.32 528.542 376.552 525.597 376.552H521.374V393.944H525.597Z" fill="white"/>
<path d="M541.52 375.496L541.381 390.249H540.297L540.131 375.496H541.52ZM540.909 395.083C540.594 395.083 540.334 394.981 540.131 394.778C539.927 394.574 539.825 394.315 539.825 394C539.825 393.685 539.927 393.426 540.131 393.222C540.334 393.018 540.594 392.916 540.909 392.916C541.205 392.916 541.455 393.018 541.659 393.222C541.862 393.426 541.964 393.685 541.964 394C541.964 394.315 541.862 394.574 541.659 394.778C541.455 394.981 541.205 395.083 540.909 395.083Z" fill="white"/>
</g>
<g opacity="0.5" filter="url(#filter2_d_17_5)">
<path fill-rule="evenodd" clip-rule="evenodd" d="M476.202 443.077C471.529 439.605 452.047 437 428.723 437C411.355 437 396.116 438.444 387.537 440.616C380.694 440.032 372.864 439.701 364.545 439.701C337.734 439.701 316 443.143 316 447.389C316 450.252 325.885 452.749 340.545 454.072C340.275 454.401 340.135 454.736 340.135 455.076C340.135 459.322 361.87 462.764 388.681 462.764C399.841 462.764 410.121 462.167 418.321 461.165C431.546 464.66 455.699 467 483.302 467C525.109 467 559 461.633 559 455.013C559 448.392 525.109 443.025 483.302 443.025C480.908 443.025 478.54 443.043 476.202 443.077Z" fill="white"/>
</g>
<g opacity="0.8" filter="url(#filter3_d_17_5)">
<path fill-rule="evenodd" clip-rule="evenodd" d="M452.798 447.672C457.471 444.431 476.953 442 500.277 442C517.645 442 532.884 443.348 541.463 445.375C548.306 444.83 556.136 444.521 564.455 444.521C591.266 444.521 613 447.733 613 451.696C613 454.368 603.115 456.699 588.455 457.934C588.725 458.241 588.865 458.554 588.865 458.871C588.865 462.834 567.13 466.046 540.319 466.046C529.159 466.046 518.879 465.489 510.679 464.554C497.454 467.816 473.301 470 445.698 470C403.891 470 370 464.991 370 458.812C370 452.633 403.891 447.624 445.698 447.624C448.092 447.624 450.46 447.64 452.798 447.672Z" fill="white"/>
</g>
<defs>
<filter id="filter0_dd_17_5" x="335.441" y="309.005" width="259.734" height="52.4247" filterUnits="userSpaceOnUse" color-interpolation-filters="sRGB">
<feFlood flood-opacity="0" result="BackgroundImageFix"/>
<feColorMatrix in="SourceAlpha" type="matrix" values="0 0 0 0 0 0 0 0 0 0 0 0 0 0 0 0 0 0 127 0" result="hardAlpha"/>
<feOffset dy="4"/>
<feGaussianBlur stdDeviation="2"/>
<feComposite in2="hardAlpha" operator="out"/>
<feColorMatrix type="matrix" values="0 0 0 0 0 0 0 0 0 0 0 0 0 0 0 0 0 0 0.25 0"/>
<feBlend mode="normal" in2="BackgroundImageFix" result="effect1_dropShadow_17_5"/>
<feColorMatrix in="SourceAlpha" type="matrix" values="0 0 0 0 0 0 0 0 0 0 0 0 0 0 0 0 0 0 127 0" result="hardAlpha"/>
<feOffset dy="4"/>
<feGaussianBlur stdDeviation="2"/>
<feComposite in2="hardAlpha" operator="out"/>
<feColorMatrix type="matrix" values="0 0 0 0 0 0 0 0 0 0 0 0 0 0 0 0 0 0 0.25 0"/>
<feBlend mode="normal" in2="effect1_dropShadow_17_5" result="effect2_dropShadow_17_5"/>
<feBlend mode="normal" in="SourceGraphic" in2="effect2_dropShadow_17_5" result="shape"/>
</filter>
<filter id="filter1_dddd_17_5" x="382.278" y="375.329" width="163.686" height="27.8932" filterUnits="userSpaceOnUse" color-interpolation-filters="sRGB">
<feFlood flood-opacity="0" result="BackgroundImageFix"/>
<feColorMatrix in="SourceAlpha" type="matrix" values="0 0 0 0 0 0 0 0 0 0 0 0 0 0 0 0 0 0 127 0" result="hardAlpha"/>
<feOffset dy="4"/>
<feGaussianBlur stdDeviation="2"/>
<feComposite in2="hardAlpha" operator="out"/>
<feColorMatrix type="matrix" values="0 0 0 0 0 0 0 0 0 0 0 0 0 0 0 0 0 0 0.25 0"/>
<feBlend mode="normal" in2="BackgroundImageFix" result="effect1_dropShadow_17_5"/>
<feColorMatrix in="SourceAlpha" type="matrix" values="0 0 0 0 0 0 0 0 0 0 0 0 0 0 0 0 0 0 127 0" result="hardAlpha"/>
<feOffset dy="4"/>
<feGaussianBlur stdDeviation="2"/>
<feComposite in2="hardAlpha" operator="out"/>
<feColorMatrix type="matrix" values="0 0 0 0 0 0 0 0 0 0 0 0 0 0 0 0 0 0 0.25 0"/>
<feBlend mode="normal" in2="effect1_dropShadow_17_5" result="effect2_dropShadow_17_5"/>
<feColorMatrix in="SourceAlpha" type="matrix" values="0 0 0 0 0 0 0 0 0 0 0 0 0 0 0 0 0 0 127 0" result="hardAlpha"/>
<feOffset dy="4"/>
<feGaussianBlur stdDeviation="2"/>
<feComposite in2="hardAlpha" operator="out"/>
<feColorMatrix type="matrix" values="0 0 0 0 0 0 0 0 0 0 0 0 0 0 0 0 0 0 0.25 0"/>
<feBlend mode="normal" in2="effect2_dropShadow_17_5" result="effect3_dropShadow_17_5"/>
<feColorMatrix in="SourceAlpha" type="matrix" values="0 0 0 0 0 0 0 0 0 0 0 0 0 0 0 0 0 0 127 0" result="hardAlpha"/>
<feOffset dy="4"/>
<feGaussianBlur stdDeviation="2"/>
<feComposite in2="hardAlpha" operator="out"/>
<feColorMatrix type="matrix" values="0 0 0 0 0 0 0 0 0 0 0 0 0 0 0 0 0 0 0.25 0"/>
<feBlend mode="normal" in2="effect3_dropShadow_17_5" result="effect4_dropShadow_17_5"/>
<feBlend mode="normal" in="SourceGraphic" in2="effect4_dropShadow_17_5" result="shape"/>
</filter>
<filter id="filter2_d_17_5" x="312" y="437" width="251" height="38" filterUnits="userSpaceOnUse" color-interpolation-filters="sRGB">
<feFlood flood-opacity="0" result="BackgroundImageFix"/>
<feColorMatrix in="SourceAlpha" type="matrix" values="0 0 0 0 0 0 0 0 0 0 0 0 0 0 0 0 0 0 127 0" result="hardAlpha"/>
<feOffset dy="4"/>
<feGaussianBlur stdDeviation="2"/>
<feComposite in2="hardAlpha" operator="out"/>
<feColorMatrix type="matrix" values="0 0 0 0 0 0 0 0 0 0 0 0 0 0 0 0 0 0 0.25 0"/>
<feBlend mode="normal" in2="BackgroundImageFix" result="effect1_dropShadow_17_5"/>
<feBlend mode="normal" in="SourceGraphic" in2="effect1_dropShadow_17_5" result="shape"/>
</filter>
<filter id="filter3_d_17_5" x="366" y="442" width="251" height="36" filterUnits="userSpaceOnUse" color-interpolation-filters="sRGB">
<feFlood flood-opacity="0" result="BackgroundImageFix"/>
<feColorMatrix in="SourceAlpha" type="matrix" values="0 0 0 0 0 0 0 0 0 0 0 0 0 0 0 0 0 0 127 0" result="hardAlpha"/>
<feOffset dy="4"/>
<feGaussianBlur stdDeviation="2"/>
<feComposite in2="hardAlpha" operator="out"/>
<feColorMatrix type="matrix" values="0 0 0 0 0 0 0 0 0 0 0 0 0 0 0 0 0 0 0.25 0"/>
<feBlend mode="normal" in2="BackgroundImageFix" result="effect1_dropShadow_17_5"/>
<feBlend mode="normal" in="SourceGraphic" in2="effect1_dropShadow_17_5" result="shape"/>
</filter>
</defs>
</svg>
